G04 Generated by Ultiboard 14.0 *
%FSLAX46Y46*%
%MOMM*%

%ADD10C,0.000001*%
%ADD11C,0.010000*%
%ADD12C,0.100000*%
%ADD13C,0.001270*%
%ADD14C,0.127000*%


G04 ColorRGB 000000 for the following layer *
%LNDrill Symbols-Copper Top-Copper Bottom*%
%LPD*%
G54D11*
X1270000Y-450000D02*
X1270000Y450000D01*
X820000Y0D02*
X1720000Y0D01*
X-1270000Y-450000D02*
X-1270000Y450000D01*
X-1720000Y0D02*
X-820000Y0D01*
X9981221Y-31764078D02*
X10476195Y-31269104D01*
X9981221Y-31269104D02*
X10476195Y-31764078D01*
X10352533Y-32483611D02*
X10847507Y-32978585D01*
X10352533Y-32978585D02*
X10847507Y-32483611D01*
X9609909Y-30054597D02*
X10104883Y-30549571D01*
X9609909Y-30549571D02*
X10104883Y-30054597D01*
X9238597Y-29335064D02*
X9733571Y-28840090D01*
X9238597Y-28840090D02*
X9733571Y-29335064D01*
X-28081716Y-20470239D02*
X-27586742Y-19975265D01*
X-28081716Y-19975265D02*
X-27586742Y-20470239D01*
X-27054264Y-19723752D02*
X-26559290Y-19228778D01*
X-27054264Y-19228778D02*
X-26559290Y-19723752D01*
X-24999360Y-18230778D02*
X-24504386Y-17735804D01*
X-24999360Y-17735804D02*
X-24504386Y-18230778D01*
X-26026812Y-18977265D02*
X-25531838Y-18482291D01*
X-26026812Y-18482291D02*
X-25531838Y-18977265D01*
X30347513Y247487D02*
X30842487Y-247487D01*
X30347513Y-247487D02*
X30842487Y247487D01*
X31617513Y-247487D02*
X32112487Y247487D01*
X31617513Y247487D02*
X32112487Y-247487D01*
X34157513Y247487D02*
X34652487Y-247487D01*
X34157513Y-247487D02*
X34652487Y247487D01*
X32887513Y247487D02*
X33382487Y-247487D01*
X32887513Y-247487D02*
X33382487Y247487D01*
X9991791Y31265771D02*
X10486765Y31760745D01*
X9991791Y31760745D02*
X10486765Y31265771D01*
X9599340Y30057929D02*
X10094314Y30552903D01*
X9599340Y30552903D02*
X10094314Y30057929D01*
X9206889Y29345061D02*
X9701863Y28850087D01*
X9206889Y28850087D02*
X9701863Y29345061D01*
X10384242Y32473613D02*
X10879216Y32968587D01*
X10384242Y32968587D02*
X10879216Y32473613D01*
X28258468Y17051081D02*
X28258468Y17951081D01*
X27808468Y17501081D02*
X28708468Y17501081D01*
X30030000Y18732500D02*
X30930000Y18732500D01*
X30480000Y18282500D02*
X30480000Y19182500D01*
X31711419Y16060968D02*
X31711419Y16960968D01*
X31261419Y16510968D02*
X32161419Y16510968D01*
X32492839Y14289435D02*
X33392839Y14289435D01*
X32942839Y13839435D02*
X32942839Y14739435D01*
X29039887Y15279548D02*
X29939887Y15279548D01*
X29489887Y14829548D02*
X29489887Y15729548D01*
X30271306Y13058016D02*
X31171306Y13058016D01*
X30721306Y12608016D02*
X30721306Y13508016D01*
X5365001Y6985000D02*
G75*
D01*
G02X5365001Y6985000I349999J0*
G01*
X7965001Y6985000D02*
G75*
D01*
G02X7965001Y6985000I349999J0*
G01*
X10565001Y6985000D02*
G75*
D01*
G02X10565001Y6985000I349999J0*
G01*
X-28924999Y10477500D02*
G75*
D01*
G02X-28924999Y10477500I349999J0*
G01*
X-17812499Y10477500D02*
G75*
D01*
G02X-17812499Y10477500I349999J0*
G01*
X0Y-11880000D02*
X0Y-10980000D01*
X-450000Y-11430000D02*
X450000Y-11430000D01*
X-450000Y-8890000D02*
X450000Y-8890000D01*
X0Y-9340000D02*
X0Y-8440000D01*
X-11430000Y-450000D02*
X-11430000Y450000D01*
X-11880000Y0D02*
X-10980000Y0D01*
X-8890000Y-450000D02*
X-8890000Y450000D01*
X-9340000Y0D02*
X-8440000Y0D01*
X-450000Y11430000D02*
X450000Y11430000D01*
X0Y10980000D02*
X0Y11880000D01*
X-450000Y8890000D02*
X450000Y8890000D01*
X0Y8440000D02*
X0Y9340000D01*
X-1270000Y4630000D02*
X-1270000Y5530000D01*
X-1720000Y5080000D02*
X-820000Y5080000D01*
X-11430000Y4630000D02*
X-11430000Y5530000D01*
X-11880000Y5080000D02*
X-10980000Y5080000D01*
X12065000Y17330000D02*
X12065000Y18230000D01*
X11615000Y17780000D02*
X12515000Y17780000D01*
X22225000Y17330000D02*
X22225000Y18230000D01*
X21775000Y17780000D02*
X22675000Y17780000D01*
X13837500Y30480000D02*
X14737500Y30480000D01*
X14287500Y30030000D02*
X14287500Y30930000D01*
X14287500Y19870000D02*
X14287500Y20770000D01*
X13837500Y20320000D02*
X14737500Y20320000D01*
X16695000Y30480000D02*
X17595000Y30480000D01*
X17145000Y30030000D02*
X17145000Y30930000D01*
X16695000Y20320000D02*
X17595000Y20320000D01*
X17145000Y19870000D02*
X17145000Y20770000D01*
X20002500Y30030000D02*
X20002500Y30930000D01*
X19552500Y30480000D02*
X20452500Y30480000D01*
X19552500Y20320000D02*
X20452500Y20320000D01*
X20002500Y19870000D02*
X20002500Y20770000D01*
X-2037500Y-33020000D02*
X-1137500Y-33020000D01*
X-1587500Y-33470000D02*
X-1587500Y-32570000D01*
X-2037500Y-22860000D02*
X-1137500Y-22860000D01*
X-1587500Y-23310000D02*
X-1587500Y-22410000D01*
X1270000Y-33470000D02*
X1270000Y-32570000D01*
X820000Y-33020000D02*
X1720000Y-33020000D01*
X820000Y-22860000D02*
X1720000Y-22860000D01*
X1270000Y-23310000D02*
X1270000Y-22410000D01*
X3810000Y-33470000D02*
X3810000Y-32570000D01*
X3360000Y-33020000D02*
X4260000Y-33020000D01*
X3360000Y-22860000D02*
X4260000Y-22860000D01*
X3810000Y-23310000D02*
X3810000Y-22410000D01*
X33840000Y-10477500D02*
X34740000Y-10477500D01*
X34290000Y-10927500D02*
X34290000Y-10027500D01*
X24130000Y-10927500D02*
X24130000Y-10027500D01*
X23680000Y-10477500D02*
X24580000Y-10477500D01*
X34290000Y-8387500D02*
X34290000Y-7487500D01*
X33840000Y-7937500D02*
X34740000Y-7937500D01*
X23680000Y-7937500D02*
X24580000Y-7937500D01*
X24130000Y-8387500D02*
X24130000Y-7487500D01*
X33840000Y-5397500D02*
X34740000Y-5397500D01*
X34290000Y-5847500D02*
X34290000Y-4947500D01*
X24130000Y-5847500D02*
X24130000Y-4947500D01*
X23680000Y-5397500D02*
X24580000Y-5397500D01*
X8440000Y0D02*
X9340000Y0D01*
X8890000Y-450000D02*
X8890000Y450000D01*
X10980000Y0D02*
X11880000Y0D01*
X11430000Y-450000D02*
X11430000Y450000D01*
X-18097500Y7170000D02*
X-18097500Y8070000D01*
X-18547500Y7620000D02*
X-17647500Y7620000D01*
X-28707500Y7620000D02*
X-27807500Y7620000D01*
X-28257500Y7170000D02*
X-28257500Y8070000D01*
X-30345000Y1250000D02*
X-29845000Y1250000D01*
X-29845000Y1750000D01*
X-30345000Y1750000D01*
X-30345000Y1250000D01*
X-30095000Y1500000D02*
X-30095000Y-1500000D01*
X-29595000Y-1500000D01*
X-29595000Y1500000D01*
X-30095000Y1500000D01*
X-36695000Y896448D02*
X-36341448Y1250000D01*
X-36695000Y1603552D01*
X-37048552Y1250000D01*
X-36695000Y896448D01*
X-36695000Y1250000D02*
X-36695000Y-1250000D01*
X-36195000Y-1250000D01*
X-36195000Y1250000D01*
X-36695000Y1250000D01*
X-32745000Y4596448D02*
X-32391448Y4950000D01*
X-32745000Y5303552D01*
X-33098552Y4950000D01*
X-32745000Y4596448D01*
X-32745000Y4950000D02*
X-35245000Y4950000D01*
X-35245000Y4450000D01*
X-32745000Y4450000D01*
X-32745000Y4950000D01*
X-18547500Y-27305000D02*
X-17647500Y-27305000D01*
X-18097500Y-27755000D02*
X-18097500Y-26855000D01*
X-18547500Y-17144999D02*
X-17647500Y-17144999D01*
X-18097500Y-17594999D02*
X-18097500Y-16694999D01*
X-20955000Y-27755000D02*
X-20955000Y-26855000D01*
X-21405000Y-27305000D02*
X-20505000Y-27305000D01*
X-21405000Y-17145000D02*
X-20505000Y-17145000D01*
X-20955000Y-17595000D02*
X-20955000Y-16695000D01*
X-15240000Y-27755000D02*
X-15240000Y-26855000D01*
X-15690000Y-27305000D02*
X-14790000Y-27305000D01*
X-15240000Y-17595000D02*
X-15240000Y-16695000D01*
X-15690000Y-17145000D02*
X-14790000Y-17145000D01*
X-22860000Y22410000D02*
X-22860000Y23310000D01*
X-23310000Y22860000D02*
X-22410000Y22860000D01*
X-12700000Y22410000D02*
X-12700000Y23310000D01*
X-13150000Y22860000D02*
X-12250000Y22860000D01*
X-22860000Y24950000D02*
X-22860000Y25850000D01*
X-23310000Y25400000D02*
X-22410000Y25400000D01*
X-12700000Y24950000D02*
X-12700000Y25850000D01*
X-13150000Y25400000D02*
X-12250000Y25400000D01*
X13520000Y5080000D02*
X14420000Y5080000D01*
X13970000Y4630000D02*
X13970000Y5530000D01*
X23680000Y5080000D02*
X24580000Y5080000D01*
X24130000Y4630000D02*
X24130000Y5530000D01*
X13520000Y8890000D02*
X14420000Y8890000D01*
X13970000Y8440000D02*
X13970000Y9340000D01*
X23680000Y8890000D02*
X24580000Y8890000D01*
X24130000Y8440000D02*
X24130000Y9340000D01*
X13335000Y12885000D02*
X13335000Y13785000D01*
X12885000Y13335000D02*
X13785000Y13335000D01*
X23045000Y13335000D02*
X23945000Y13335000D01*
X23495000Y12885000D02*
X23495000Y13785000D01*
X9295001Y15557500D02*
G75*
D01*
G02X9295001Y15557500I349999J0*
G01*
X4095001Y15557500D02*
G75*
D01*
G02X4095001Y15557500I349999J0*
G01*
X6695001Y15557500D02*
G75*
D01*
G02X6695001Y15557500I349999J0*
G01*
X5365001Y11112500D02*
G75*
D01*
G02X5365001Y11112500I349999J0*
G01*
X7965001Y11112500D02*
G75*
D01*
G02X7965001Y11112500I349999J0*
G01*
X10565001Y11112500D02*
G75*
D01*
G02X10565001Y11112500I349999J0*
G01*
X-22860000Y27490000D02*
X-22860000Y28390000D01*
X-23310000Y27940000D02*
X-22410000Y27940000D01*
X-13150000Y27940000D02*
X-12250000Y27940000D01*
X-12700000Y27490000D02*
X-12700000Y28390000D01*
X6695001Y20320000D02*
G75*
D01*
G02X6695001Y20320000I349999J0*
G01*
X9295001Y20320000D02*
G75*
D01*
G02X9295001Y20320000I349999J0*
G01*
X4095001Y20320000D02*
G75*
D01*
G02X4095001Y20320000I349999J0*
G01*
X-26026813Y18977265D02*
X-25531839Y18482291D01*
X-26026813Y18482291D02*
X-25531839Y18977265D01*
X-24999361Y18230778D02*
X-24504387Y17735804D01*
X-24999361Y17735804D02*
X-24504387Y18230778D01*
X-27054265Y19228778D02*
X-26559291Y19723752D01*
X-27054265Y19723752D02*
X-26559291Y19228778D01*
X-28081717Y20470239D02*
X-27586743Y19975265D01*
X-28081717Y19975265D02*
X-27586743Y20470239D01*
X22777500Y1187500D02*
X23577500Y1187500D01*
X23177500Y1870342D01*
X22777500Y1187500D01*
X22777500Y-1987500D02*
X23577500Y-1987500D01*
X23177500Y-1304658D01*
X22777500Y-1987500D01*
X71727000Y7777000D02*
X72627000Y7777000D01*
X72177000Y7327000D02*
X72177000Y8227000D01*
X71777000Y11477000D02*
X72577000Y11477000D01*
X72177000Y12159842D01*
X71777000Y11477000D01*
X71827001Y15977000D02*
G75*
D01*
G02X71827001Y15977000I349999J0*
G01*
X71929513Y19829513D02*
X72424487Y20324487D01*
X71929513Y20324487D02*
X72424487Y19829513D01*
X72177000Y23823448D02*
X72530552Y24177000D01*
X72177000Y24530552D01*
X71823448Y24177000D01*
X72177000Y23823448D01*
X71927000Y28027000D02*
X72427000Y28027000D01*
X72427000Y28527000D01*
X71927000Y28527000D01*
X71927000Y28027000D01*
G54D12*
X29727555Y-17928573D02*
X29727555Y-17285716D01*
X30060889Y-16857144D01*
X30394222Y-16857144D01*
X30727555Y-17285716D01*
X30727555Y-17928573D01*
X29727555Y-17607144D02*
X30727555Y-17607144D01*
X28810890Y-17500001D02*
G75*
D01*
G02X28810890Y-17500001I1499999J0*
G01*
X-33603334Y-9953572D02*
X-33603334Y-9310715D01*
X-33270000Y-8882143D01*
X-32936667Y-8882143D01*
X-32603334Y-9310715D01*
X-32603334Y-9953572D01*
X-33603334Y-9632143D02*
X-32603334Y-9632143D01*
X-34519999Y-9525000D02*
G75*
D01*
G02X-34519999Y-9525000I1499999J0*
G01*
X-6661020Y34039700D02*
X-6661020Y34682557D01*
X-6327686Y35111129D01*
X-5994353Y35111129D01*
X-5661020Y34682557D01*
X-5661020Y34039700D01*
X-6661020Y34361129D02*
X-5661020Y34361129D01*
X-7577685Y34468272D02*
G75*
D01*
G02X-7577685Y34468272I1499999J0*
G01*
X70677001Y3677000D02*
G75*
D01*
G02X70677001Y3677000I1499999J0*
G01*
X71593666Y3248428D02*
X71593666Y3891285D01*
X71927000Y4319857D01*
X72260333Y4319857D01*
X72593666Y3891285D01*
X72593666Y3248428D01*
X71593666Y3569857D02*
X72593666Y3569857D01*
X82943666Y4748428D02*
X83277000Y4962714D01*
X83943666Y4962714D01*
X84610333Y4534142D01*
X84610333Y4105571D01*
X84277000Y3891285D01*
X84610333Y3677000D01*
X84610333Y3248428D01*
X83943666Y2819857D01*
X83277000Y2819857D01*
X82943666Y3034142D01*
X83277000Y3891285D02*
X84277000Y3891285D01*
X86610333Y2819857D02*
X86610333Y3034142D01*
X88610333Y4534142D02*
X89277000Y4962714D01*
X89943666Y4962714D01*
X90610333Y4534142D01*
X90610333Y3248428D01*
X89943666Y2819857D01*
X89277000Y2819857D01*
X88610333Y3248428D01*
X88610333Y4534142D01*
X90610333Y4534142D02*
X88610333Y3248428D01*
X91610333Y4534142D02*
X92277000Y4962714D01*
X92943666Y4962714D01*
X93610333Y4534142D01*
X93610333Y3248428D01*
X92943666Y2819857D01*
X92277000Y2819857D01*
X91610333Y3248428D01*
X91610333Y4534142D01*
X93610333Y4534142D02*
X91610333Y3248428D01*
X94610333Y4534142D02*
X95277000Y4962714D01*
X95943666Y4962714D01*
X96610333Y4534142D01*
X96610333Y3248428D01*
X95943666Y2819857D01*
X95277000Y2819857D01*
X94610333Y3248428D01*
X94610333Y4534142D01*
X96610333Y4534142D02*
X94610333Y3248428D01*
X97610333Y4534142D02*
X98277000Y4962714D01*
X98943666Y4962714D01*
X99610333Y4534142D01*
X99610333Y3248428D01*
X98943666Y2819857D01*
X98277000Y2819857D01*
X97610333Y3248428D01*
X97610333Y4534142D01*
X99610333Y4534142D02*
X97610333Y3248428D01*
X100610333Y4534142D02*
X101277000Y4962714D01*
X101943666Y4962714D01*
X102610333Y4534142D01*
X102610333Y3248428D01*
X101943666Y2819857D01*
X101277000Y2819857D01*
X100610333Y3248428D01*
X100610333Y4534142D01*
X102610333Y4534142D02*
X100610333Y3248428D01*
X103610333Y4534142D02*
X104277000Y4962714D01*
X104943666Y4962714D01*
X105610333Y4534142D01*
X105610333Y3248428D01*
X104943666Y2819857D01*
X104277000Y2819857D01*
X103610333Y3248428D01*
X103610333Y4534142D01*
X105610333Y4534142D02*
X103610333Y3248428D01*
X118543666Y4748428D02*
X118877000Y4962714D01*
X119543666Y4962714D01*
X120210333Y4534142D01*
X120210333Y4105571D01*
X119877000Y3891285D01*
X120210333Y3677000D01*
X120210333Y3248428D01*
X119543666Y2819857D01*
X118877000Y2819857D01*
X118543666Y3034142D01*
X118877000Y3891285D02*
X119877000Y3891285D01*
X135810333Y2819857D02*
X135810333Y4962714D01*
X137810333Y2819857D01*
X137810333Y4962714D01*
X138810333Y2819857D02*
X138810333Y4962714D01*
X140143666Y4962714D01*
X140810333Y4534142D01*
X140810333Y4319857D01*
X140143666Y3891285D01*
X138810333Y3891285D01*
X142810333Y2819857D02*
X142810333Y4962714D01*
X141810333Y4962714D02*
X143810333Y4962714D01*
X144810333Y2819857D02*
X144810333Y4962714D01*
X146810333Y2819857D02*
X146810333Y4962714D01*
X144810333Y3891285D02*
X146810333Y3891285D01*
X154910333Y4534142D02*
X155577000Y4962714D01*
X156243666Y4962714D01*
X156910333Y4534142D01*
X156910333Y3248428D01*
X156243666Y2819857D01*
X155577000Y2819857D01*
X154910333Y3248428D01*
X154910333Y4534142D01*
X156910333Y4534142D02*
X154910333Y3248428D01*
X162577000Y2819857D02*
X162243666Y2819857D01*
X161577000Y3248428D01*
X161577000Y4534142D01*
X162243666Y4962714D01*
X162577000Y4962714D01*
X163910333Y2819857D02*
X163910333Y4962714D01*
X165243666Y4962714D01*
X165910333Y4534142D01*
X165910333Y4319857D01*
X165243666Y3891285D01*
X163910333Y3891285D01*
X164243666Y3891285D02*
X165910333Y2819857D01*
X166910333Y3248428D02*
X167577000Y2819857D01*
X168243666Y2819857D01*
X168910333Y3248428D01*
X168910333Y4534142D01*
X168243666Y4962714D01*
X167577000Y4962714D01*
X166910333Y4534142D01*
X166910333Y3248428D01*
X169910333Y4962714D02*
X169910333Y3248428D01*
X170577000Y2819857D01*
X171243666Y2819857D01*
X171910333Y3248428D01*
X171910333Y4962714D01*
X172910333Y2819857D02*
X172910333Y4962714D01*
X174910333Y2819857D01*
X174910333Y4962714D01*
X175910333Y2819857D02*
X177243666Y2819857D01*
X177910333Y3248428D01*
X177910333Y4534142D01*
X177243666Y4962714D01*
X175910333Y4962714D01*
X176243666Y4962714D02*
X176243666Y2819857D01*
X179243666Y4962714D02*
X179577000Y4962714D01*
X180243666Y4534142D01*
X180243666Y3248428D01*
X179577000Y2819857D01*
X179243666Y2819857D01*
X82610333Y8634142D02*
X83277000Y9062714D01*
X83943666Y9062714D01*
X84610333Y8634142D01*
X84610333Y7348428D01*
X83943666Y6919857D01*
X83277000Y6919857D01*
X82610333Y7348428D01*
X82610333Y8634142D01*
X84610333Y8634142D02*
X82610333Y7348428D01*
X86610333Y6919857D02*
X86610333Y7134142D01*
X88610333Y7348428D02*
X89277000Y6919857D01*
X89943666Y6919857D01*
X90610333Y7348428D01*
X90610333Y8205571D01*
X90610333Y8634142D01*
X89943666Y9062714D01*
X89277000Y9062714D01*
X88610333Y8634142D01*
X88610333Y8205571D01*
X89277000Y7777000D01*
X89943666Y7777000D01*
X90610333Y8205571D01*
X91610333Y8634142D02*
X92277000Y9062714D01*
X92943666Y9062714D01*
X93610333Y8634142D01*
X93610333Y7348428D01*
X92943666Y6919857D01*
X92277000Y6919857D01*
X91610333Y7348428D01*
X91610333Y8634142D01*
X93610333Y8634142D02*
X91610333Y7348428D01*
X94610333Y8634142D02*
X95277000Y9062714D01*
X95943666Y9062714D01*
X96610333Y8634142D01*
X96610333Y7348428D01*
X95943666Y6919857D01*
X95277000Y6919857D01*
X94610333Y7348428D01*
X94610333Y8634142D01*
X96610333Y8634142D02*
X94610333Y7348428D01*
X97610333Y8634142D02*
X98277000Y9062714D01*
X98943666Y9062714D01*
X99610333Y8634142D01*
X99610333Y7348428D01*
X98943666Y6919857D01*
X98277000Y6919857D01*
X97610333Y7348428D01*
X97610333Y8634142D01*
X99610333Y8634142D02*
X97610333Y7348428D01*
X100610333Y8634142D02*
X101277000Y9062714D01*
X101943666Y9062714D01*
X102610333Y8634142D01*
X102610333Y7348428D01*
X101943666Y6919857D01*
X101277000Y6919857D01*
X100610333Y7348428D01*
X100610333Y8634142D01*
X102610333Y8634142D02*
X100610333Y7348428D01*
X103610333Y8634142D02*
X104277000Y9062714D01*
X104943666Y9062714D01*
X105610333Y8634142D01*
X105610333Y7348428D01*
X104943666Y6919857D01*
X104277000Y6919857D01*
X103610333Y7348428D01*
X103610333Y8634142D01*
X105610333Y8634142D02*
X103610333Y7348428D01*
X118710333Y9062714D02*
X116710333Y9062714D01*
X116710333Y8205571D01*
X118043666Y8205571D01*
X118710333Y7777000D01*
X118710333Y7348428D01*
X118043666Y6919857D01*
X116710333Y6919857D01*
X121043666Y6919857D02*
X120377000Y6919857D01*
X119710333Y7348428D01*
X119710333Y7777000D01*
X120043666Y7991285D01*
X119710333Y8205571D01*
X119710333Y8634142D01*
X120377000Y9062714D01*
X121043666Y9062714D01*
X121710333Y8634142D01*
X121710333Y8205571D01*
X121377000Y7991285D01*
X121710333Y7777000D01*
X121710333Y7348428D01*
X121043666Y6919857D01*
X120043666Y7991285D02*
X121377000Y7991285D01*
X137310333Y6919857D02*
X137310333Y9062714D01*
X138643666Y9062714D01*
X139310333Y8634142D01*
X139310333Y8419857D01*
X138643666Y7991285D01*
X137310333Y7991285D01*
X141310333Y6919857D02*
X141310333Y9062714D01*
X140310333Y9062714D02*
X142310333Y9062714D01*
X143310333Y6919857D02*
X143310333Y9062714D01*
X145310333Y6919857D02*
X145310333Y9062714D01*
X143310333Y7991285D02*
X145310333Y7991285D01*
X154910333Y8634142D02*
X155577000Y9062714D01*
X156243666Y9062714D01*
X156910333Y8634142D01*
X156910333Y7348428D01*
X156243666Y6919857D01*
X155577000Y6919857D01*
X154910333Y7348428D01*
X154910333Y8634142D01*
X156910333Y8634142D02*
X154910333Y7348428D01*
X162577000Y6919857D02*
X162243666Y6919857D01*
X161577000Y7348428D01*
X161577000Y8634142D01*
X162243666Y9062714D01*
X162577000Y9062714D01*
X163910333Y6919857D02*
X163910333Y9062714D01*
X165243666Y9062714D01*
X165910333Y8634142D01*
X165910333Y8419857D01*
X165243666Y7991285D01*
X163910333Y7991285D01*
X164243666Y7991285D02*
X165910333Y6919857D01*
X166910333Y7348428D02*
X167577000Y6919857D01*
X168243666Y6919857D01*
X168910333Y7348428D01*
X168910333Y8634142D01*
X168243666Y9062714D01*
X167577000Y9062714D01*
X166910333Y8634142D01*
X166910333Y7348428D01*
X169910333Y9062714D02*
X169910333Y7348428D01*
X170577000Y6919857D01*
X171243666Y6919857D01*
X171910333Y7348428D01*
X171910333Y9062714D01*
X172910333Y6919857D02*
X172910333Y9062714D01*
X174910333Y6919857D01*
X174910333Y9062714D01*
X175910333Y6919857D02*
X177243666Y6919857D01*
X177910333Y7348428D01*
X177910333Y8634142D01*
X177243666Y9062714D01*
X175910333Y9062714D01*
X176243666Y9062714D02*
X176243666Y6919857D01*
X179243666Y9062714D02*
X179577000Y9062714D01*
X180243666Y8634142D01*
X180243666Y7348428D01*
X179577000Y6919857D01*
X179243666Y6919857D01*
X82610333Y12734142D02*
X83277000Y13162714D01*
X83943666Y13162714D01*
X84610333Y12734142D01*
X84610333Y11448428D01*
X83943666Y11019857D01*
X83277000Y11019857D01*
X82610333Y11448428D01*
X82610333Y12734142D01*
X84610333Y12734142D02*
X82610333Y11448428D01*
X86610333Y11019857D02*
X86610333Y11234142D01*
X89943666Y11019857D02*
X89277000Y11019857D01*
X88610333Y11448428D01*
X88610333Y11877000D01*
X88943666Y12091285D01*
X88610333Y12305571D01*
X88610333Y12734142D01*
X89277000Y13162714D01*
X89943666Y13162714D01*
X90610333Y12734142D01*
X90610333Y12305571D01*
X90277000Y12091285D01*
X90610333Y11877000D01*
X90610333Y11448428D01*
X89943666Y11019857D01*
X88943666Y12091285D02*
X90277000Y12091285D01*
X91610333Y12734142D02*
X92277000Y13162714D01*
X92943666Y13162714D01*
X93610333Y12734142D01*
X93610333Y11448428D01*
X92943666Y11019857D01*
X92277000Y11019857D01*
X91610333Y11448428D01*
X91610333Y12734142D01*
X93610333Y12734142D02*
X91610333Y11448428D01*
X94610333Y12734142D02*
X95277000Y13162714D01*
X95943666Y13162714D01*
X96610333Y12734142D01*
X96610333Y11448428D01*
X95943666Y11019857D01*
X95277000Y11019857D01*
X94610333Y11448428D01*
X94610333Y12734142D01*
X96610333Y12734142D02*
X94610333Y11448428D01*
X97610333Y12734142D02*
X98277000Y13162714D01*
X98943666Y13162714D01*
X99610333Y12734142D01*
X99610333Y11448428D01*
X98943666Y11019857D01*
X98277000Y11019857D01*
X97610333Y11448428D01*
X97610333Y12734142D01*
X99610333Y12734142D02*
X97610333Y11448428D01*
X100610333Y12734142D02*
X101277000Y13162714D01*
X101943666Y13162714D01*
X102610333Y12734142D01*
X102610333Y11448428D01*
X101943666Y11019857D01*
X101277000Y11019857D01*
X100610333Y11448428D01*
X100610333Y12734142D01*
X102610333Y12734142D02*
X100610333Y11448428D01*
X103610333Y12734142D02*
X104277000Y13162714D01*
X104943666Y13162714D01*
X105610333Y12734142D01*
X105610333Y11448428D01*
X104943666Y11019857D01*
X104277000Y11019857D01*
X103610333Y11448428D01*
X103610333Y12734142D01*
X105610333Y12734142D02*
X103610333Y11448428D01*
X118210333Y12734142D02*
X118877000Y13162714D01*
X119543666Y13162714D01*
X120210333Y12734142D01*
X120210333Y12519857D01*
X118210333Y11019857D01*
X120210333Y11019857D01*
X120210333Y11234142D01*
X135810333Y11019857D02*
X135810333Y13162714D01*
X137810333Y11019857D01*
X137810333Y13162714D01*
X138810333Y11019857D02*
X138810333Y13162714D01*
X140143666Y13162714D01*
X140810333Y12734142D01*
X140810333Y12519857D01*
X140143666Y12091285D01*
X138810333Y12091285D01*
X142810333Y11019857D02*
X142810333Y13162714D01*
X141810333Y13162714D02*
X143810333Y13162714D01*
X144810333Y11019857D02*
X144810333Y13162714D01*
X146810333Y11019857D02*
X146810333Y13162714D01*
X144810333Y12091285D02*
X146810333Y12091285D01*
X154910333Y12734142D02*
X155577000Y13162714D01*
X156243666Y13162714D01*
X156910333Y12734142D01*
X156910333Y11448428D01*
X156243666Y11019857D01*
X155577000Y11019857D01*
X154910333Y11448428D01*
X154910333Y12734142D01*
X156910333Y12734142D02*
X154910333Y11448428D01*
X162577000Y11019857D02*
X162243666Y11019857D01*
X161577000Y11448428D01*
X161577000Y12734142D01*
X162243666Y13162714D01*
X162577000Y13162714D01*
X163910333Y11019857D02*
X163910333Y13162714D01*
X165243666Y13162714D01*
X165910333Y12734142D01*
X165910333Y12519857D01*
X165243666Y12091285D01*
X163910333Y12091285D01*
X164243666Y12091285D02*
X165910333Y11019857D01*
X166910333Y11448428D02*
X167577000Y11019857D01*
X168243666Y11019857D01*
X168910333Y11448428D01*
X168910333Y12734142D01*
X168243666Y13162714D01*
X167577000Y13162714D01*
X166910333Y12734142D01*
X166910333Y11448428D01*
X169910333Y13162714D02*
X169910333Y11448428D01*
X170577000Y11019857D01*
X171243666Y11019857D01*
X171910333Y11448428D01*
X171910333Y13162714D01*
X172910333Y11019857D02*
X172910333Y13162714D01*
X174910333Y11019857D01*
X174910333Y13162714D01*
X175910333Y11019857D02*
X177243666Y11019857D01*
X177910333Y11448428D01*
X177910333Y12734142D01*
X177243666Y13162714D01*
X175910333Y13162714D01*
X176243666Y13162714D02*
X176243666Y11019857D01*
X179243666Y13162714D02*
X179577000Y13162714D01*
X180243666Y12734142D01*
X180243666Y11448428D01*
X179577000Y11019857D01*
X179243666Y11019857D01*
X82610333Y16834142D02*
X83277000Y17262714D01*
X83943666Y17262714D01*
X84610333Y16834142D01*
X84610333Y15548428D01*
X83943666Y15119857D01*
X83277000Y15119857D01*
X82610333Y15548428D01*
X82610333Y16834142D01*
X84610333Y16834142D02*
X82610333Y15548428D01*
X86610333Y15119857D02*
X86610333Y15334142D01*
X89610333Y15119857D02*
X89610333Y16191285D01*
X90610333Y16834142D01*
X90610333Y17262714D01*
X88610333Y17262714D01*
X88610333Y16834142D01*
X91610333Y16834142D02*
X92277000Y17262714D01*
X92943666Y17262714D01*
X93610333Y16834142D01*
X93610333Y15548428D01*
X92943666Y15119857D01*
X92277000Y15119857D01*
X91610333Y15548428D01*
X91610333Y16834142D01*
X93610333Y16834142D02*
X91610333Y15548428D01*
X94610333Y16834142D02*
X95277000Y17262714D01*
X95943666Y17262714D01*
X96610333Y16834142D01*
X96610333Y15548428D01*
X95943666Y15119857D01*
X95277000Y15119857D01*
X94610333Y15548428D01*
X94610333Y16834142D01*
X96610333Y16834142D02*
X94610333Y15548428D01*
X97610333Y16834142D02*
X98277000Y17262714D01*
X98943666Y17262714D01*
X99610333Y16834142D01*
X99610333Y15548428D01*
X98943666Y15119857D01*
X98277000Y15119857D01*
X97610333Y15548428D01*
X97610333Y16834142D01*
X99610333Y16834142D02*
X97610333Y15548428D01*
X100610333Y16834142D02*
X101277000Y17262714D01*
X101943666Y17262714D01*
X102610333Y16834142D01*
X102610333Y15548428D01*
X101943666Y15119857D01*
X101277000Y15119857D01*
X100610333Y15548428D01*
X100610333Y16834142D01*
X102610333Y16834142D02*
X100610333Y15548428D01*
X103610333Y16834142D02*
X104277000Y17262714D01*
X104943666Y17262714D01*
X105610333Y16834142D01*
X105610333Y15548428D01*
X104943666Y15119857D01*
X104277000Y15119857D01*
X103610333Y15548428D01*
X103610333Y16834142D01*
X105610333Y16834142D02*
X103610333Y15548428D01*
X117043666Y16834142D02*
X117710333Y17262714D01*
X117710333Y15119857D01*
X116710333Y15119857D02*
X118710333Y15119857D01*
X121710333Y15977000D02*
X119710333Y15977000D01*
X121377000Y17262714D01*
X121377000Y15119857D01*
X121043666Y15119857D02*
X121710333Y15119857D01*
X137310333Y15119857D02*
X137310333Y17262714D01*
X138643666Y17262714D01*
X139310333Y16834142D01*
X139310333Y16619857D01*
X138643666Y16191285D01*
X137310333Y16191285D01*
X141310333Y15119857D02*
X141310333Y17262714D01*
X140310333Y17262714D02*
X142310333Y17262714D01*
X143310333Y15119857D02*
X143310333Y17262714D01*
X145310333Y15119857D02*
X145310333Y17262714D01*
X143310333Y16191285D02*
X145310333Y16191285D01*
X154910333Y16834142D02*
X155577000Y17262714D01*
X156243666Y17262714D01*
X156910333Y16834142D01*
X156910333Y15548428D01*
X156243666Y15119857D01*
X155577000Y15119857D01*
X154910333Y15548428D01*
X154910333Y16834142D01*
X156910333Y16834142D02*
X154910333Y15548428D01*
X162577000Y15119857D02*
X162243666Y15119857D01*
X161577000Y15548428D01*
X161577000Y16834142D01*
X162243666Y17262714D01*
X162577000Y17262714D01*
X163910333Y15119857D02*
X163910333Y17262714D01*
X165243666Y17262714D01*
X165910333Y16834142D01*
X165910333Y16619857D01*
X165243666Y16191285D01*
X163910333Y16191285D01*
X164243666Y16191285D02*
X165910333Y15119857D01*
X166910333Y15548428D02*
X167577000Y15119857D01*
X168243666Y15119857D01*
X168910333Y15548428D01*
X168910333Y16834142D01*
X168243666Y17262714D01*
X167577000Y17262714D01*
X166910333Y16834142D01*
X166910333Y15548428D01*
X169910333Y17262714D02*
X169910333Y15548428D01*
X170577000Y15119857D01*
X171243666Y15119857D01*
X171910333Y15548428D01*
X171910333Y17262714D01*
X172910333Y15119857D02*
X172910333Y17262714D01*
X174910333Y15119857D01*
X174910333Y17262714D01*
X175910333Y15119857D02*
X177243666Y15119857D01*
X177910333Y15548428D01*
X177910333Y16834142D01*
X177243666Y17262714D01*
X175910333Y17262714D01*
X176243666Y17262714D02*
X176243666Y15119857D01*
X179243666Y17262714D02*
X179577000Y17262714D01*
X180243666Y16834142D01*
X180243666Y15548428D01*
X179577000Y15119857D01*
X179243666Y15119857D01*
X82610333Y20934142D02*
X83277000Y21362714D01*
X83943666Y21362714D01*
X84610333Y20934142D01*
X84610333Y19648428D01*
X83943666Y19219857D01*
X83277000Y19219857D01*
X82610333Y19648428D01*
X82610333Y20934142D01*
X84610333Y20934142D02*
X82610333Y19648428D01*
X86610333Y19219857D02*
X86610333Y19434142D01*
X89610333Y19219857D02*
X89610333Y20291285D01*
X90610333Y20934142D01*
X90610333Y21362714D01*
X88610333Y21362714D01*
X88610333Y20934142D01*
X91610333Y20934142D02*
X92277000Y21362714D01*
X92943666Y21362714D01*
X93610333Y20934142D01*
X93610333Y19648428D01*
X92943666Y19219857D01*
X92277000Y19219857D01*
X91610333Y19648428D01*
X91610333Y20934142D01*
X93610333Y20934142D02*
X91610333Y19648428D01*
X94610333Y20934142D02*
X95277000Y21362714D01*
X95943666Y21362714D01*
X96610333Y20934142D01*
X96610333Y19648428D01*
X95943666Y19219857D01*
X95277000Y19219857D01*
X94610333Y19648428D01*
X94610333Y20934142D01*
X96610333Y20934142D02*
X94610333Y19648428D01*
X97610333Y20934142D02*
X98277000Y21362714D01*
X98943666Y21362714D01*
X99610333Y20934142D01*
X99610333Y19648428D01*
X98943666Y19219857D01*
X98277000Y19219857D01*
X97610333Y19648428D01*
X97610333Y20934142D01*
X99610333Y20934142D02*
X97610333Y19648428D01*
X100610333Y20934142D02*
X101277000Y21362714D01*
X101943666Y21362714D01*
X102610333Y20934142D01*
X102610333Y19648428D01*
X101943666Y19219857D01*
X101277000Y19219857D01*
X100610333Y19648428D01*
X100610333Y20934142D01*
X102610333Y20934142D02*
X100610333Y19648428D01*
X103610333Y20934142D02*
X104277000Y21362714D01*
X104943666Y21362714D01*
X105610333Y20934142D01*
X105610333Y19648428D01*
X104943666Y19219857D01*
X104277000Y19219857D01*
X103610333Y19648428D01*
X103610333Y20934142D01*
X105610333Y20934142D02*
X103610333Y19648428D01*
X116710333Y20934142D02*
X117377000Y21362714D01*
X118043666Y21362714D01*
X118710333Y20934142D01*
X118710333Y20719857D01*
X116710333Y19219857D01*
X118710333Y19219857D01*
X118710333Y19434142D01*
X119710333Y20934142D02*
X120377000Y21362714D01*
X121043666Y21362714D01*
X121710333Y20934142D01*
X121710333Y19648428D01*
X121043666Y19219857D01*
X120377000Y19219857D01*
X119710333Y19648428D01*
X119710333Y20934142D01*
X121710333Y20934142D02*
X119710333Y19648428D01*
X135810333Y19219857D02*
X135810333Y21362714D01*
X137810333Y19219857D01*
X137810333Y21362714D01*
X138810333Y19219857D02*
X138810333Y21362714D01*
X140143666Y21362714D01*
X140810333Y20934142D01*
X140810333Y20719857D01*
X140143666Y20291285D01*
X138810333Y20291285D01*
X142810333Y19219857D02*
X142810333Y21362714D01*
X141810333Y21362714D02*
X143810333Y21362714D01*
X144810333Y19219857D02*
X144810333Y21362714D01*
X146810333Y19219857D02*
X146810333Y21362714D01*
X144810333Y20291285D02*
X146810333Y20291285D01*
X154910333Y20934142D02*
X155577000Y21362714D01*
X156243666Y21362714D01*
X156910333Y20934142D01*
X156910333Y19648428D01*
X156243666Y19219857D01*
X155577000Y19219857D01*
X154910333Y19648428D01*
X154910333Y20934142D01*
X156910333Y20934142D02*
X154910333Y19648428D01*
X162577000Y19219857D02*
X162243666Y19219857D01*
X161577000Y19648428D01*
X161577000Y20934142D01*
X162243666Y21362714D01*
X162577000Y21362714D01*
X163910333Y19219857D02*
X163910333Y21362714D01*
X165243666Y21362714D01*
X165910333Y20934142D01*
X165910333Y20719857D01*
X165243666Y20291285D01*
X163910333Y20291285D01*
X164243666Y20291285D02*
X165910333Y19219857D01*
X166910333Y19648428D02*
X167577000Y19219857D01*
X168243666Y19219857D01*
X168910333Y19648428D01*
X168910333Y20934142D01*
X168243666Y21362714D01*
X167577000Y21362714D01*
X166910333Y20934142D01*
X166910333Y19648428D01*
X169910333Y21362714D02*
X169910333Y19648428D01*
X170577000Y19219857D01*
X171243666Y19219857D01*
X171910333Y19648428D01*
X171910333Y21362714D01*
X172910333Y19219857D02*
X172910333Y21362714D01*
X174910333Y19219857D01*
X174910333Y21362714D01*
X175910333Y19219857D02*
X177243666Y19219857D01*
X177910333Y19648428D01*
X177910333Y20934142D01*
X177243666Y21362714D01*
X175910333Y21362714D01*
X176243666Y21362714D02*
X176243666Y19219857D01*
X179243666Y21362714D02*
X179577000Y21362714D01*
X180243666Y20934142D01*
X180243666Y19648428D01*
X179577000Y19219857D01*
X179243666Y19219857D01*
X82610333Y25034142D02*
X83277000Y25462714D01*
X83943666Y25462714D01*
X84610333Y25034142D01*
X84610333Y23748428D01*
X83943666Y23319857D01*
X83277000Y23319857D01*
X82610333Y23748428D01*
X82610333Y25034142D01*
X84610333Y25034142D02*
X82610333Y23748428D01*
X86610333Y23319857D02*
X86610333Y23534142D01*
X90610333Y25462714D02*
X88610333Y25462714D01*
X88610333Y24605571D01*
X89943666Y24605571D01*
X90610333Y24177000D01*
X90610333Y23748428D01*
X89943666Y23319857D01*
X88610333Y23319857D01*
X91610333Y25034142D02*
X92277000Y25462714D01*
X92943666Y25462714D01*
X93610333Y25034142D01*
X93610333Y23748428D01*
X92943666Y23319857D01*
X92277000Y23319857D01*
X91610333Y23748428D01*
X91610333Y25034142D01*
X93610333Y25034142D02*
X91610333Y23748428D01*
X94610333Y25034142D02*
X95277000Y25462714D01*
X95943666Y25462714D01*
X96610333Y25034142D01*
X96610333Y23748428D01*
X95943666Y23319857D01*
X95277000Y23319857D01*
X94610333Y23748428D01*
X94610333Y25034142D01*
X96610333Y25034142D02*
X94610333Y23748428D01*
X97610333Y25034142D02*
X98277000Y25462714D01*
X98943666Y25462714D01*
X99610333Y25034142D01*
X99610333Y23748428D01*
X98943666Y23319857D01*
X98277000Y23319857D01*
X97610333Y23748428D01*
X97610333Y25034142D01*
X99610333Y25034142D02*
X97610333Y23748428D01*
X100610333Y25034142D02*
X101277000Y25462714D01*
X101943666Y25462714D01*
X102610333Y25034142D01*
X102610333Y23748428D01*
X101943666Y23319857D01*
X101277000Y23319857D01*
X100610333Y23748428D01*
X100610333Y25034142D01*
X102610333Y25034142D02*
X100610333Y23748428D01*
X103610333Y25034142D02*
X104277000Y25462714D01*
X104943666Y25462714D01*
X105610333Y25034142D01*
X105610333Y23748428D01*
X104943666Y23319857D01*
X104277000Y23319857D01*
X103610333Y23748428D01*
X103610333Y25034142D01*
X105610333Y25034142D02*
X103610333Y23748428D01*
X118210333Y25034142D02*
X118877000Y25462714D01*
X119543666Y25462714D01*
X120210333Y25034142D01*
X120210333Y24819857D01*
X118210333Y23319857D01*
X120210333Y23319857D01*
X120210333Y23534142D01*
X137310333Y23319857D02*
X137310333Y25462714D01*
X138643666Y25462714D01*
X139310333Y25034142D01*
X139310333Y24819857D01*
X138643666Y24391285D01*
X137310333Y24391285D01*
X141310333Y23319857D02*
X141310333Y25462714D01*
X140310333Y25462714D02*
X142310333Y25462714D01*
X143310333Y23319857D02*
X143310333Y25462714D01*
X145310333Y23319857D02*
X145310333Y25462714D01*
X143310333Y24391285D02*
X145310333Y24391285D01*
X158077000Y25462714D02*
X157077000Y25462714D01*
X156410333Y25034142D01*
X156410333Y24177000D01*
X156410333Y23748428D01*
X157077000Y23319857D01*
X157743666Y23319857D01*
X158410333Y23748428D01*
X158410333Y24177000D01*
X157743666Y24605571D01*
X157077000Y24605571D01*
X156410333Y24177000D01*
X160410333Y23319857D02*
X160410333Y23534142D01*
X162410333Y25034142D02*
X163077000Y25462714D01*
X163743666Y25462714D01*
X164410333Y25034142D01*
X164410333Y23748428D01*
X163743666Y23319857D01*
X163077000Y23319857D01*
X162410333Y23748428D01*
X162410333Y25034142D01*
X164410333Y25034142D02*
X162410333Y23748428D01*
X165410333Y25034142D02*
X166077000Y25462714D01*
X166743666Y25462714D01*
X167410333Y25034142D01*
X167410333Y23748428D01*
X166743666Y23319857D01*
X166077000Y23319857D01*
X165410333Y23748428D01*
X165410333Y25034142D01*
X167410333Y25034142D02*
X165410333Y23748428D01*
X168410333Y25034142D02*
X169077000Y25462714D01*
X169743666Y25462714D01*
X170410333Y25034142D01*
X170410333Y23748428D01*
X169743666Y23319857D01*
X169077000Y23319857D01*
X168410333Y23748428D01*
X168410333Y25034142D01*
X170410333Y25034142D02*
X168410333Y23748428D01*
X171410333Y25034142D02*
X172077000Y25462714D01*
X172743666Y25462714D01*
X173410333Y25034142D01*
X173410333Y23748428D01*
X172743666Y23319857D01*
X172077000Y23319857D01*
X171410333Y23748428D01*
X171410333Y25034142D01*
X173410333Y25034142D02*
X171410333Y23748428D01*
X174410333Y25034142D02*
X175077000Y25462714D01*
X175743666Y25462714D01*
X176410333Y25034142D01*
X176410333Y23748428D01*
X175743666Y23319857D01*
X175077000Y23319857D01*
X174410333Y23748428D01*
X174410333Y25034142D01*
X176410333Y25034142D02*
X174410333Y23748428D01*
X177410333Y25034142D02*
X178077000Y25462714D01*
X178743666Y25462714D01*
X179410333Y25034142D01*
X179410333Y23748428D01*
X178743666Y23319857D01*
X178077000Y23319857D01*
X177410333Y23748428D01*
X177410333Y25034142D01*
X179410333Y25034142D02*
X177410333Y23748428D01*
X82610333Y29134142D02*
X83277000Y29562714D01*
X83943666Y29562714D01*
X84610333Y29134142D01*
X84610333Y27848428D01*
X83943666Y27419857D01*
X83277000Y27419857D01*
X82610333Y27848428D01*
X82610333Y29134142D01*
X84610333Y29134142D02*
X82610333Y27848428D01*
X86610333Y27419857D02*
X86610333Y27634142D01*
X90610333Y29562714D02*
X88610333Y29562714D01*
X88610333Y28705571D01*
X89943666Y28705571D01*
X90610333Y28277000D01*
X90610333Y27848428D01*
X89943666Y27419857D01*
X88610333Y27419857D01*
X91610333Y29134142D02*
X92277000Y29562714D01*
X92943666Y29562714D01*
X93610333Y29134142D01*
X93610333Y27848428D01*
X92943666Y27419857D01*
X92277000Y27419857D01*
X91610333Y27848428D01*
X91610333Y29134142D01*
X93610333Y29134142D02*
X91610333Y27848428D01*
X94610333Y29134142D02*
X95277000Y29562714D01*
X95943666Y29562714D01*
X96610333Y29134142D01*
X96610333Y27848428D01*
X95943666Y27419857D01*
X95277000Y27419857D01*
X94610333Y27848428D01*
X94610333Y29134142D01*
X96610333Y29134142D02*
X94610333Y27848428D01*
X97610333Y29134142D02*
X98277000Y29562714D01*
X98943666Y29562714D01*
X99610333Y29134142D01*
X99610333Y27848428D01*
X98943666Y27419857D01*
X98277000Y27419857D01*
X97610333Y27848428D01*
X97610333Y29134142D01*
X99610333Y29134142D02*
X97610333Y27848428D01*
X100610333Y29134142D02*
X101277000Y29562714D01*
X101943666Y29562714D01*
X102610333Y29134142D01*
X102610333Y27848428D01*
X101943666Y27419857D01*
X101277000Y27419857D01*
X100610333Y27848428D01*
X100610333Y29134142D01*
X102610333Y29134142D02*
X100610333Y27848428D01*
X103610333Y29134142D02*
X104277000Y29562714D01*
X104943666Y29562714D01*
X105610333Y29134142D01*
X105610333Y27848428D01*
X104943666Y27419857D01*
X104277000Y27419857D01*
X103610333Y27848428D01*
X103610333Y29134142D01*
X105610333Y29134142D02*
X103610333Y27848428D01*
X118543666Y29134142D02*
X119210333Y29562714D01*
X119210333Y27419857D01*
X118210333Y27419857D02*
X120210333Y27419857D01*
X137310333Y27419857D02*
X137310333Y29562714D01*
X138643666Y29562714D01*
X139310333Y29134142D01*
X139310333Y28919857D01*
X138643666Y28491285D01*
X137310333Y28491285D01*
X141310333Y27419857D02*
X141310333Y29562714D01*
X140310333Y29562714D02*
X142310333Y29562714D01*
X143310333Y27419857D02*
X143310333Y29562714D01*
X145310333Y27419857D02*
X145310333Y29562714D01*
X143310333Y28491285D02*
X145310333Y28491285D01*
X157410333Y27419857D02*
X157410333Y28491285D01*
X158410333Y29134142D01*
X158410333Y29562714D01*
X156410333Y29562714D01*
X156410333Y29134142D01*
X160410333Y27419857D02*
X160410333Y27634142D01*
X162410333Y29134142D02*
X163077000Y29562714D01*
X163743666Y29562714D01*
X164410333Y29134142D01*
X164410333Y27848428D01*
X163743666Y27419857D01*
X163077000Y27419857D01*
X162410333Y27848428D01*
X162410333Y29134142D01*
X164410333Y29134142D02*
X162410333Y27848428D01*
X165410333Y29134142D02*
X166077000Y29562714D01*
X166743666Y29562714D01*
X167410333Y29134142D01*
X167410333Y27848428D01*
X166743666Y27419857D01*
X166077000Y27419857D01*
X165410333Y27848428D01*
X165410333Y29134142D01*
X167410333Y29134142D02*
X165410333Y27848428D01*
X168410333Y29134142D02*
X169077000Y29562714D01*
X169743666Y29562714D01*
X170410333Y29134142D01*
X170410333Y27848428D01*
X169743666Y27419857D01*
X169077000Y27419857D01*
X168410333Y27848428D01*
X168410333Y29134142D01*
X170410333Y29134142D02*
X168410333Y27848428D01*
X171410333Y29134142D02*
X172077000Y29562714D01*
X172743666Y29562714D01*
X173410333Y29134142D01*
X173410333Y27848428D01*
X172743666Y27419857D01*
X172077000Y27419857D01*
X171410333Y27848428D01*
X171410333Y29134142D01*
X173410333Y29134142D02*
X171410333Y27848428D01*
X174410333Y29134142D02*
X175077000Y29562714D01*
X175743666Y29562714D01*
X176410333Y29134142D01*
X176410333Y27848428D01*
X175743666Y27419857D01*
X175077000Y27419857D01*
X174410333Y27848428D01*
X174410333Y29134142D01*
X176410333Y29134142D02*
X174410333Y27848428D01*
X177410333Y29134142D02*
X178077000Y29562714D01*
X178743666Y29562714D01*
X179410333Y29134142D01*
X179410333Y27848428D01*
X178743666Y27419857D01*
X178077000Y27419857D01*
X177410333Y27848428D01*
X177410333Y29134142D01*
X179410333Y29134142D02*
X177410333Y27848428D01*
G04 ColorRGB 00FFFF for the following layer *
%LNBoard Outline*%
%LPD*%
G54D10*
G54D13*
X-40999999Y0D02*
G75*
D01*
G02X-40999999Y0I40999999J0*
G01*
G54D14*
X-41254000Y-41254000D02*
X-41254000Y-33003200D01*
X-41254000Y-41254000D02*
X-33003200Y-41254000D01*
X41254000Y-41254000D02*
X33003200Y-41254000D01*
X41254000Y-41254000D02*
X41254000Y-33003200D01*
X41254000Y41254000D02*
X41254000Y33003200D01*
X41254000Y41254000D02*
X33003200Y41254000D01*
X-41254000Y41254000D02*
X-33003200Y41254000D01*
X-41254000Y41254000D02*
X-41254000Y33003200D01*
X-46254000Y-41254000D02*
X-56254000Y-41254000D01*
X-51254000Y-46254000D02*
X-51254000Y-36254000D01*
X-55003999Y-41254000D02*
G75*
D01*
G02X-55003999Y-41254000I3749999J0*
G01*
X46254000Y-41254000D02*
X56254000Y-41254000D01*
X51254000Y-46254000D02*
X51254000Y-36254000D01*
X47504001Y-41254000D02*
G75*
D01*
G02X47504001Y-41254000I3749999J0*
G01*
X50004001Y-41254000D02*
G75*
D01*
G02X50004001Y-41254000I1249999J0*
G01*
X-46254000Y41254000D02*
X-56254000Y41254000D01*
X-51254000Y36254000D02*
X-51254000Y46254000D01*
X-55003999Y41254000D02*
G75*
D01*
G02X-55003999Y41254000I3749999J0*
G01*
X-53753999Y41254000D02*
G75*
D01*
G02X-53753999Y41254000I2499999J0*
G01*
X-52503999Y41254000D02*
G75*
D01*
G02X-52503999Y41254000I1249999J0*
G01*
G04 ColorRGB 66FFCC for the following layer *
%LNLegend Description*%
%LPD*%
G54D12*
X62627000Y1627000D02*
X185127000Y1627000D01*
X185127000Y42627000D01*
X62627000Y42627000D01*
X62627000Y1627000D01*
X81727000Y34427000D02*
X81727000Y1627000D01*
X106827000Y34427000D02*
X106827000Y1627000D01*
X131927000Y34427000D02*
X131927000Y1627000D01*
X151027000Y34427000D02*
X151027000Y1627000D01*
X185127000Y34427000D02*
X185127000Y1627000D01*
X62627000Y5727000D02*
X185127000Y5727000D01*
X62627000Y9827000D02*
X185127000Y9827000D01*
X62627000Y13927000D02*
X185127000Y13927000D01*
X62627000Y18027000D02*
X185127000Y18027000D01*
X62627000Y22127000D02*
X185127000Y22127000D01*
X62627000Y26227000D02*
X185127000Y26227000D01*
X63510333Y31948428D02*
X64177000Y31519857D01*
X64843666Y31519857D01*
X65510333Y31948428D01*
X63510333Y33234142D01*
X64177000Y33662714D01*
X64843666Y33662714D01*
X65510333Y33234142D01*
X66510333Y30877000D02*
X66843666Y30877000D01*
X68510333Y33019857D01*
X66510333Y33019857D02*
X67510333Y31734142D01*
X69510333Y31519857D02*
X69510333Y32805571D01*
X69510333Y33019857D01*
X69510333Y32805571D02*
X69843666Y33019857D01*
X70177000Y33019857D01*
X70510333Y32805571D01*
X70843666Y33019857D01*
X71177000Y33019857D01*
X71510333Y32805571D01*
X71510333Y31519857D01*
X70510333Y32805571D02*
X70510333Y31519857D01*
X72510333Y31948428D02*
X73177000Y31519857D01*
X73843666Y31519857D01*
X74510333Y31948428D01*
X74510333Y32377000D01*
X73843666Y32805571D01*
X73177000Y32805571D01*
X72510333Y32377000D01*
X72510333Y33662714D02*
X72510333Y31519857D01*
X75510333Y31948428D02*
X76177000Y31519857D01*
X76843666Y31519857D01*
X77510333Y31948428D01*
X77510333Y32591285D01*
X76843666Y33019857D01*
X76177000Y33019857D01*
X75510333Y32591285D01*
X75510333Y31948428D01*
X78843666Y33662714D02*
X78843666Y31948428D01*
X79510333Y31519857D01*
X62627000Y30327000D02*
X185127000Y30327000D01*
X88610333Y31948428D02*
X89277000Y31519857D01*
X89943666Y31519857D01*
X90610333Y31948428D01*
X88610333Y33234142D01*
X89277000Y33662714D01*
X89943666Y33662714D01*
X90610333Y33234142D01*
X92610333Y31519857D02*
X92610333Y32805571D01*
X92610333Y33234142D02*
X92610333Y33448428D01*
X94610333Y33019857D02*
X96610333Y33019857D01*
X94610333Y31519857D01*
X96610333Y31519857D01*
X99610333Y31948428D02*
X98943666Y31519857D01*
X98277000Y31519857D01*
X97610333Y31948428D01*
X97610333Y32591285D01*
X98277000Y33019857D01*
X98943666Y33019857D01*
X99610333Y32591285D01*
X99277000Y32377000D01*
X97610333Y32377000D01*
X107710333Y31948428D02*
X108377000Y31519857D01*
X109043666Y31519857D01*
X109710333Y31948428D01*
X109710333Y33234142D01*
X109043666Y33662714D01*
X108377000Y33662714D01*
X107710333Y33234142D01*
X107710333Y31948428D01*
X109043666Y31948428D02*
X109710333Y31519857D01*
X110710333Y33019857D02*
X110710333Y31948428D01*
X111377000Y31519857D01*
X112043666Y31519857D01*
X112710333Y31948428D01*
X112710333Y33019857D01*
X112710333Y31948428D02*
X112710333Y31519857D01*
X114043666Y33019857D02*
X115043666Y33019857D01*
X115377000Y32805571D01*
X115377000Y31734142D01*
X115043666Y31519857D01*
X114043666Y31519857D01*
X113710333Y31734142D01*
X113710333Y32162714D01*
X114043666Y32377000D01*
X115377000Y32377000D01*
X115377000Y31734142D02*
X115710333Y31519857D01*
X116710333Y31519857D02*
X116710333Y32805571D01*
X116710333Y33019857D01*
X116710333Y32805571D02*
X117043666Y33019857D01*
X117710333Y33019857D01*
X118043666Y32805571D01*
X118043666Y31519857D01*
X121377000Y31734142D02*
X121043666Y31519857D01*
X120710333Y31734142D01*
X120710333Y33662714D01*
X120043666Y33019857D02*
X121377000Y33019857D01*
X123710333Y31519857D02*
X123710333Y32805571D01*
X123710333Y33234142D02*
X123710333Y33448428D01*
X127377000Y31734142D02*
X127043666Y31519857D01*
X126710333Y31734142D01*
X126710333Y33662714D01*
X126043666Y33019857D02*
X127377000Y33019857D01*
X128710333Y30877000D02*
X129043666Y30877000D01*
X130710333Y33019857D01*
X128710333Y33019857D02*
X129710333Y31734142D01*
X132810333Y31519857D02*
X132810333Y33662714D01*
X134143666Y33662714D01*
X134810333Y33234142D01*
X134810333Y33019857D01*
X134143666Y32591285D01*
X132810333Y32591285D01*
X136143666Y33662714D02*
X136143666Y31948428D01*
X136810333Y31519857D01*
X139143666Y33019857D02*
X140143666Y33019857D01*
X140477000Y32805571D01*
X140477000Y31734142D01*
X140143666Y31519857D01*
X139143666Y31519857D01*
X138810333Y31734142D01*
X138810333Y32162714D01*
X139143666Y32377000D01*
X140477000Y32377000D01*
X140477000Y31734142D02*
X140810333Y31519857D01*
X143477000Y31734142D02*
X143143666Y31519857D01*
X142810333Y31734142D01*
X142810333Y33662714D01*
X142143666Y33019857D02*
X143477000Y33019857D01*
X146810333Y31948428D02*
X146143666Y31519857D01*
X145477000Y31519857D01*
X144810333Y31948428D01*
X144810333Y32591285D01*
X145477000Y33019857D01*
X146143666Y33019857D01*
X146810333Y32591285D01*
X146477000Y32377000D01*
X144810333Y32377000D01*
X149810333Y31948428D02*
X149143666Y31519857D01*
X148477000Y31519857D01*
X147810333Y31948428D01*
X147810333Y32377000D01*
X148477000Y32805571D01*
X149143666Y32805571D01*
X149810333Y32377000D01*
X149810333Y33662714D02*
X149810333Y31519857D01*
X151910333Y31948428D02*
X152577000Y31519857D01*
X153243666Y31519857D01*
X153910333Y31948428D01*
X151910333Y33234142D01*
X152577000Y33662714D01*
X153243666Y33662714D01*
X153910333Y33234142D01*
X155243666Y33662714D02*
X155243666Y31948428D01*
X155910333Y31519857D01*
X157910333Y31948428D02*
X158577000Y31519857D01*
X159243666Y31519857D01*
X159910333Y31948428D01*
X159910333Y32591285D01*
X159243666Y33019857D01*
X158577000Y33019857D01*
X157910333Y32591285D01*
X157910333Y31948428D01*
X162577000Y31734142D02*
X162243666Y31519857D01*
X161910333Y31734142D01*
X161910333Y33662714D01*
X161243666Y33019857D02*
X162577000Y33019857D01*
X166910333Y33662714D02*
X166910333Y31519857D01*
X168910333Y31519857D01*
X171910333Y31948428D02*
X171243666Y31519857D01*
X170577000Y31519857D01*
X169910333Y31948428D01*
X169910333Y32591285D01*
X170577000Y33019857D01*
X171243666Y33019857D01*
X171910333Y32591285D01*
X171577000Y32377000D01*
X169910333Y32377000D01*
X172910333Y31519857D02*
X172910333Y32805571D01*
X172910333Y33019857D01*
X172910333Y32805571D02*
X173243666Y33019857D01*
X173910333Y33019857D01*
X174243666Y32805571D01*
X174243666Y31519857D01*
X175910333Y31305571D02*
X176577000Y30877000D01*
X177243666Y30877000D01*
X177910333Y31305571D01*
X177910333Y31948428D01*
X177910333Y32591285D01*
X177243666Y33019857D01*
X176577000Y33019857D01*
X175910333Y32591285D01*
X175910333Y31948428D01*
X176577000Y31519857D01*
X177243666Y31519857D01*
X177910333Y31948428D01*
X180577000Y31734142D02*
X180243666Y31519857D01*
X179910333Y31734142D01*
X179910333Y33662714D01*
X179243666Y33019857D02*
X180577000Y33019857D01*
X181910333Y32591285D02*
X182577000Y33019857D01*
X183243666Y33019857D01*
X183910333Y32591285D01*
X183910333Y31519857D01*
X181910333Y33662714D02*
X181910333Y31519857D01*
X62627000Y34427000D02*
X185127000Y34427000D01*
X95710333Y35619857D02*
X95710333Y36905571D01*
X96377000Y37762714D01*
X97043666Y37762714D01*
X97710333Y36905571D01*
X97710333Y35619857D01*
X95710333Y36262714D02*
X97710333Y36262714D01*
X99043666Y37762714D02*
X99043666Y36048428D01*
X99710333Y35619857D01*
X102043666Y37762714D02*
X102043666Y36048428D01*
X102710333Y35619857D01*
X107710333Y37119857D02*
X107710333Y36048428D01*
X108377000Y35619857D01*
X109043666Y35619857D01*
X109710333Y36048428D01*
X109710333Y37119857D01*
X109710333Y36048428D02*
X109710333Y35619857D01*
X110710333Y35619857D02*
X110710333Y36905571D01*
X110710333Y37119857D01*
X110710333Y36905571D02*
X111043666Y37119857D01*
X111710333Y37119857D01*
X112043666Y36905571D01*
X112043666Y35619857D01*
X114710333Y35619857D02*
X114710333Y36905571D01*
X114710333Y37334142D02*
X114710333Y37548428D01*
X118377000Y35834142D02*
X118043666Y35619857D01*
X117710333Y35834142D01*
X117710333Y37762714D01*
X117043666Y37119857D02*
X118377000Y37119857D01*
X119710333Y36048428D02*
X120377000Y35619857D01*
X121043666Y35619857D01*
X121710333Y36048428D01*
X119710333Y36691285D01*
X120377000Y37119857D01*
X121043666Y37119857D01*
X121710333Y36691285D01*
X126043666Y37119857D02*
X127043666Y37119857D01*
X127377000Y36905571D01*
X127377000Y35834142D01*
X127043666Y35619857D01*
X126043666Y35619857D01*
X125710333Y35834142D01*
X125710333Y36262714D01*
X126043666Y36477000D01*
X127377000Y36477000D01*
X127377000Y35834142D02*
X127710333Y35619857D01*
X128710333Y36477000D02*
X129710333Y37119857D01*
X130043666Y37119857D01*
X130710333Y36691285D01*
X128710333Y35619857D02*
X128710333Y37119857D01*
X133710333Y36048428D02*
X133043666Y35619857D01*
X132377000Y35619857D01*
X131710333Y36048428D01*
X131710333Y36691285D01*
X132377000Y37119857D01*
X133043666Y37119857D01*
X133710333Y36691285D01*
X133377000Y36477000D01*
X131710333Y36477000D01*
X138710333Y35619857D02*
X138710333Y36905571D01*
X138710333Y37334142D02*
X138710333Y37548428D01*
X140710333Y35619857D02*
X140710333Y36905571D01*
X140710333Y37119857D01*
X140710333Y36905571D02*
X141043666Y37119857D01*
X141710333Y37119857D01*
X142043666Y36905571D01*
X142043666Y35619857D01*
X146710333Y35619857D02*
X146710333Y36905571D01*
X146710333Y37119857D01*
X146710333Y36905571D02*
X147043666Y37119857D01*
X147377000Y37119857D01*
X147710333Y36905571D01*
X148043666Y37119857D01*
X148377000Y37119857D01*
X148710333Y36905571D01*
X148710333Y35619857D01*
X147710333Y36905571D02*
X147710333Y35619857D01*
X149710333Y35619857D02*
X149710333Y36905571D01*
X149710333Y37119857D01*
X149710333Y36905571D02*
X150043666Y37119857D01*
X150377000Y37119857D01*
X150710333Y36905571D01*
X151043666Y37119857D01*
X151377000Y37119857D01*
X151710333Y36905571D01*
X151710333Y35619857D01*
X150710333Y36905571D02*
X150710333Y35619857D01*
X62627000Y38527000D02*
X185127000Y38527000D01*
X106210333Y39719857D02*
X107543666Y39719857D01*
X108210333Y40148428D01*
X108210333Y41434142D01*
X107543666Y41862714D01*
X106210333Y41862714D01*
X106543666Y41862714D02*
X106543666Y39719857D01*
X109210333Y40577000D02*
X110210333Y41219857D01*
X110543666Y41219857D01*
X111210333Y40791285D01*
X109210333Y39719857D02*
X109210333Y41219857D01*
X113210333Y39719857D02*
X113210333Y41005571D01*
X113210333Y41434142D02*
X113210333Y41648428D01*
X115543666Y41862714D02*
X115543666Y40148428D01*
X116210333Y39719857D01*
X118543666Y41862714D02*
X118543666Y40148428D01*
X119210333Y39719857D01*
X124210333Y41862714D02*
X124210333Y39719857D01*
X126210333Y39719857D01*
X129210333Y40148428D02*
X128543666Y39719857D01*
X127877000Y39719857D01*
X127210333Y40148428D01*
X127210333Y40791285D01*
X127877000Y41219857D01*
X128543666Y41219857D01*
X129210333Y40791285D01*
X128877000Y40577000D01*
X127210333Y40577000D01*
X130210333Y39505571D02*
X130877000Y39077000D01*
X131543666Y39077000D01*
X132210333Y39505571D01*
X132210333Y40148428D01*
X132210333Y40791285D01*
X131543666Y41219857D01*
X130877000Y41219857D01*
X130210333Y40791285D01*
X130210333Y40148428D01*
X130877000Y39719857D01*
X131543666Y39719857D01*
X132210333Y40148428D01*
X135210333Y40148428D02*
X134543666Y39719857D01*
X133877000Y39719857D01*
X133210333Y40148428D01*
X133210333Y40791285D01*
X133877000Y41219857D01*
X134543666Y41219857D01*
X135210333Y40791285D01*
X134877000Y40577000D01*
X133210333Y40577000D01*
X136210333Y39719857D02*
X136210333Y41005571D01*
X136210333Y41219857D01*
X136210333Y41005571D02*
X136543666Y41219857D01*
X137210333Y41219857D01*
X137543666Y41005571D01*
X137543666Y39719857D01*
X141210333Y40148428D02*
X140543666Y39719857D01*
X139877000Y39719857D01*
X139210333Y40148428D01*
X139210333Y40577000D01*
X139877000Y41005571D01*
X140543666Y41005571D01*
X141210333Y40577000D01*
X141210333Y41862714D02*
X141210333Y39719857D01*

M02*
