G04 Generated by Ultiboard 14.0 *
%FSLAX46Y46*%
%MOMM*%

%ADD10C,0.000001*%
%ADD11C,0.254000*%
%ADD12C,0.600000*%
%ADD13C,1.000000*%
%ADD14C,0.333333*%
%ADD15C,0.127000*%
%ADD16C,1.800000X0.900000*%
%ADD17P,1.484924X4X62*%
%ADD18P,1.484924X4X80*%
%ADD19R,1.050000X2.100000X0.700000*%
%ADD20P,1.484924X4X27*%
%ADD21P,1.138557X4X74X0.900000*%
%ADD22C,0.994918*%
%ADD23R,1.700000X1.700000X0.700000*%
%ADD24C,1.700000X0.700000*%
%ADD25C,1.055600X0.700000*%
%ADD26C,1.799998X0.900000*%
%ADD27R,2.000000X4.500000*%
%ADD28C,0.500000*%
%ADD29R,4.500000X2.000000*%
%ADD30P,1.484924X4X9*%
%ADD31C,2.000000X0.800000*%


G04 ColorRGB 00FF00 for the following layer *
%LNCopper Top*%
%LPD*%
G54D10*
G36*
X26324758Y23036404D02*
X26324758Y23036404D01*
X31419447Y23036404D01*
G75*
D01*
G02X31556958Y23029848I549J-1433904*
G01*
G74*
D01*
G02X32434929Y22615415I136959J1427347*
G01*
X32434929Y22615415D01*
X33623995Y21426349D01*
G75*
D01*
G03X34452445Y20067150I-33623993J-21426350*
G01*
G74*
D01*
G02X34453904Y20002500I1432444J64668*
G01*
X34453904Y20002500D01*
X34453904Y17819549D01*
G75*
D01*
G02X34032915Y16804619I-1433904J0*
G01*
X34032915Y16804619D01*
X33738418Y16510122D01*
G74*
D01*
G02X33708868Y16166114I2026999J844*
G01*
G75*
D01*
G02X34895212Y13744486I-766027J-1876679*
G01*
X34895212Y13744486D01*
X34895212Y7274340D01*
G75*
D01*
G02X34415293Y6117236I-1634872J0*
G01*
X34415293Y6117236D01*
X34168617Y5870560D01*
X34168616Y5870559D01*
X30480510Y2182453D01*
X31120000Y2182453D01*
G74*
D01*
G02X31230000Y2177097I10J1132453*
G01*
G75*
D01*
G02X31340000Y2182453I110010J-1127096*
G01*
X31340000Y2182453D01*
X32390000Y2182453D01*
G74*
D01*
G02X32500000Y2177097I10J1132453*
G01*
G74*
D01*
G02X32547252Y2180713I110016J1127095*
G01*
X32547252Y2180713D01*
X32547252Y2171481D01*
G74*
D01*
G02X33135000Y1902892I157250J1121481*
G01*
G74*
D01*
G02X33722748Y2171481I744998J852892*
G01*
X33722748Y2171481D01*
X33722748Y2180713D01*
G74*
D01*
G02X33770000Y2177097I62764J1130711*
G01*
G75*
D01*
G02X33880000Y2182453I110010J-1127096*
G01*
X33880000Y2182453D01*
X34930000Y2182453D01*
G75*
D01*
G02X36062453Y1049999I0J-1132453*
G01*
X36062453Y1049999D01*
X36062453Y-1050000D01*
G75*
D01*
G02X34930000Y-2182453I-1132453J0*
G01*
X34930000Y-2182453D01*
X33880000Y-2182453D01*
G75*
D01*
G02X33770000Y-2177097I10J1132453*
G01*
G74*
D01*
G02X33722748Y-2180713I110016J1127095*
G01*
X33722748Y-2180713D01*
X33722748Y-2171481D01*
G74*
D01*
G02X33135000Y-1902892I157250J1121481*
G01*
G74*
D01*
G02X32547252Y-2171481I744998J852892*
G01*
X32547252Y-2171481D01*
X32547252Y-2180713D01*
G74*
D01*
G02X32500000Y-2177097I62764J1130711*
G01*
G74*
D01*
G02X32390000Y-2182453I110010J1127096*
G01*
X32390000Y-2182453D01*
X31340000Y-2182453D01*
G75*
D01*
G02X31230000Y-2177097I10J1132453*
G01*
G74*
D01*
G02X31120000Y-2182453I110010J1127096*
G01*
X31120000Y-2182453D01*
X30070000Y-2182453D01*
G75*
D01*
G02X28937547Y-1049999I0J1132453*
G01*
X28937547Y-1049999D01*
X28937547Y639489D01*
X25555603Y-2742453D01*
G74*
D01*
G02X24970190Y-3119158I1157104J1154952*
G01*
G74*
D01*
G02X24546116Y-3215694I571691J1531658*
G01*
G74*
D01*
G02X24322977Y-3379708I1368618J1628192*
G01*
G75*
D01*
G02X25709818Y-6667500I-192975J-2017791*
G01*
G75*
D01*
G02X25709818Y-9207500I-1579817J-1270000*
G01*
G75*
D01*
G02X22550181Y-9207500I-1579818J-1269998*
G01*
G75*
D01*
G02X22550181Y-6667500I1579818J1270000*
G01*
G75*
D01*
G02X23010176Y-3707908I1579818J1270000*
G01*
G74*
D01*
G02X21816866Y-3222372I167322J2120408*
G01*
X21816866Y-3222372D01*
X13017500Y-3222372D01*
G75*
D01*
G02X13000190Y-3222280I34J1634872*
G01*
G74*
D01*
G02X11861469Y-2743529I17308J1634780*
G01*
X11861469Y-2743529D01*
X11121295Y-2003354D01*
G74*
D01*
G02X10160000Y-1579819I308704J2003354*
G01*
G75*
D01*
G02X10160000Y1579819I-1269999J1579819*
G01*
G75*
D01*
G02X13433355Y308701I1270000J-1579818*
G01*
X13433355Y308701D01*
X13694685Y47372D01*
X21710484Y47372D01*
G75*
D01*
G02X22686428Y3657035I1467016J1540128*
G01*
G75*
D01*
G02X23437396Y6985000I1443573J1422964*
G01*
G75*
D01*
G02X24129151Y10916998I692606J1904999*
G01*
X24129151Y10916998D01*
X24613596Y11401443D01*
X24613596Y11644595D01*
G75*
D01*
G02X22111896Y14816805I-1118594J1690406*
G01*
X22111896Y14816805D01*
X22111896Y15212326D01*
G75*
D01*
G02X22216818Y15753017I1433901J2275*
G01*
G75*
D01*
G02X20268666Y18310552I8181J2026982*
G01*
G75*
D01*
G02X18573750Y18882154I-266167J2009448*
G01*
G75*
D01*
G02X15716250Y18882154I-1428750J1437845*
G01*
G75*
D01*
G02X14021334Y18310552I-1428749J1437846*
G01*
G75*
D01*
G02X11606375Y15805565I-1956333J-530554*
G01*
G75*
D01*
G02X8345000Y14068027I-1961374J-248068*
G01*
G75*
D01*
G02X6040268Y13854842I-1300000J1489473*
G01*
G74*
D01*
G02X5295000Y13575047I745268J852658*
G01*
X5295000Y13575047D01*
X3595000Y13575047D01*
G75*
D01*
G02X2462547Y14707500I0J1132453*
G01*
X2462547Y14707500D01*
X2462547Y16407500D01*
G75*
D01*
G02X3595000Y17539953I1132453J0*
G01*
X3595000Y17539953D01*
X5295000Y17539953D01*
G74*
D01*
G02X6040268Y17260157I1J1132453*
G01*
G75*
D01*
G02X8345000Y17046972I1004732J-1702656*
G01*
G75*
D01*
G02X10058748Y17490720I1300000J-1489471*
G01*
G75*
D01*
G02X10136809Y18405149I2006252J289281*
G01*
G75*
D01*
G02X8345000Y18830527I-491809J1914851*
G01*
G75*
D01*
G02X6040268Y18617342I-1300000J1489473*
G01*
G74*
D01*
G02X5295000Y18337547I745268J852658*
G01*
X5295000Y18337547D01*
X3595000Y18337547D01*
G75*
D01*
G02X2462547Y19470000I0J1132453*
G01*
X2462547Y19470000D01*
X2462547Y21170000D01*
G75*
D01*
G02X3595000Y22302453I1132453J0*
G01*
X3595000Y22302453D01*
X5295000Y22302453D01*
G74*
D01*
G02X6040268Y22022657I1J1132453*
G01*
G75*
D01*
G02X8345000Y21809472I1004732J-1702656*
G01*
G75*
D01*
G02X11533826Y19736165I1300001J-1489471*
G01*
G75*
D01*
G02X12331166Y19789448I531173J-1956165*
G01*
G75*
D01*
G02X15716250Y21757845I1956333J530553*
G01*
G75*
D01*
G02X18573750Y21757845I1428750J-1437844*
G01*
G75*
D01*
G02X21958833Y19789447I1428752J-1437842*
G01*
G75*
D01*
G02X22484703Y19790293I266168J-2009447*
G01*
X22484703Y19790293D01*
X25310833Y22616422D01*
G74*
D01*
G02X25885488Y22967462I1013923J1013922*
G01*
G75*
D01*
G02X26324758Y23036404I439271J-1364961*
G01*
D02*
G37*
%LPC*%
G36*
X-18810378Y9517507D02*
G75*
D01*
G03X-16648065Y9036993I712879J-1897506*
G01*
G75*
D01*
G03X-18810378Y9517507I-814434J1440507*
G01*
D02*
G37*
G36*
X-9563522Y5870560D02*
G75*
D01*
G03X-9563522Y5870560I-1866478J-790560*
G01*
D02*
G37*
G36*
X-897356Y7072452D02*
G75*
D01*
G03X-372643Y6897547I-372645J-1992451*
G01*
G75*
D01*
G03X1579819Y10160000I372643J1992452*
G01*
G75*
D01*
G03X-1579819Y10160000I-1579819J1269999*
G01*
G75*
D01*
G03X-897356Y7072452I1579818J-1270000*
G01*
D02*
G37*
G36*
X6565000Y8967453D02*
X6565000Y8967453D01*
X4865000Y8967453D01*
G75*
D01*
G03X3732547Y7835000I0J-1132453*
G01*
X3732547Y7835000D01*
X3732547Y6135000D01*
G75*
D01*
G03X4865000Y5002547I1132453J0*
G01*
X4865000Y5002547D01*
X6565000Y5002547D01*
G74*
D01*
G03X7310268Y5282342I0J1132453*
G01*
G75*
D01*
G03X9615000Y5495527I1004732J1702658*
G01*
G74*
D01*
G03X10213938Y5136475I1300001J1489471*
G01*
X10213938Y5136475D01*
X10213938Y6283938D01*
X10163524Y6283938D01*
G75*
D01*
G03X10163524Y7686062I-1848523J701062*
G01*
X10163524Y7686062D01*
X10213938Y7686062D01*
X10213938Y8833524D01*
G74*
D01*
G03X9615000Y8474472I701063J1848523*
G01*
G75*
D01*
G03X7310268Y8687657I-1300000J-1489471*
G01*
G74*
D01*
G03X6565000Y8967453I745269J852656*
G01*
D02*
G37*
G36*
X6565000Y13094953D02*
X6565000Y13094953D01*
X4865000Y13094953D01*
G75*
D01*
G03X3732547Y11962500I0J-1132453*
G01*
X3732547Y11962500D01*
X3732547Y10262500D01*
G75*
D01*
G03X4865000Y9130047I1132453J0*
G01*
X4865000Y9130047D01*
X6565000Y9130047D01*
G74*
D01*
G03X7310268Y9409842I0J1132453*
G01*
G75*
D01*
G03X9615000Y9623027I1004732J1702658*
G01*
G75*
D01*
G03X12030937Y9480565I1299999J1489473*
G01*
G75*
D01*
G03X11955404Y8666097I1939063J-590563*
G01*
G74*
D01*
G03X11616062Y8833524I1040405J1681096*
G01*
X11616062Y8833524D01*
X11616062Y7686062D01*
X12339275Y7686062D01*
G74*
D01*
G03X13277393Y6985000I1630724J1203938*
G01*
G74*
D01*
G03X12339275Y6283938I692606J1905000*
G01*
X12339275Y6283938D01*
X11616062Y6283938D01*
X11616062Y5136475D01*
G74*
D01*
G03X11955404Y5303902I701064J1848523*
G01*
G75*
D01*
G03X14662606Y6985000I2014596J-223902*
G01*
G75*
D01*
G03X12811209Y10553109I-692611J1904997*
G01*
G75*
D01*
G03X12876375Y11360565I-1896208J559392*
G01*
G75*
D01*
G03X11328748Y13045720I458625J1974435*
G01*
G75*
D01*
G03X9615000Y12601972I-413748J-1933219*
G01*
G75*
D01*
G03X7310268Y12815157I-1300000J-1489471*
G01*
G74*
D01*
G03X6565000Y13094953I745269J852656*
G01*
D02*
G37*
G36*
X-11120181Y26670000D02*
G75*
D01*
G03X-14279818Y26670000I-1579819J1269999*
G01*
G75*
D01*
G03X-14279818Y24130000I1579817J-1270000*
G01*
G75*
D01*
G03X-11120181Y24130000I1579818J-1269998*
G01*
G75*
D01*
G03X-11120181Y26670000I-1579818J1270000*
G01*
D02*
G37*
G36*
X11760229Y29131697D02*
X11760229Y29131697D01*
X12000300Y29870559D01*
X12000300Y29870560D01*
X12084697Y30130306D01*
G75*
D01*
G03X12049036Y30925232I-1077027J349947*
G01*
G74*
D01*
G03X12444098Y31322970I580932J972095*
G01*
G75*
D01*
G03X15716250Y29042153I1843401J-842971*
G01*
G75*
D01*
G03X18573750Y29042153I1428750J1437846*
G01*
G75*
D01*
G03X18573750Y31917846I1428750J1437847*
G01*
G75*
D01*
G03X15716250Y31917846I-1428750J-1437845*
G01*
G75*
D01*
G03X12511290Y31456631I-1428751J-1437844*
G01*
G74*
D01*
G03X12545131Y31547381I1043187J440693*
G01*
X12545131Y31547381D01*
X12869599Y32545990D01*
G75*
D01*
G03X12142518Y33972964I-1077027J349947*
G01*
X12142518Y33972964D01*
X10145299Y34621899D01*
G75*
D01*
G03X8718326Y33894818I-349947J-1077026*
G01*
X8718326Y33894818D01*
X8393858Y32896209D01*
G75*
D01*
G03X8429519Y32101283I1077027J-349947*
G01*
G74*
D01*
G03X7933424Y31479134I580932J972094*
G01*
X7933424Y31479134D01*
X7608956Y30480525D01*
G74*
D01*
G03X7580057Y30374254I1077027J349948*
G01*
G74*
D01*
G03X7540973Y30271292I1037946J452900*
G01*
X7540973Y30271292D01*
X7410767Y29870560D01*
X7410767Y29870559D01*
X7216505Y29272683D01*
G75*
D01*
G03X7943586Y27845709I1077027J-349947*
G01*
X7943586Y27845709D01*
X9940805Y27196774D01*
G75*
D01*
G03X11367778Y27923855I349947J1077026*
G01*
X11367778Y27923855D01*
X11692246Y28922464D01*
G74*
D01*
G03X11721145Y29028735I1077027J349948*
G01*
G74*
D01*
G03X11760229Y29131697I1037946J452900*
G01*
D02*
G37*
G36*
X-21280180Y26670000D02*
G75*
D01*
G03X-24439819Y26670000I-1579820J1270000*
G01*
G75*
D01*
G03X-24439819Y24130000I1579818J-1270000*
G01*
G75*
D01*
G03X-21280180Y24130000I1579819J-1269998*
G01*
G75*
D01*
G03X-21280180Y26670000I-1579819J1270000*
G01*
D02*
G37*
G36*
X22448090Y-32023531D02*
X22448090Y-32023531D01*
X29870559Y-25101967D01*
X29870560Y-25101967D01*
X30268848Y-24730557D01*
G75*
D01*
G03X30305712Y-23674927I-509383J546247*
G01*
X30305712Y-23674927D01*
X29870560Y-23208284D01*
X29870559Y-23208283D01*
X27513926Y-20681103D01*
G75*
D01*
G03X26458296Y-20644240I-546246J-509383*
G01*
X26458296Y-20644240D01*
X18637538Y-27937214D01*
G75*
D01*
G03X18600675Y-28992844I509383J-546246*
G01*
X18600675Y-28992844D01*
X21392460Y-31986668D01*
G75*
D01*
G03X22448090Y-32023531I546246J509383*
G01*
D02*
G37*
G36*
X29870560Y-20089834D02*
G75*
D01*
G03X29870560Y-20089834I440329J2589833*
G01*
D02*
G37*
G36*
X-27925268Y-17936792D02*
G75*
D01*
G03X-28692308Y-18148522I-101402J-1127903*
G01*
X-28692308Y-18148522D01*
X-29541776Y-18765697D01*
G75*
D01*
G03X-29792311Y-20347509I665639J-916174*
G01*
X-29792311Y-20347509D01*
X-28557962Y-22046446D01*
G75*
D01*
G03X-26976149Y-22296981I916174J665639*
G01*
X-26976149Y-22296981D01*
X-26126681Y-21679806D01*
G74*
D01*
G03X-25688285Y-21015737I665639J916174*
G01*
G75*
D01*
G03X-24921245Y-20804007I101402J1127903*
G01*
X-24921245Y-20804007D01*
X-24071777Y-20186832D01*
G74*
D01*
G03X-23985933Y-20117844I665636J916176*
G01*
G74*
D01*
G03X-23893793Y-20057520I573496J976499*
G01*
X-23893793Y-20057520D01*
X-23044325Y-19440345D01*
G75*
D01*
G03X-22592676Y-18339461I-665639J916174*
G01*
G75*
D01*
G03X-19526249Y-18582844I1637677J1194459*
G01*
G75*
D01*
G03X-16668750Y-18582844I1428749J1437844*
G01*
G75*
D01*
G03X-16668749Y-15707154I1428749J1437845*
G01*
G75*
D01*
G03X-19526250Y-15707154I-1428751J-1437845*
G01*
G75*
D01*
G03X-22901635Y-17710097I-1428749J-1437846*
G01*
X-22901635Y-17710097D01*
X-24028139Y-16159596D01*
G75*
D01*
G03X-25609952Y-15909061I-916174J-665639*
G01*
X-25609952Y-15909061D01*
X-26459420Y-16526236D01*
G74*
D01*
G03X-26545264Y-16595224I665636J916176*
G01*
G74*
D01*
G03X-26637404Y-16655548I573496J976499*
G01*
X-26637404Y-16655548D01*
X-27486872Y-17272723D01*
G74*
D01*
G03X-27925268Y-17936792I665639J916174*
G01*
D02*
G37*
G36*
X-16668750Y-25867153D02*
G75*
D01*
G03X-19526250Y-25867153I-1428750J-1437846*
G01*
G75*
D01*
G03X-19526250Y-28742846I-1428750J-1437847*
G01*
G75*
D01*
G03X-16668750Y-28742846I1428750J1437845*
G01*
G75*
D01*
G03X-16668750Y-25867153I1428749J1437846*
G01*
D02*
G37*
G36*
X-29575865Y9159687D02*
G75*
D01*
G03X-27309269Y9411531I1318366J-1539686*
G01*
G75*
D01*
G03X-29575865Y9159687I-1265730J1065969*
G01*
D02*
G37*
G36*
X-30361338Y5700000D02*
G74*
D01*
G03X-31745000Y7083662I1383662J0*
G01*
X-31745000Y7083662D01*
X-36245000Y7083662D01*
G75*
D01*
G03X-37628662Y5700000I0J-1383662*
G01*
X-37628662Y5700000D01*
X-37628662Y3700000D01*
G75*
D01*
G03X-37626445Y3621713I1383662J9*
G01*
G74*
D01*
G03X-38828662Y2250000I181444J1371713*
G01*
X-38828662Y2250000D01*
X-38828662Y845270D01*
X-37290270Y845270D01*
X-37290270Y2793395D01*
G75*
D01*
G03X-36245000Y2316338I1045269J906605*
G01*
X-36245000Y2316338D01*
X-35599730Y2316338D01*
X-35599730Y845270D01*
X-34061338Y845270D01*
X-34061338Y2249999D01*
G75*
D01*
G03X-34062929Y2316338I-1383662J4*
G01*
X-34062929Y2316338D01*
X-32227070Y2316338D01*
G74*
D01*
G03X-32228662Y2250000I1382069J66355*
G01*
X-32228662Y2250000D01*
X-32228662Y-2249999D01*
G75*
D01*
G03X-30845000Y-3633662I1383662J-1*
G01*
X-30845000Y-3633662D01*
X-28845000Y-3633662D01*
G75*
D01*
G03X-27461338Y-2250000I0J1383662*
G01*
X-27461338Y-2250000D01*
X-27461338Y2249999D01*
G75*
D01*
G03X-28845000Y3633662I-1383662J1*
G01*
X-28845000Y3633662D01*
X-30362929Y3633662D01*
G75*
D01*
G03X-30361338Y3700000I-1382071J66335*
G01*
X-30361338Y3700000D01*
X-30361338Y5700000D01*
D02*
G37*
G36*
X10565000Y6985000D02*
G75*
D01*
G03X10565000Y6985000I350000J0*
G01*
D02*
G37*
G36*
X-8704686Y34468272D02*
G75*
D01*
G03X-8704686Y34468272I2627000J0*
G01*
D02*
G37*
G36*
X32710180Y-6667500D02*
G75*
D01*
G03X32710180Y-9207500I1579819J-1270000*
G01*
G75*
D01*
G03X35869819Y-9207500I1579820J-1270000*
G01*
G75*
D01*
G03X35869819Y-6667500I-1579818J1270000*
G01*
G75*
D01*
G03X32710180Y-6667500I-1579819J1269998*
G01*
D02*
G37*
G36*
X-25688286Y21015737D02*
G74*
D01*
G03X-26126682Y21679806I1104035J252105*
G01*
X-26126682Y21679806D01*
X-26976150Y22296981D01*
G75*
D01*
G03X-28557963Y22046446I-665639J-916174*
G01*
X-28557963Y22046446D01*
X-29792312Y20347509D01*
G75*
D01*
G03X-29541777Y18765697I916173J-665639*
G01*
X-29541777Y18765697D01*
X-28692309Y18148522D01*
G75*
D01*
G03X-27925269Y17936792I665639J916174*
G01*
G74*
D01*
G03X-27486873Y17272723I1104035J252105*
G01*
X-27486873Y17272723D01*
X-26637405Y16655548D01*
G74*
D01*
G03X-26545265Y16595224I665637J916176*
G01*
G74*
D01*
G03X-26459421Y16526236I751480J847188*
G01*
X-26459421Y16526236D01*
X-25609953Y15909061D01*
G75*
D01*
G03X-24028140Y16159596I665639J916174*
G01*
X-24028140Y16159596D01*
X-22793791Y17858533D01*
G75*
D01*
G03X-23044326Y19440345I-916173J665639*
G01*
X-23044326Y19440345D01*
X-23893794Y20057520D01*
G74*
D01*
G03X-23985934Y20117844I665637J916176*
G01*
G74*
D01*
G03X-24071778Y20186832I751480J847188*
G01*
X-24071778Y20186832D01*
X-24921246Y20804007D01*
G75*
D01*
G03X-25688286Y21015737I-665639J-916174*
G01*
D02*
G37*
G36*
X11753709Y-29058308D02*
G74*
D01*
G03X11726669Y-28951549I1110009J224340*
G01*
X11726669Y-28951549D01*
X11419679Y-27947429D01*
G75*
D01*
G03X10005611Y-27195556I-1082970J-331097*
G01*
X10005611Y-27195556D01*
X7997371Y-27809537D01*
G75*
D01*
G03X7245498Y-29223604I331096J-1082969*
G01*
X7245498Y-29223604D01*
X7552488Y-30227724D01*
G74*
D01*
G03X7589770Y-30331352I1082970J331097*
G01*
G74*
D01*
G03X7616810Y-30438111I1110009J224340*
G01*
X7616810Y-30438111D01*
X7923800Y-31442231D01*
G74*
D01*
G03X8408963Y-32072942I1082970J331098*
G01*
G75*
D01*
G03X8359434Y-32867125I1033440J-463086*
G01*
X8359434Y-32867125D01*
X8666424Y-33871245D01*
G75*
D01*
G03X10080492Y-34623118I1082970J331097*
G01*
X10080492Y-34623118D01*
X12088732Y-34009137D01*
G75*
D01*
G03X12840605Y-32595070I-331096J1082969*
G01*
X12840605Y-32595070D01*
X12533615Y-31590950D01*
G74*
D01*
G03X12048452Y-30960239I1082970J331098*
G01*
G75*
D01*
G03X12097981Y-30166056I-1033440J463086*
G01*
X12097981Y-30166056D01*
X11790991Y-29161936D01*
G74*
D01*
G03X11753709Y-29058308I1082970J331097*
G01*
D02*
G37*
G36*
X-35647000Y-9525000D02*
G75*
D01*
G03X-35647000Y-9525000I2627000J0*
G01*
D02*
G37*
G36*
X-38828662Y-2249999D02*
G75*
D01*
G03X-37445000Y-3633662I1383662J-1*
G01*
X-37445000Y-3633662D01*
X-37290270Y-3633662D01*
X-37290270Y-845270D01*
X-38828662Y-845270D01*
X-38828662Y-2249999D01*
D02*
G37*
G36*
X-35445000Y-3633662D02*
G75*
D01*
G03X-34061338Y-2250000I0J1383662*
G01*
X-34061338Y-2250000D01*
X-34061338Y-845270D01*
X-35599730Y-845270D01*
X-35599730Y-3633662D01*
X-35445000Y-3633662D01*
D02*
G37*
G36*
X-36195000Y1501209D02*
X-36195000Y1501209D01*
X-36695000Y1501209D01*
G75*
D01*
G03X-36946209Y1250000I0J-251209*
G01*
X-36946209Y1250000D01*
X-36946209Y-1250000D01*
G75*
D01*
G03X-36695000Y-1501209I251209J0*
G01*
X-36695000Y-1501209D01*
X-36195000Y-1501209D01*
G75*
D01*
G03X-35943791Y-1250000I0J251209*
G01*
X-35943791Y-1250000D01*
X-35943791Y1250000D01*
G74*
D01*
G03X-36195000Y1501209I251209J0*
G01*
D02*
G37*
G36*
X2540000Y-31440180D02*
G75*
D01*
G03X-158750Y-31582153I-1270000J-1579819*
G01*
G75*
D01*
G03X-158750Y-34457846I-1428750J-1437847*
G01*
G75*
D01*
G03X2540000Y-34599819I1428750J1437845*
G01*
G75*
D01*
G03X2540000Y-31440180I1269998J1579819*
G01*
D02*
G37*
G36*
X2540000Y-21280181D02*
G75*
D01*
G03X-158750Y-21422154I-1270000J-1579818*
G01*
G75*
D01*
G03X-158750Y-24297845I-1428750J-1437846*
G01*
G75*
D01*
G03X2540000Y-24439818I1428750J1437844*
G01*
G75*
D01*
G03X2540000Y-21280181I1269998J1579818*
G01*
D02*
G37*
G36*
X-1579819Y-10160000D02*
G75*
D01*
G03X1579819Y-10160000I1579819J-1269999*
G01*
G75*
D01*
G03X-1579819Y-10160000I-1579819J1269999*
G01*
D02*
G37*
G36*
X-10160000Y1579819D02*
G75*
D01*
G03X-10160000Y-1579819I-1269999J-1579819*
G01*
G75*
D01*
G03X-10160000Y1579819I1269999J1579819*
G01*
D02*
G37*
G36*
X0Y1579819D02*
G75*
D01*
G03X0Y-1579819I-1269999J-1579819*
G01*
G75*
D01*
G03X0Y1579819I1269999J1579819*
G01*
D02*
G37*
%LPD*%
G54D11*
X-18810378Y9517507D02*
G75*
D01*
G03X-16648065Y9036993I712879J-1897506*
G01*
G75*
D01*
G03X-18810378Y9517507I-814434J1440507*
G01*
X-9563522Y5870560D02*
G75*
D01*
G03X-9563522Y5870560I-1866478J-790560*
G01*
X-897356Y7072452D02*
G75*
D01*
G03X-372643Y6897547I-372645J-1992451*
G01*
G75*
D01*
G03X1579819Y10160000I372643J1992452*
G01*
G75*
D01*
G03X-1579819Y10160000I-1579819J1269999*
G01*
G75*
D01*
G03X-897356Y7072452I1579818J-1270000*
G01*
X6565000Y8967453D02*
X4865000Y8967453D01*
G75*
D01*
G03X3732547Y7835000I0J-1132453*
G01*
X3732547Y6135000D01*
G75*
D01*
G03X4865000Y5002547I1132453J0*
G01*
X6565000Y5002547D01*
G74*
D01*
G03X7310268Y5282342I0J1132453*
G01*
G75*
D01*
G03X9615000Y5495527I1004732J1702658*
G01*
G74*
D01*
G03X10213938Y5136475I1300001J1489471*
G01*
X10213938Y6283938D01*
X10163524Y6283938D01*
G75*
D01*
G03X10163524Y7686062I-1848523J701062*
G01*
X10213938Y7686062D01*
X10213938Y8833524D01*
G74*
D01*
G03X9615000Y8474472I701063J1848523*
G01*
G75*
D01*
G03X7310268Y8687657I-1300000J-1489471*
G01*
G74*
D01*
G03X6565000Y8967453I745269J852656*
G01*
X6565000Y13094953D02*
X4865000Y13094953D01*
G75*
D01*
G03X3732547Y11962500I0J-1132453*
G01*
X3732547Y10262500D01*
G75*
D01*
G03X4865000Y9130047I1132453J0*
G01*
X6565000Y9130047D01*
G74*
D01*
G03X7310268Y9409842I0J1132453*
G01*
G75*
D01*
G03X9615000Y9623027I1004732J1702658*
G01*
G75*
D01*
G03X12030937Y9480565I1299999J1489473*
G01*
G75*
D01*
G03X11955404Y8666097I1939063J-590563*
G01*
G74*
D01*
G03X11616062Y8833524I1040405J1681096*
G01*
X11616062Y7686062D01*
X12339275Y7686062D01*
G74*
D01*
G03X13277393Y6985000I1630724J1203938*
G01*
G74*
D01*
G03X12339275Y6283938I692606J1905000*
G01*
X11616062Y6283938D01*
X11616062Y5136475D01*
G74*
D01*
G03X11955404Y5303902I701064J1848523*
G01*
G75*
D01*
G03X14662606Y6985000I2014596J-223902*
G01*
G75*
D01*
G03X12811209Y10553109I-692611J1904997*
G01*
G75*
D01*
G03X12876375Y11360565I-1896208J559392*
G01*
G75*
D01*
G03X11328748Y13045720I458625J1974435*
G01*
G75*
D01*
G03X9615000Y12601972I-413748J-1933219*
G01*
G75*
D01*
G03X7310268Y12815157I-1300000J-1489471*
G01*
G74*
D01*
G03X6565000Y13094953I745269J852656*
G01*
X-11120181Y26670000D02*
G75*
D01*
G03X-14279818Y26670000I-1579819J1269999*
G01*
G75*
D01*
G03X-14279818Y24130000I1579817J-1270000*
G01*
G75*
D01*
G03X-11120181Y24130000I1579818J-1269998*
G01*
G75*
D01*
G03X-11120181Y26670000I-1579818J1270000*
G01*
X11760229Y29131697D02*
X12000300Y29870559D01*
X12000300Y29870560D01*
X12084697Y30130306D01*
G75*
D01*
G03X12049036Y30925232I-1077027J349947*
G01*
G74*
D01*
G03X12444098Y31322970I580932J972095*
G01*
G75*
D01*
G03X15716250Y29042153I1843401J-842971*
G01*
G75*
D01*
G03X18573750Y29042153I1428750J1437846*
G01*
G75*
D01*
G03X18573750Y31917846I1428750J1437847*
G01*
G75*
D01*
G03X15716250Y31917846I-1428750J-1437845*
G01*
G75*
D01*
G03X12511290Y31456631I-1428751J-1437844*
G01*
G74*
D01*
G03X12545131Y31547381I1043187J440693*
G01*
X12869599Y32545990D01*
G75*
D01*
G03X12142518Y33972964I-1077027J349947*
G01*
X10145299Y34621899D01*
G75*
D01*
G03X8718326Y33894818I-349947J-1077026*
G01*
X8393858Y32896209D01*
G75*
D01*
G03X8429519Y32101283I1077027J-349947*
G01*
G74*
D01*
G03X7933424Y31479134I580932J972094*
G01*
X7608956Y30480525D01*
G74*
D01*
G03X7580057Y30374254I1077027J349948*
G01*
G74*
D01*
G03X7540973Y30271292I1037946J452900*
G01*
X7410767Y29870560D01*
X7410767Y29870559D01*
X7216505Y29272683D01*
G75*
D01*
G03X7943586Y27845709I1077027J-349947*
G01*
X9940805Y27196774D01*
G75*
D01*
G03X11367778Y27923855I349947J1077026*
G01*
X11692246Y28922464D01*
G74*
D01*
G03X11721145Y29028735I1077027J349948*
G01*
G74*
D01*
G03X11760229Y29131697I1037946J452900*
G01*
X-21280180Y26670000D02*
G75*
D01*
G03X-24439819Y26670000I-1579820J1270000*
G01*
G75*
D01*
G03X-24439819Y24130000I1579818J-1270000*
G01*
G75*
D01*
G03X-21280180Y24130000I1579819J-1269998*
G01*
G75*
D01*
G03X-21280180Y26670000I-1579819J1270000*
G01*
X22448090Y-32023531D02*
X29870559Y-25101967D01*
X29870560Y-25101967D01*
X30268848Y-24730557D01*
G75*
D01*
G03X30305712Y-23674927I-509383J546247*
G01*
X29870560Y-23208284D01*
X29870559Y-23208283D01*
X27513926Y-20681103D01*
G75*
D01*
G03X26458296Y-20644240I-546246J-509383*
G01*
X18637538Y-27937214D01*
G75*
D01*
G03X18600675Y-28992844I509383J-546246*
G01*
X21392460Y-31986668D01*
G75*
D01*
G03X22448090Y-32023531I546246J509383*
G01*
X29870560Y-20089834D02*
G75*
D01*
G03X29870560Y-20089834I440329J2589833*
G01*
X-27925268Y-17936792D02*
G75*
D01*
G03X-28692308Y-18148522I-101402J-1127903*
G01*
X-29541776Y-18765697D01*
G75*
D01*
G03X-29792311Y-20347509I665639J-916174*
G01*
X-28557962Y-22046446D01*
G75*
D01*
G03X-26976149Y-22296981I916174J665639*
G01*
X-26126681Y-21679806D01*
G74*
D01*
G03X-25688285Y-21015737I665639J916174*
G01*
G75*
D01*
G03X-24921245Y-20804007I101402J1127903*
G01*
X-24071777Y-20186832D01*
G74*
D01*
G03X-23985933Y-20117844I665636J916176*
G01*
G74*
D01*
G03X-23893793Y-20057520I573496J976499*
G01*
X-23044325Y-19440345D01*
G75*
D01*
G03X-22592676Y-18339461I-665639J916174*
G01*
G75*
D01*
G03X-19526249Y-18582844I1637677J1194459*
G01*
G75*
D01*
G03X-16668750Y-18582844I1428749J1437844*
G01*
G75*
D01*
G03X-16668749Y-15707154I1428749J1437845*
G01*
G75*
D01*
G03X-19526250Y-15707154I-1428751J-1437845*
G01*
G75*
D01*
G03X-22901635Y-17710097I-1428749J-1437846*
G01*
X-24028139Y-16159596D01*
G75*
D01*
G03X-25609952Y-15909061I-916174J-665639*
G01*
X-26459420Y-16526236D01*
G74*
D01*
G03X-26545264Y-16595224I665636J916176*
G01*
G74*
D01*
G03X-26637404Y-16655548I573496J976499*
G01*
X-27486872Y-17272723D01*
G74*
D01*
G03X-27925268Y-17936792I665639J916174*
G01*
X-16668750Y-25867153D02*
G75*
D01*
G03X-19526250Y-25867153I-1428750J-1437846*
G01*
G75*
D01*
G03X-19526250Y-28742846I-1428750J-1437847*
G01*
G75*
D01*
G03X-16668750Y-28742846I1428750J1437845*
G01*
G75*
D01*
G03X-16668750Y-25867153I1428749J1437846*
G01*
X-29575865Y9159687D02*
G75*
D01*
G03X-27309269Y9411531I1318366J-1539686*
G01*
G75*
D01*
G03X-29575865Y9159687I-1265730J1065969*
G01*
X-30361338Y5700000D02*
G74*
D01*
G03X-31745000Y7083662I1383662J0*
G01*
X-36245000Y7083662D01*
G75*
D01*
G03X-37628662Y5700000I0J-1383662*
G01*
X-37628662Y3700000D01*
G75*
D01*
G03X-37626445Y3621713I1383662J9*
G01*
G74*
D01*
G03X-38828662Y2250000I181444J1371713*
G01*
X-38828662Y845270D01*
X-37290270Y845270D01*
X-37290270Y2793395D01*
G75*
D01*
G03X-36245000Y2316338I1045269J906605*
G01*
X-35599730Y2316338D01*
X-35599730Y845270D01*
X-34061338Y845270D01*
X-34061338Y2249999D01*
G75*
D01*
G03X-34062929Y2316338I-1383662J4*
G01*
X-32227070Y2316338D01*
G74*
D01*
G03X-32228662Y2250000I1382069J66355*
G01*
X-32228662Y-2249999D01*
G75*
D01*
G03X-30845000Y-3633662I1383662J-1*
G01*
X-28845000Y-3633662D01*
G75*
D01*
G03X-27461338Y-2250000I0J1383662*
G01*
X-27461338Y2249999D01*
G75*
D01*
G03X-28845000Y3633662I-1383662J1*
G01*
X-30362929Y3633662D01*
G75*
D01*
G03X-30361338Y3700000I-1382071J66335*
G01*
X-30361338Y5700000D01*
X10565000Y6985000D02*
G75*
D01*
G03X10565000Y6985000I350000J0*
G01*
X-8704686Y34468272D02*
G75*
D01*
G03X-8704686Y34468272I2627000J0*
G01*
X32710180Y-6667500D02*
G75*
D01*
G03X32710180Y-9207500I1579819J-1270000*
G01*
G75*
D01*
G03X35869819Y-9207500I1579820J-1270000*
G01*
G75*
D01*
G03X35869819Y-6667500I-1579818J1270000*
G01*
G75*
D01*
G03X32710180Y-6667500I-1579819J1269998*
G01*
X-25688286Y21015737D02*
G74*
D01*
G03X-26126682Y21679806I1104035J252105*
G01*
X-26976150Y22296981D01*
G75*
D01*
G03X-28557963Y22046446I-665639J-916174*
G01*
X-29792312Y20347509D01*
G75*
D01*
G03X-29541777Y18765697I916173J-665639*
G01*
X-28692309Y18148522D01*
G75*
D01*
G03X-27925269Y17936792I665639J916174*
G01*
G74*
D01*
G03X-27486873Y17272723I1104035J252105*
G01*
X-26637405Y16655548D01*
G74*
D01*
G03X-26545265Y16595224I665637J916176*
G01*
G74*
D01*
G03X-26459421Y16526236I751480J847188*
G01*
X-25609953Y15909061D01*
G75*
D01*
G03X-24028140Y16159596I665639J916174*
G01*
X-22793791Y17858533D01*
G75*
D01*
G03X-23044326Y19440345I-916173J665639*
G01*
X-23893794Y20057520D01*
G74*
D01*
G03X-23985934Y20117844I665637J916176*
G01*
G74*
D01*
G03X-24071778Y20186832I751480J847188*
G01*
X-24921246Y20804007D01*
G75*
D01*
G03X-25688286Y21015737I-665639J-916174*
G01*
X11753709Y-29058308D02*
G74*
D01*
G03X11726669Y-28951549I1110009J224340*
G01*
X11419679Y-27947429D01*
G75*
D01*
G03X10005611Y-27195556I-1082970J-331097*
G01*
X7997371Y-27809537D01*
G75*
D01*
G03X7245498Y-29223604I331096J-1082969*
G01*
X7552488Y-30227724D01*
G74*
D01*
G03X7589770Y-30331352I1082970J331097*
G01*
G74*
D01*
G03X7616810Y-30438111I1110009J224340*
G01*
X7923800Y-31442231D01*
G74*
D01*
G03X8408963Y-32072942I1082970J331098*
G01*
G75*
D01*
G03X8359434Y-32867125I1033440J-463086*
G01*
X8666424Y-33871245D01*
G75*
D01*
G03X10080492Y-34623118I1082970J331097*
G01*
X12088732Y-34009137D01*
G75*
D01*
G03X12840605Y-32595070I-331096J1082969*
G01*
X12533615Y-31590950D01*
G74*
D01*
G03X12048452Y-30960239I1082970J331098*
G01*
G75*
D01*
G03X12097981Y-30166056I-1033440J463086*
G01*
X11790991Y-29161936D01*
G74*
D01*
G03X11753709Y-29058308I1082970J331097*
G01*
X-35647000Y-9525000D02*
G75*
D01*
G03X-35647000Y-9525000I2627000J0*
G01*
X-38828662Y-2249999D02*
G75*
D01*
G03X-37445000Y-3633662I1383662J-1*
G01*
X-37290270Y-3633662D01*
X-37290270Y-845270D01*
X-38828662Y-845270D01*
X-38828662Y-2249999D01*
X-35445000Y-3633662D02*
G75*
D01*
G03X-34061338Y-2250000I0J1383662*
G01*
X-34061338Y-845270D01*
X-35599730Y-845270D01*
X-35599730Y-3633662D01*
X-35445000Y-3633662D01*
X-36195000Y1501209D02*
X-36695000Y1501209D01*
G75*
D01*
G03X-36946209Y1250000I0J-251209*
G01*
X-36946209Y-1250000D01*
G75*
D01*
G03X-36695000Y-1501209I251209J0*
G01*
X-36195000Y-1501209D01*
G75*
D01*
G03X-35943791Y-1250000I0J251209*
G01*
X-35943791Y1250000D01*
G74*
D01*
G03X-36195000Y1501209I251209J0*
G01*
X2540000Y-31440180D02*
G75*
D01*
G03X-158750Y-31582153I-1270000J-1579819*
G01*
G75*
D01*
G03X-158750Y-34457846I-1428750J-1437847*
G01*
G75*
D01*
G03X2540000Y-34599819I1428750J1437845*
G01*
G75*
D01*
G03X2540000Y-31440180I1269998J1579819*
G01*
X2540000Y-21280181D02*
G75*
D01*
G03X-158750Y-21422154I-1270000J-1579818*
G01*
G75*
D01*
G03X-158750Y-24297845I-1428750J-1437846*
G01*
G75*
D01*
G03X2540000Y-24439818I1428750J1437844*
G01*
G75*
D01*
G03X2540000Y-21280181I1269998J1579818*
G01*
X-1579819Y-10160000D02*
G75*
D01*
G03X1579819Y-10160000I1579819J-1269999*
G01*
G75*
D01*
G03X-1579819Y-10160000I-1579819J1269999*
G01*
X-10160000Y1579819D02*
G75*
D01*
G03X-10160000Y-1579819I-1269999J-1579819*
G01*
G75*
D01*
G03X-10160000Y1579819I1269999J1579819*
G01*
X0Y1579819D02*
G75*
D01*
G03X0Y-1579819I-1269999J-1579819*
G01*
G75*
D01*
G03X0Y1579819I1269999J1579819*
G01*
X26324758Y23036404D02*
X31419447Y23036404D01*
G75*
D01*
G02X31556958Y23029848I549J-1433904*
G01*
G74*
D01*
G02X32434929Y22615415I136959J1427347*
G01*
X33623995Y21426349D01*
G75*
D01*
G03X34452445Y20067150I-33623993J-21426350*
G01*
G74*
D01*
G02X34453904Y20002500I1432444J64668*
G01*
X34453904Y17819549D01*
G75*
D01*
G02X34032915Y16804619I-1433904J0*
G01*
X33738418Y16510122D01*
G74*
D01*
G02X33708868Y16166114I2026999J844*
G01*
G75*
D01*
G02X34895212Y13744486I-766027J-1876679*
G01*
X34895212Y7274340D01*
G75*
D01*
G02X34415293Y6117236I-1634872J0*
G01*
X34168617Y5870560D01*
X34168616Y5870559D01*
X30480510Y2182453D01*
X31120000Y2182453D01*
G74*
D01*
G02X31230000Y2177097I10J1132453*
G01*
G75*
D01*
G02X31340000Y2182453I110010J-1127096*
G01*
X32390000Y2182453D01*
G74*
D01*
G02X32500000Y2177097I10J1132453*
G01*
G74*
D01*
G02X32547252Y2180713I110016J1127095*
G01*
X32547252Y2171481D01*
G74*
D01*
G02X33135000Y1902892I157250J1121481*
G01*
G74*
D01*
G02X33722748Y2171481I744998J852892*
G01*
X33722748Y2180713D01*
G74*
D01*
G02X33770000Y2177097I62764J1130711*
G01*
G75*
D01*
G02X33880000Y2182453I110010J-1127096*
G01*
X34930000Y2182453D01*
G75*
D01*
G02X36062453Y1049999I0J-1132453*
G01*
X36062453Y-1050000D01*
G75*
D01*
G02X34930000Y-2182453I-1132453J0*
G01*
X33880000Y-2182453D01*
G75*
D01*
G02X33770000Y-2177097I10J1132453*
G01*
G74*
D01*
G02X33722748Y-2180713I110016J1127095*
G01*
X33722748Y-2171481D01*
G74*
D01*
G02X33135000Y-1902892I157250J1121481*
G01*
G74*
D01*
G02X32547252Y-2171481I744998J852892*
G01*
X32547252Y-2180713D01*
G74*
D01*
G02X32500000Y-2177097I62764J1130711*
G01*
G74*
D01*
G02X32390000Y-2182453I110010J1127096*
G01*
X31340000Y-2182453D01*
G75*
D01*
G02X31230000Y-2177097I10J1132453*
G01*
G74*
D01*
G02X31120000Y-2182453I110010J1127096*
G01*
X30070000Y-2182453D01*
G75*
D01*
G02X28937547Y-1049999I0J1132453*
G01*
X28937547Y639489D01*
X25555603Y-2742453D01*
G74*
D01*
G02X24970190Y-3119158I1157104J1154952*
G01*
G74*
D01*
G02X24546116Y-3215694I571691J1531658*
G01*
G74*
D01*
G02X24322977Y-3379708I1368618J1628192*
G01*
G75*
D01*
G02X25709818Y-6667500I-192975J-2017791*
G01*
G75*
D01*
G02X25709818Y-9207500I-1579817J-1270000*
G01*
G75*
D01*
G02X22550181Y-9207500I-1579818J-1269998*
G01*
G75*
D01*
G02X22550181Y-6667500I1579818J1270000*
G01*
G75*
D01*
G02X23010176Y-3707908I1579818J1270000*
G01*
G74*
D01*
G02X21816866Y-3222372I167322J2120408*
G01*
X13017500Y-3222372D01*
G75*
D01*
G02X13000190Y-3222280I34J1634872*
G01*
G74*
D01*
G02X11861469Y-2743529I17308J1634780*
G01*
X11121295Y-2003354D01*
G74*
D01*
G02X10160000Y-1579819I308704J2003354*
G01*
G75*
D01*
G02X10160000Y1579819I-1269999J1579819*
G01*
G75*
D01*
G02X13433355Y308701I1270000J-1579818*
G01*
X13694685Y47372D01*
X21710484Y47372D01*
G75*
D01*
G02X22686428Y3657035I1467016J1540128*
G01*
G75*
D01*
G02X23437396Y6985000I1443573J1422964*
G01*
G75*
D01*
G02X24129151Y10916998I692606J1904999*
G01*
X24613596Y11401443D01*
X24613596Y11644595D01*
G75*
D01*
G02X22111896Y14816805I-1118594J1690406*
G01*
X22111896Y15212326D01*
G75*
D01*
G02X22216818Y15753017I1433901J2275*
G01*
G75*
D01*
G02X20268666Y18310552I8181J2026982*
G01*
G75*
D01*
G02X18573750Y18882154I-266167J2009448*
G01*
G75*
D01*
G02X15716250Y18882154I-1428750J1437845*
G01*
G75*
D01*
G02X14021334Y18310552I-1428749J1437846*
G01*
G75*
D01*
G02X11606375Y15805565I-1956333J-530554*
G01*
G75*
D01*
G02X8345000Y14068027I-1961374J-248068*
G01*
G75*
D01*
G02X6040268Y13854842I-1300000J1489473*
G01*
G74*
D01*
G02X5295000Y13575047I745268J852658*
G01*
X3595000Y13575047D01*
G75*
D01*
G02X2462547Y14707500I0J1132453*
G01*
X2462547Y16407500D01*
G75*
D01*
G02X3595000Y17539953I1132453J0*
G01*
X5295000Y17539953D01*
G74*
D01*
G02X6040268Y17260157I1J1132453*
G01*
G75*
D01*
G02X8345000Y17046972I1004732J-1702656*
G01*
G75*
D01*
G02X10058748Y17490720I1300000J-1489471*
G01*
G75*
D01*
G02X10136809Y18405149I2006252J289281*
G01*
G75*
D01*
G02X8345000Y18830527I-491809J1914851*
G01*
G75*
D01*
G02X6040268Y18617342I-1300000J1489473*
G01*
G74*
D01*
G02X5295000Y18337547I745268J852658*
G01*
X3595000Y18337547D01*
G75*
D01*
G02X2462547Y19470000I0J1132453*
G01*
X2462547Y21170000D01*
G75*
D01*
G02X3595000Y22302453I1132453J0*
G01*
X5295000Y22302453D01*
G74*
D01*
G02X6040268Y22022657I1J1132453*
G01*
G75*
D01*
G02X8345000Y21809472I1004732J-1702656*
G01*
G75*
D01*
G02X11533826Y19736165I1300001J-1489471*
G01*
G75*
D01*
G02X12331166Y19789448I531173J-1956165*
G01*
G75*
D01*
G02X15716250Y21757845I1956333J530553*
G01*
G75*
D01*
G02X18573750Y21757845I1428750J-1437844*
G01*
G75*
D01*
G02X21958833Y19789447I1428752J-1437842*
G01*
G75*
D01*
G02X22484703Y19790293I266168J-2009447*
G01*
X25310833Y22616422D01*
G74*
D01*
G02X25885488Y22967462I1013923J1013922*
G01*
G75*
D01*
G02X26324758Y23036404I439271J-1364961*
G01*
G54D12*
X31711419Y16510968D02*
X33020000Y17819549D01*
X33020000Y20002500D01*
X31420000Y21602500D01*
X26324758Y21602500D01*
X28511500Y14301160D02*
X29489887Y15279548D01*
X28258468Y17501081D02*
X26047500Y15290110D01*
X26324758Y21602500D02*
X22502258Y17780000D01*
X22225000Y17780000D01*
X28511500Y9461500D02*
X28511500Y14301160D01*
X28511500Y9461500D02*
X24130000Y5080000D01*
X26047500Y10807500D02*
X26047500Y15290110D01*
X26047500Y10807500D02*
X24130000Y8890000D01*
X30480000Y18732500D02*
X29511419Y19701081D01*
X26914681Y19701081D01*
X24424999Y17211399D01*
X24424999Y16093799D01*
X23545800Y15214600D01*
X23545800Y13360400D01*
X33135000Y0D02*
X33135000Y3607500D01*
X10228708Y-31516591D02*
X10340739Y-31404560D01*
X10972800Y-31404560D01*
X11300460Y-31076900D01*
X13192760Y-31076900D01*
X-30480000Y15240000D02*
X-27622500Y18097500D01*
X-27622500Y18415000D01*
X-27305000Y18732500D01*
X3302000Y31877000D02*
X9398000Y31877000D01*
X-26806777Y-19230723D02*
X-29845000Y-16192500D01*
X-26806777Y-19476265D02*
X-26806777Y-19230723D01*
G54D13*
X33260340Y13971940D02*
X32942839Y14289435D01*
X13017500Y-1587500D02*
X11430000Y0D01*
X33260340Y7274340D02*
X24398500Y-1587500D01*
X33260340Y7274340D02*
X33260340Y13971940D01*
X24398500Y-1587500D02*
X13017500Y-1587500D01*
X30797500Y7658100D02*
X24726900Y1587500D01*
X30797500Y7658100D02*
X30797500Y12999661D01*
X24726900Y1587500D02*
X23177500Y1587500D01*
G54D14*
X21683289Y-30088861D02*
X20221864Y-28521674D01*
X20845952Y-27939703D01*
X21450282Y-27962154D01*
X21596424Y-28118872D01*
X21576665Y-28723296D01*
X20952577Y-29305268D01*
X21108599Y-29159775D02*
X22619421Y-29215903D01*
X24023620Y-27906467D02*
X23087488Y-28779425D01*
X22356776Y-27995832D01*
X21626063Y-27212238D01*
X22562196Y-26339281D01*
X22356776Y-27995832D02*
X22980864Y-27413860D01*
X23030262Y-25902802D02*
X24959752Y-27033510D01*
X23966395Y-25029845D01*
X26130945Y-23597368D02*
X26150704Y-22992944D01*
X26462748Y-22701959D01*
X27067078Y-22724410D01*
X27213220Y-22881128D01*
X27300085Y-24851117D01*
X28236217Y-23978159D01*
X28090075Y-23821441D01*
G54D15*
X-41254000Y-41254000D02*
X-41254000Y-33003200D01*
X-41254000Y-41254000D02*
X-33003200Y-41254000D01*
X41254000Y-41254000D02*
X33003200Y-41254000D01*
X41254000Y-41254000D02*
X41254000Y-33003200D01*
X41254000Y41254000D02*
X41254000Y33003200D01*
X41254000Y41254000D02*
X33003200Y41254000D01*
X-41254000Y41254000D02*
X-33003200Y41254000D01*
X-41254000Y41254000D02*
X-41254000Y33003200D01*
X-46254000Y-41254000D02*
X-56254000Y-41254000D01*
X-51254000Y-46254000D02*
X-51254000Y-36254000D01*
X-55003999Y-41254000D02*
G75*
D01*
G02X-55003999Y-41254000I3749999J0*
G01*
X46254000Y-41254000D02*
X56254000Y-41254000D01*
X51254000Y-46254000D02*
X51254000Y-36254000D01*
X47504001Y-41254000D02*
G75*
D01*
G02X47504001Y-41254000I3749999J0*
G01*
X50004001Y-41254000D02*
G75*
D01*
G02X50004001Y-41254000I1249999J0*
G01*
X-46254000Y41254000D02*
X-56254000Y41254000D01*
X-51254000Y36254000D02*
X-51254000Y46254000D01*
X-55003999Y41254000D02*
G75*
D01*
G02X-55003999Y41254000I3749999J0*
G01*
X-53753999Y41254000D02*
G75*
D01*
G02X-53753999Y41254000I2499999J0*
G01*
X-52503999Y41254000D02*
G75*
D01*
G02X-52503999Y41254000I1249999J0*
G01*
G54D16*
X1270000Y0D03*
X-1270000Y0D03*
X28258468Y17501081D03*
X31711419Y16510968D03*
X32942839Y14289435D03*
X29489887Y15279548D03*
X30721306Y13058016D03*
X0Y-11430000D03*
X0Y-8890000D03*
X-11430000Y0D03*
X-8890000Y0D03*
X0Y11430000D03*
X0Y8890000D03*
X-1270000Y5080000D03*
X12065000Y17780000D03*
X14287500Y30480000D03*
X17145000Y30480000D03*
X20002500Y30480000D03*
X-1587500Y-33020000D03*
X1270000Y-33020000D03*
X3810000Y-33020000D03*
X34290000Y-10477500D03*
X34290000Y-7937500D03*
X34290000Y-5397500D03*
X8890000Y0D03*
X11430000Y0D03*
X-18097500Y7620000D03*
X-18097500Y-27305000D03*
X-20955000Y-27305000D03*
X-15240000Y-27305000D03*
X-22860000Y22860000D03*
X-22860000Y25400000D03*
X13970000Y5080000D03*
X13970000Y8890000D03*
X13335000Y13335000D03*
X-22860000Y27940000D03*
G54D17*
X10730768Y-31363096D03*
X9726648Y-31670086D03*
G54D18*
X-26498190Y-19900999D03*
X-27115364Y-19051531D03*
G54D19*
X33135000Y0D03*
G54D20*
X9739973Y31675492D03*
X10738583Y31351024D03*
G54D21*
X30480000Y18732500D03*
G54D22*
X29932774Y18889414D02*
X30323086Y18185274D01*
X31027226Y18575586D01*
X30636914Y19279726D01*
X29932774Y18889414D01*D02*
G54D23*
X5715000Y6985000D03*
X4445000Y15557500D03*
X5715000Y11112500D03*
X4445000Y20320000D03*
G54D24*
X8315000Y6985000D03*
X10915000Y6985000D03*
X9645000Y15557500D03*
X7045000Y15557500D03*
X8315000Y11112500D03*
X10915000Y11112500D03*
X7045000Y20320000D03*
X9645000Y20320000D03*
G54D25*
X-28575000Y10477500D03*
X-17462500Y10477500D03*
G54D26*
X-11430000Y5080000D03*
X22225000Y17780000D03*
X14287500Y20320000D03*
X17145000Y20320000D03*
X20002500Y20320000D03*
X-1587500Y-22860000D03*
X1270000Y-22860000D03*
X3810000Y-22860000D03*
X24130000Y-10477500D03*
X24130000Y-7937500D03*
X24130000Y-5397500D03*
X-28257500Y7620000D03*
X-18097500Y-17144999D03*
X-20955000Y-17145000D03*
X-15240000Y-17145000D03*
X-12700000Y22860000D03*
X-12700000Y25400000D03*
X24130000Y5080000D03*
X24130000Y8890000D03*
X23495000Y13335000D03*
X-12700000Y27940000D03*
G54D27*
X-29845000Y0D03*
X-36445000Y0D03*
G54D28*
X-30845000Y-2250000D02*
X-28845000Y-2250000D01*
X-28845000Y2250000D01*
X-30845000Y2250000D01*
X-30845000Y-2250000D01*D02*
X-37445000Y-2250000D02*
X-35445000Y-2250000D01*
X-35445000Y2250000D01*
X-37445000Y2250000D01*
X-37445000Y-2250000D01*D02*
X-36245000Y3700000D02*
X-31745000Y3700000D01*
X-31745000Y5700000D01*
X-36245000Y5700000D01*
X-36245000Y3700000D01*D02*
G54D29*
X-33995000Y4700000D03*
G54D30*
X-27115365Y19051531D03*
X-26498191Y19900999D03*
G54D31*
X23177500Y1587500D03*
X23177500Y-1587500D03*

M02*
