G04 Generated by Ultiboard 14.0 *
%FSLAX46Y46*%
%MOMM*%

%ADD10C,0.000001*%
%ADD11C,0.254000*%
%ADD12C,1.000000*%
%ADD13C,0.600000*%
%ADD14C,0.127000*%
%ADD15C,1.800000X0.900000*%
%ADD16P,1.484924X4X62*%
%ADD17P,1.484924X4X80*%
%ADD18R,1.050000X2.100000X0.700000*%
%ADD19P,1.484924X4X27*%
%ADD20P,1.138557X4X74X0.900000*%
%ADD21C,0.994918*%
%ADD22R,1.700000X1.700000X0.700000*%
%ADD23C,1.700000X0.700000*%
%ADD24C,1.055600X0.700000*%
%ADD25C,1.799998X0.900000*%
%ADD26R,2.000000X4.500000*%
%ADD27C,0.500000*%
%ADD28R,4.500000X2.000000*%
%ADD29P,1.484924X4X9*%
%ADD30C,2.000000X0.800000*%


G04 ColorRGB 0000FF for the following layer *
%LNCopper Bottom*%
%LPD*%
G54D10*
G36*
X38772463Y-9292882D02*
G75*
D01*
G02X39723554Y-3420636I-38772463J9292878*
G01*
G74*
D01*
G03X39430415Y-2997570I1306053J591864*
G01*
X39430415Y-2997570D01*
X36062453Y370392D01*
X36062453Y1049999D01*
G75*
D01*
G03X34930000Y2182453I-1132453J1*
G01*
X34930000Y2182453D01*
X33880000Y2182453D01*
G75*
D01*
G03X33770000Y2177097I10J-1132453*
G01*
G74*
D01*
G03X33660000Y2182453I110010J1127096*
G01*
X33660000Y2182453D01*
X32610000Y2182453D01*
G75*
D01*
G03X32500000Y2177097I10J-1132453*
G01*
G74*
D01*
G03X32390000Y2182453I110010J1127096*
G01*
X32390000Y2182453D01*
X31340000Y2182453D01*
G75*
D01*
G03X31230000Y2177097I10J-1132453*
G01*
G74*
D01*
G03X31120000Y2182453I110010J1127096*
G01*
X31120000Y2182453D01*
X30070000Y2182453D01*
G75*
D01*
G03X28937547Y1050000I0J-1132453*
G01*
X28937547Y1050000D01*
X28937547Y212205D01*
G75*
D01*
G03X28831066Y-330970I1327421J-542245*
G01*
X28831066Y-330970D01*
X28831066Y-3275546D01*
G75*
D01*
G03X29251045Y-4291392I1433902J-1924*
G01*
X29251045Y-4291392D01*
X31371075Y-6411422D01*
G74*
D01*
G03X31980371Y-6773129I1013923J1013922*
G01*
G75*
D01*
G03X32385000Y-6831404I404630J1375628*
G01*
X32385000Y-6831404D01*
X32591388Y-6831404D01*
G75*
D01*
G03X32710180Y-9207500I1698611J-1106096*
G01*
G75*
D01*
G03X35733129Y-11900913I1579821J-1269998*
G01*
G74*
D01*
G03X36574929Y-11490415I173129J1423413*
G01*
X36574929Y-11490415D01*
X38772463Y-9292882D01*
D02*
G37*
%LPC*%
G36*
X-16079603Y29094953D02*
X-16079603Y29094953D01*
X-18129439Y27045117D01*
X-18129440Y27045116D01*
X-21180158Y23994398D01*
G74*
D01*
G03X-21280180Y24130000I1679847J1134390*
G01*
G75*
D01*
G03X-21280180Y26670000I-1579819J1270000*
G01*
G75*
D01*
G03X-24298425Y29368167I-1579819J1270001*
G01*
G74*
D01*
G03X-24331276Y29364838I128131J1428167*
G01*
G74*
D01*
G03X-25185219Y28952915I160987J1424837*
G01*
X-25185219Y28952915D01*
X-28847145Y25290989D01*
G74*
D01*
G03X-29268134Y24276060I1012913J1014930*
G01*
X-29268134Y24276060D01*
X-29268134Y21068979D01*
X-29792312Y20347509D01*
G75*
D01*
G03X-29541777Y18765697I916173J-665639*
G01*
X-29541777Y18765697D01*
X-28692309Y18148522D01*
G74*
D01*
G03X-28600169Y18088198I665637J916176*
G01*
G74*
D01*
G03X-28514325Y18019210I751480J847188*
G01*
X-28514325Y18019210D01*
X-27664857Y17402035D01*
G74*
D01*
G03X-27572717Y17341711I665637J916176*
G01*
G74*
D01*
G03X-27486873Y17272723I751480J847188*
G01*
X-27486873Y17272723D01*
X-26637405Y16655548D01*
G74*
D01*
G03X-26545265Y16595224I665637J916176*
G01*
G74*
D01*
G03X-26459421Y16526236I751480J847188*
G01*
X-26459421Y16526236D01*
X-25609953Y15909061D01*
G74*
D01*
G03X-25516555Y15848000I665631J916179*
G01*
X-25516555Y15848000D01*
X-27260204Y14104351D01*
G75*
D01*
G03X-27352372Y11890678I1155204J-1156853*
G01*
X-27352372Y11890678D01*
X-27352372Y-12382500D01*
G75*
D01*
G03X-26872453Y-13539603I1634872J1*
G01*
X-26872453Y-13539603D01*
X-24690454Y-15721603D01*
G75*
D01*
G03X-25609952Y-15909061I-253860J-1103632*
G01*
X-25609952Y-15909061D01*
X-26459420Y-16526236D01*
G74*
D01*
G03X-26545264Y-16595224I665636J916176*
G01*
G74*
D01*
G03X-26637404Y-16655548I573496J976499*
G01*
X-26637404Y-16655548D01*
X-27486872Y-17272723D01*
G74*
D01*
G03X-27572716Y-17341711I665636J916176*
G01*
G74*
D01*
G03X-27664856Y-17402035I573496J976499*
G01*
X-27664856Y-17402035D01*
X-28514324Y-18019210D01*
G74*
D01*
G03X-28600168Y-18088198I665636J916176*
G01*
G74*
D01*
G03X-28692308Y-18148522I573496J976499*
G01*
X-28692308Y-18148522D01*
X-29541776Y-18765697D01*
G75*
D01*
G03X-29792311Y-20347509I665639J-916174*
G01*
X-29792311Y-20347509D01*
X-29373565Y-20923863D01*
G74*
D01*
G03X-29373904Y-20955000I1433564J31178*
G01*
X-29373904Y-20955000D01*
X-29373904Y-22542500D01*
G75*
D01*
G03X-28952915Y-23557429I1433904J1*
G01*
X-28952915Y-23557429D01*
X-24192429Y-28317915D01*
G74*
D01*
G03X-23713459Y-28634972I1014928J1012914*
G01*
G75*
D01*
G03X-23176107Y-28738904I535963J1329970*
G01*
X-23176107Y-28738904D01*
X-22387706Y-28738904D01*
G75*
D01*
G03X-19526250Y-28742846I1432706J1433903*
G01*
G75*
D01*
G03X-16668750Y-28742846I1428750J1437845*
G01*
G75*
D01*
G03X-13918786Y-25767754I1428727J1437868*
G01*
G74*
D01*
G03X-14226075Y-25311037I1321211J557206*
G01*
X-14226075Y-25311037D01*
X-15042240Y-24494872D01*
X-2785798Y-24494872D01*
G74*
D01*
G03X-2566318Y-24635003I1198291J1634876*
G01*
G74*
D01*
G03X-2364872Y-24925510I1436320J780888*
G01*
X-2364872Y-24925510D01*
X-2364872Y-25275927D01*
G75*
D01*
G03X-1886029Y-26431956I1634872J0*
G01*
X-1886028Y-26431956D01*
X-1886028Y-26431956D01*
X111042Y-28429027D01*
X111043Y-28429028D01*
G75*
D01*
G03X1267073Y-28907872I1156030J1156027*
G01*
X1267073Y-28907872D01*
X3671779Y-28907872D01*
X2796075Y-29783576D01*
G75*
D01*
G03X2376096Y-30799499I1013923J-1013922*
G01*
X2376096Y-30799499D01*
X2376096Y-31321388D01*
G75*
D01*
G03X-158750Y-31582153I-1106096J-1698611*
G01*
G75*
D01*
G03X-3021404Y-34452706I-1428736J-1437860*
G01*
X-3021404Y-34452706D01*
X-3021404Y-35242500D01*
G75*
D01*
G03X-2601423Y-36256423I1433904J0*
G01*
X-2601423Y-36256423D01*
X-2601423Y-36256423D01*
X-950423Y-37907423D01*
X-950423Y-37907423D01*
G75*
D01*
G03X63500Y-38327404I1013923J1013922*
G01*
X63500Y-38327404D01*
X6437620Y-38327404D01*
G74*
D01*
G03X7452549Y-37906415I1J1433904*
G01*
X7452549Y-37906415D01*
X11024438Y-34334525D01*
X12088732Y-34009137D01*
G75*
D01*
G03X12840605Y-32595070I-331096J1082969*
G01*
X12840605Y-32595070D01*
X12533615Y-31590950D01*
G74*
D01*
G03X12496333Y-31487322I1082970J331097*
G01*
G74*
D01*
G03X12469293Y-31380563I1110009J224340*
G01*
X12469293Y-31380563D01*
X12162303Y-30376443D01*
G74*
D01*
G03X12125021Y-30272815I1082970J331097*
G01*
G74*
D01*
G03X12097981Y-30166056I1110009J224340*
G01*
X12097981Y-30166056D01*
X11790991Y-29161936D01*
G74*
D01*
G03X11753709Y-29058308I1082970J331097*
G01*
G74*
D01*
G03X11726669Y-28951549I1110009J224340*
G01*
X11726669Y-28951549D01*
X11419679Y-27947429D01*
G75*
D01*
G03X10005611Y-27195556I-1082970J-331097*
G01*
X10005611Y-27195556D01*
X9599989Y-27319567D01*
X24438703Y-12480854D01*
G75*
D01*
G03X25709818Y-9207500I-308701J2003353*
G01*
G75*
D01*
G03X25709818Y-6667500I-1579817J1270000*
G01*
G75*
D01*
G03X24322977Y-3379708I-1579816J1270001*
G01*
G75*
D01*
G03X24593117Y0I-1145476J1792208*
G01*
G75*
D01*
G03X24651264Y3121171I-1415616J1587500*
G01*
G75*
D01*
G03X24822603Y6985000I-521264J1958829*
G01*
G75*
D01*
G03X23437396Y6985000I-692603J1904999*
G01*
G75*
D01*
G03X22424619Y3984372I692604J-1905000*
G01*
X22424619Y3984372D01*
X15675382Y3984372D01*
G75*
D01*
G03X14662606Y6985000I-1705381J1095628*
G01*
G75*
D01*
G03X15909069Y9480542I-692605J1905000*
G01*
G74*
D01*
G03X16968603Y9957546I97569J1631958*
G01*
X16968603Y9957546D01*
X20725653Y13714596D01*
G75*
D01*
G03X21205572Y14871700I-1154952J1157104*
G01*
X21205572Y14871700D01*
X21205572Y16028003D01*
G75*
D01*
G03X21958833Y19789447I1019428J1751996*
G01*
G75*
D01*
G03X21179871Y21970006I-1956333J530552*
G01*
X21179871Y21970006D01*
X21179871Y23882501D01*
G74*
D01*
G03X20699508Y25040047I1634872J1*
G01*
X20699508Y25040047D01*
X17810090Y27929475D01*
G74*
D01*
G03X16652540Y28409842I1157551J1154504*
G01*
X16652540Y28409842D01*
X15197687Y28409842D01*
X15300415Y28512570D01*
G74*
D01*
G03X15589257Y28926244I1012914J1014930*
G01*
G74*
D01*
G03X15716250Y29042153I1301753J1553758*
G01*
G75*
D01*
G03X18573750Y29042153I1428750J1437846*
G01*
G75*
D01*
G03X20803189Y32342156I1428750J1437847*
G01*
X20803189Y32342156D01*
X17842429Y35302915D01*
G74*
D01*
G03X17367787Y35618220I1014929J1012914*
G01*
G75*
D01*
G03X16826096Y35723904I-540291J-1328218*
G01*
X16826096Y35723904D01*
X12200629Y35723904D01*
G75*
D01*
G03X11703571Y35634996I0J-1433904*
G01*
G74*
D01*
G03X11186704Y35303922I497057J1344996*
G01*
X11186704Y35303922D01*
X10416547Y34533765D01*
X10145299Y34621899D01*
G75*
D01*
G03X8718326Y33894818I-349947J-1077026*
G01*
X8718326Y33894818D01*
X8393858Y32896209D01*
G74*
D01*
G03X8364959Y32789938I1077027J349948*
G01*
G74*
D01*
G03X8325875Y32686976I1037946J452900*
G01*
X8325875Y32686976D01*
X8001407Y31688367D01*
G74*
D01*
G03X7972508Y31582096I1077027J349948*
G01*
G74*
D01*
G03X7933424Y31479134I1037946J452900*
G01*
X7933424Y31479134D01*
X7608956Y30480525D01*
G74*
D01*
G03X7580057Y30374254I1077027J349948*
G01*
G74*
D01*
G03X7540973Y30271292I1037946J452900*
G01*
X7540973Y30271292D01*
X7410767Y29870560D01*
X7410767Y29870559D01*
X7216505Y29272683D01*
G75*
D01*
G03X7283884Y28409842I1077027J-349947*
G01*
X7283884Y28409842D01*
X6922215Y28409842D01*
X6237103Y29094953D01*
G74*
D01*
G03X5423232Y29538436I1157104J1154952*
G01*
G75*
D01*
G03X5079053Y29574872I-343234J-1598436*
G01*
X5079053Y29574872D01*
X-11501701Y29574872D01*
G75*
D01*
G03X-13898298Y29574872I-1198299J-1634872*
G01*
X-13898298Y29574872D01*
X-14922500Y29574872D01*
G75*
D01*
G03X-16079603Y29094953I1J-1634872*
G01*
D02*
G37*
G36*
X-27425601Y5771576D02*
X-27425601Y5771576D01*
X-27524585Y5870559D01*
X-27524585Y5870560D01*
X-28257500Y6603474D01*
X-28990414Y5870560D01*
X-28990414Y5870559D01*
X-29089398Y5771576D01*
G75*
D01*
G03X-27425601Y5771576I831898J1848424*
G01*
D02*
G37*
G36*
X-30361338Y5700000D02*
G74*
D01*
G03X-31745000Y7083662I1383662J0*
G01*
X-31745000Y7083662D01*
X-36245000Y7083662D01*
G75*
D01*
G03X-37628662Y5700000I0J-1383662*
G01*
X-37628662Y5700000D01*
X-37628662Y3700000D01*
G75*
D01*
G03X-37626445Y3621713I1383662J9*
G01*
G74*
D01*
G03X-38828662Y2250000I181444J1371713*
G01*
X-38828662Y2250000D01*
X-38828662Y-2249999D01*
G75*
D01*
G03X-37445000Y-3633662I1383662J-1*
G01*
X-37445000Y-3633662D01*
X-35445000Y-3633662D01*
G75*
D01*
G03X-34061338Y-2250000I0J1383662*
G01*
X-34061338Y-2250000D01*
X-34061338Y2249999D01*
G75*
D01*
G03X-34062929Y2316338I-1383662J4*
G01*
X-34062929Y2316338D01*
X-32227070Y2316338D01*
G74*
D01*
G03X-32228662Y2250000I1382069J66355*
G01*
X-32228662Y2250000D01*
X-32228662Y845270D01*
X-30690270Y845270D01*
X-30690270Y2804419D01*
G75*
D01*
G03X-30361338Y3700000I-1054730J895581*
G01*
X-30361338Y3700000D01*
X-30361338Y5700000D01*
D02*
G37*
G36*
X32064571Y20071092D02*
G75*
D01*
G03X29845548Y20707383I-1427657J-791366*
G01*
X29845548Y20707383D01*
X29141407Y20317071D01*
G74*
D01*
G03X28427599Y19521012I791366J1427657*
G01*
G75*
D01*
G03X27492437Y15624401I-169137J-2019930*
G01*
G75*
D01*
G03X28723856Y13402868I1997450J-344853*
G01*
G75*
D01*
G03X32597985Y12291985I1997450J-344851*
G01*
G75*
D01*
G03X33708868Y16166114I344851J1997450*
G01*
G75*
D01*
G03X32638383Y18313595I-1997449J344854*
G01*
G75*
D01*
G03X32454883Y19366951I-1611157J261990*
G01*
X32454883Y19366951D01*
X32064571Y20071092D01*
D02*
G37*
G36*
X29870560Y-20089834D02*
G75*
D01*
G03X29870560Y-20089834I440329J2589833*
G01*
D02*
G37*
G36*
X-8704686Y34468272D02*
G75*
D01*
G03X-8704686Y34468272I2627000J0*
G01*
D02*
G37*
G36*
X-35647000Y-9525000D02*
G75*
D01*
G03X-35647000Y-9525000I2627000J0*
G01*
D02*
G37*
G36*
X-32228662Y-2249999D02*
G75*
D01*
G03X-30845000Y-3633662I1383662J-1*
G01*
X-30845000Y-3633662D01*
X-30690270Y-3633662D01*
X-30690270Y-845270D01*
X-32228662Y-845270D01*
X-32228662Y-2249999D01*
D02*
G37*
G36*
X-28845000Y-3633662D02*
G75*
D01*
G03X-27461338Y-2250000I0J1383662*
G01*
X-27461338Y-2250000D01*
X-27461338Y-845270D01*
X-28999730Y-845270D01*
X-28999730Y-3633662D01*
X-28845000Y-3633662D01*
D02*
G37*
G36*
X-29595000Y1751209D02*
X-29595000Y1751209D01*
X-30095000Y1751209D01*
G75*
D01*
G03X-30346209Y1500000I0J-251209*
G01*
X-30346209Y1500000D01*
X-30346209Y-1500000D01*
G75*
D01*
G03X-30095000Y-1751209I251209J0*
G01*
X-30095000Y-1751209D01*
X-29595000Y-1751209D01*
G75*
D01*
G03X-29343791Y-1500000I0J251209*
G01*
X-29343791Y-1500000D01*
X-29343791Y1500000D01*
G74*
D01*
G03X-29595000Y1751209I251209J0*
G01*
D02*
G37*
G36*
X-28845000Y3633662D02*
X-28845000Y3633662D01*
X-28999730Y3633662D01*
X-28999730Y845270D01*
X-27461338Y845270D01*
X-27461338Y2249999D01*
G75*
D01*
G03X-28845000Y3633662I-1383662J1*
G01*
D02*
G37*
G36*
X21468001Y13335000D02*
G75*
D01*
G03X21468001Y13335000I2026999J0*
G01*
D02*
G37*
G36*
X-30105923Y8451898D02*
G75*
D01*
G03X-30105923Y6788101I1848423J-831898*
G01*
X-30105923Y6788101D01*
X-29274025Y7620000D01*
X-30105923Y8451898D01*
D02*
G37*
G36*
X-28707500Y7620000D02*
G75*
D01*
G03X-28707500Y7620000I450000J0*
G01*
D02*
G37*
G36*
X-29089398Y9468423D02*
X-29089398Y9468423D01*
X-28257500Y8636525D01*
X-27425601Y9468423D01*
G75*
D01*
G03X-29089398Y9468423I-831899J-1848423*
G01*
D02*
G37*
%LPD*%
G36*
X-14809603Y3925046D02*
X-14809603Y3925046D01*
X-16755117Y5870560D01*
X-16869685Y5985128D01*
X-16899200Y5985128D01*
G75*
D01*
G02X-19002628Y5806309I-1198301J1634872*
G01*
X-19002628Y5806309D01*
X-19002628Y-9482812D01*
X-18129440Y-10356000D01*
X-14401470Y-14083970D01*
G75*
D01*
G02X-13922628Y-15241493I-1156028J-1156028*
G01*
X-13922628Y-15241493D01*
X-13922628Y-15570908D01*
G74*
D01*
G02X-13863403Y-15657146I1317365J968172*
G01*
G74*
D01*
G02X-13476769Y-16145128I1376597J1487853*
G01*
X-13476769Y-16145128D01*
X2274786Y-16145128D01*
G75*
D01*
G02X2876998Y-16259504I1462J-1634870*
G01*
G74*
D01*
G02X3433353Y-16625046I600748J1520495*
G01*
X3433353Y-16625046D01*
X4825267Y-18016959D01*
G74*
D01*
G02X5148745Y-18476529I1155269J1156789*
G01*
G74*
D01*
G02X5300713Y-19057227I1478746J697220*
G01*
X5300713Y-19057227D01*
X5870559Y-18487381D01*
X5870560Y-18487380D01*
X6228500Y-18129440D01*
X6228501Y-18129439D01*
X20116469Y-4241471D01*
G74*
D01*
G02X20947109Y-3795336I1156029J1156028*
G01*
G75*
D01*
G02X21272500Y-3762628I325387J-1602164*
G01*
X21272500Y-3762628D01*
X22931701Y-3762628D01*
G74*
D01*
G02X23010176Y-3707908I1198299J1634872*
G01*
G75*
D01*
G02X21761882Y0I167321J2120408*
G01*
G74*
D01*
G02X21237854Y714628I1415617J1587500*
G01*
X21237854Y714628D01*
X13326848Y714628D01*
G75*
D01*
G02X13064872Y-1198299I-1896848J-714628*
G01*
X13064872Y-1198299D01*
X13064872Y-2540000D01*
G75*
D01*
G02X12584953Y-3697103I-1634872J1*
G01*
X12584953Y-3697103D01*
X5870560Y-10411496D01*
X5870559Y-10411497D01*
X3697103Y-12584953D01*
G74*
D01*
G02X2540000Y-13064872I1157104J1154952*
G01*
X2540000Y-13064872D01*
X1198299Y-13064872D01*
G75*
D01*
G02X-1198299Y-13064872I-1198299J1634871*
G01*
X-1198299Y-13064872D01*
X-2222500Y-13064872D01*
G75*
D01*
G02X-3379603Y-12584953I1J1634872*
G01*
X-3379603Y-12584953D01*
X-12584953Y-3379603D01*
G75*
D01*
G02X-13064872Y-2222500I1154952J1157104*
G01*
X-13064872Y-2222500D01*
X-13064872Y-1198299D01*
G75*
D01*
G02X-13064872Y1198299I1634871J1198299*
G01*
X-13064872Y1198299D01*
X-13064872Y1587500D01*
G74*
D01*
G02X-12586028Y2743529I1634872J1*
G01*
X-12586028Y2743529D01*
X-12586028Y2743529D01*
X-12145919Y3183639D01*
G74*
D01*
G02X-12628298Y3445128I715919J1896361*
G01*
X-12628298Y3445128D01*
X-13651159Y3445128D01*
G75*
D01*
G02X-14198397Y3538960I-1341J1634870*
G01*
G74*
D01*
G02X-14809603Y3925046I545898J1541039*
G01*
D02*
G37*
G36*
X-12628298Y6714872D02*
X-12628298Y6714872D01*
X-12975312Y6714872D01*
X-15036469Y8776028D01*
G74*
D01*
G03X-15970838Y9239775I1156029J1156028*
G01*
G74*
D01*
G03X-16192500Y9254872I221665J1619774*
G01*
X-16192500Y9254872D01*
X-16899200Y9254872D01*
G75*
D01*
G03X-19002628Y9433690I-1198300J-1634872*
G01*
X-19002628Y9433690D01*
X-19002628Y10435312D01*
X-18129440Y11308500D01*
X-18129439Y11308501D01*
X-14941469Y14496471D01*
G75*
D01*
G03X-14462628Y15654440I-1156029J1156028*
G01*
X-14462628Y15654440D01*
X-14462628Y20055312D01*
X-13514219Y21003721D01*
G75*
D01*
G03X-11643464Y21130128I814219J1856278*
G01*
X-11643464Y21130128D01*
X2462547Y21130128D01*
X2462547Y19470000D01*
G75*
D01*
G03X2470114Y19339300I1132453J-5*
G01*
X2470114Y19339300D01*
X3450813Y20320000D01*
X2640685Y21130128D01*
X5241608Y21130128D01*
G75*
D01*
G03X5611096Y18958953I1803392J-810128*
G01*
X5611096Y18958953D01*
X5611096Y18687386D01*
G75*
D01*
G03X6031075Y17671277I1433901J-2186*
G01*
X6031075Y17671277D01*
X6309684Y17392667D01*
G75*
D01*
G03X5611096Y14196453I735314J-1835167*
G01*
X5611096Y14196453D01*
X5611096Y14191597D01*
G75*
D01*
G03X6031075Y13175477I1433901J-2197*
G01*
X6031075Y13175477D01*
X6111599Y13094953D01*
X4865000Y13094953D01*
G75*
D01*
G03X4734300Y13087385I4J-1132453*
G01*
X4734300Y13087385D01*
X5715000Y12106686D01*
X5870560Y12262246D01*
X6407433Y12799119D01*
X6810948Y12395604D01*
G75*
D01*
G03X6881096Y9751453I1504051J-1283104*
G01*
X6881096Y9751453D01*
X6881096Y9746597D01*
G75*
D01*
G03X7301075Y8730477I1433901J-2197*
G01*
X7301075Y8730477D01*
X7331527Y8700025D01*
G74*
D01*
G03X7310268Y8687657I983519J1714998*
G01*
G74*
D01*
G03X6565000Y8967453I745269J852656*
G01*
X6565000Y8967453D01*
X4865000Y8967453D01*
G75*
D01*
G03X3732547Y7835000I0J-1132453*
G01*
X3732547Y7835000D01*
X3732547Y6135000D01*
G75*
D01*
G03X4080128Y5318650I1132453J-1*
G01*
X4080128Y5318650D01*
X4080128Y5122187D01*
X961295Y2003354D01*
G74*
D01*
G03X364872Y1813690I308703J2003354*
G01*
X364872Y1813690D01*
X364872Y3881700D01*
G75*
D01*
G03X-372643Y6897547I-1634872J1198299*
G01*
G75*
D01*
G03X1579819Y10160000I372643J1992452*
G01*
G75*
D01*
G03X-1198299Y13064872I-1579815J1270003*
G01*
X-1198299Y13064872D01*
X-1587500Y13064872D01*
G75*
D01*
G03X-2743529Y12586028I1J-1634872*
G01*
X-2743529Y12586028D01*
X-2743529Y12586028D01*
X-9458997Y5870560D01*
X-9458998Y5870559D01*
X-9533639Y5795919D01*
G75*
D01*
G03X-12628298Y6714872I-1896361J-715919*
G01*
D02*
G37*
%LPC*%
G36*
X4865000Y9130047D02*
X4865000Y9130047D01*
X6565000Y9130047D01*
G74*
D01*
G03X6695699Y9137614I4J1132453*
G01*
X6695699Y9137614D01*
X5870559Y9962753D01*
X5715000Y10118313D01*
X4734300Y9137614D01*
G75*
D01*
G03X4865000Y9130047I130695J1124886*
G01*
D02*
G37*
G36*
X5870560Y10798970D02*
G75*
D01*
G03X5870560Y10798970I-155560J313530*
G01*
D02*
G37*
G36*
X5425699Y18345114D02*
X5425699Y18345114D01*
X4445000Y19325813D01*
X3464300Y18345114D01*
G75*
D01*
G03X3595000Y18337547I130695J1124886*
G01*
X3595000Y18337547D01*
X5295000Y18337547D01*
G74*
D01*
G03X5425699Y18345114I4J1132453*
G01*
D02*
G37*
G36*
X4095000Y20320000D02*
G75*
D01*
G03X4095000Y20320000I350000J0*
G01*
D02*
G37*
G36*
X5425699Y13582614D02*
X5425699Y13582614D01*
X4445000Y14563313D01*
X3464300Y13582614D01*
G75*
D01*
G03X3595000Y13575047I130695J1124886*
G01*
X3595000Y13575047D01*
X5295000Y13575047D01*
G74*
D01*
G03X5425699Y13582614I4J1132453*
G01*
D02*
G37*
G36*
X5425699Y17532385D02*
G74*
D01*
G03X5295000Y17539953I130704J1124884*
G01*
X5295000Y17539953D01*
X3595000Y17539953D01*
G75*
D01*
G03X3464300Y17532385I4J-1132453*
G01*
X3464300Y17532385D01*
X4445000Y16551686D01*
X5425699Y17532385D01*
D02*
G37*
G36*
X4095000Y15557500D02*
G75*
D01*
G03X4095000Y15557500I350000J0*
G01*
D02*
G37*
G36*
X2470114Y16538199D02*
G74*
D01*
G03X2462547Y16407500I1124886J130695*
G01*
X2462547Y16407500D01*
X2462547Y14707500D01*
G75*
D01*
G03X2470114Y14576800I1132453J-5*
G01*
X2470114Y14576800D01*
X3450813Y15557500D01*
X2470114Y16538199D01*
D02*
G37*
G36*
X3740114Y12093199D02*
G74*
D01*
G03X3732547Y11962500I1124886J130695*
G01*
X3732547Y11962500D01*
X3732547Y10262500D01*
G75*
D01*
G03X3740114Y10131800I1132453J-5*
G01*
X3740114Y10131800D01*
X4720813Y11112500D01*
X3740114Y12093199D01*
D02*
G37*
%LPD*%
G36*
X3273355Y-308701D02*
X3273355Y-308701D01*
X6869953Y3287896D01*
G75*
D01*
G03X7349872Y4445000I-1154952J1157104*
G01*
X7349872Y4445000D01*
X7349872Y4592280D01*
X8193575Y3748576D01*
G74*
D01*
G03X8721433Y3413492I1013923J1013924*
G01*
X8721433Y3413492D01*
X7733970Y2426029D01*
G75*
D01*
G03X7255128Y1268780I1156029J-1156028*
G01*
X7255128Y1268780D01*
X7255128Y1198299D01*
G75*
D01*
G03X6948371Y-582070I1634871J-1198299*
G01*
X6948371Y-582070D01*
X5870560Y-1659881D01*
X5870559Y-1659882D01*
X582070Y-6948371D01*
G75*
D01*
G03X-582070Y-6948371I-582070J-1941628*
G01*
X-582070Y-6948371D01*
X-6948371Y-582070D01*
G75*
D01*
G03X-6948371Y582070I-1941628J582070*
G01*
X-6948371Y582070D01*
X-3166361Y4364080D01*
G74*
D01*
G03X-2904872Y3881700I1896362J715917*
G01*
X-2904872Y3881700D01*
X-2904872Y1198299D01*
G75*
D01*
G03X0Y-1579819I1634869J-1198303*
G01*
G75*
D01*
G03X3273355Y-308701I1270000J1579818*
G01*
D02*
G37*
G36*
X-19944209Y-23648596D02*
X-19944209Y-23648596D01*
X-23331096Y-20261709D01*
X-23331096Y-22266056D01*
X-21948556Y-23648596D01*
X-19944209Y-23648596D01*
D02*
G37*
G36*
X15274954Y13922628D02*
X15274954Y13922628D01*
X15531053Y13922628D01*
G75*
D01*
G03X15929337Y13971622I1046J1634871*
G01*
G74*
D01*
G03X16689203Y14402546I397237J1585877*
G01*
X16689203Y14402546D01*
X17935828Y15649170D01*
X17935828Y15548887D01*
X15322191Y12935250D01*
G75*
D01*
G03X15274954Y13922628I-1987190J399750*
G01*
D02*
G37*
G36*
X14004954Y17192372D02*
G75*
D01*
G03X14021334Y18310552I-1939953J587628*
G01*
G75*
D01*
G03X15510128Y18703242I266166J2009448*
G01*
X15510128Y18703242D01*
X15510128Y17847587D01*
X14854912Y17192372D01*
X14004954Y17192372D01*
D02*
G37*
G36*
X5911444Y-30723899D02*
G75*
D01*
G03X5868596Y-31073218I1391055J-347916*
G01*
X5868596Y-31073218D01*
X5868596Y-32426056D01*
X5774423Y-32520229D01*
G74*
D01*
G03X5243904Y-31587293I1964422J499770*
G01*
X5243904Y-31587293D01*
X5243904Y-31391440D01*
X5870559Y-30764784D01*
X5870560Y-30764784D01*
X5911444Y-30723899D01*
D02*
G37*
G36*
X-26198904Y-22255748D02*
X-26198904Y-22255748D01*
X-26198904Y-21732279D01*
X-26502093Y-21952559D01*
X-26198904Y-22255748D01*
D02*
G37*
G36*
X12882411Y6790520D02*
G75*
D01*
G03X12882411Y7179479I-1967410J194480*
G01*
G74*
D01*
G03X13277393Y6985000I1087586J1710522*
G01*
G74*
D01*
G03X12882411Y6790520I692608J1905000*
G01*
D02*
G37*
G36*
X-104836Y-34697316D02*
X-104836Y-34697316D01*
X-153596Y-34648557D01*
X-153596Y-34462949D01*
G74*
D01*
G03X-153414Y-34463128I1421436J1445076*
G01*
G74*
D01*
G03X-104836Y-34697316I1423413J173129*
G01*
D02*
G37*
G54D11*
X-16079603Y29094953D02*
X-18129439Y27045117D01*
X-18129440Y27045116D01*
X-21180158Y23994398D01*
G74*
D01*
G03X-21280180Y24130000I1679847J1134390*
G01*
G75*
D01*
G03X-21280180Y26670000I-1579819J1270000*
G01*
G75*
D01*
G03X-24298425Y29368167I-1579819J1270001*
G01*
G74*
D01*
G03X-24331276Y29364838I128131J1428167*
G01*
G74*
D01*
G03X-25185219Y28952915I160987J1424837*
G01*
X-28847145Y25290989D01*
G74*
D01*
G03X-29268134Y24276060I1012913J1014930*
G01*
X-29268134Y21068979D01*
X-29792312Y20347509D01*
G75*
D01*
G03X-29541777Y18765697I916173J-665639*
G01*
X-28692309Y18148522D01*
G74*
D01*
G03X-28600169Y18088198I665637J916176*
G01*
G74*
D01*
G03X-28514325Y18019210I751480J847188*
G01*
X-27664857Y17402035D01*
G74*
D01*
G03X-27572717Y17341711I665637J916176*
G01*
G74*
D01*
G03X-27486873Y17272723I751480J847188*
G01*
X-26637405Y16655548D01*
G74*
D01*
G03X-26545265Y16595224I665637J916176*
G01*
G74*
D01*
G03X-26459421Y16526236I751480J847188*
G01*
X-25609953Y15909061D01*
G74*
D01*
G03X-25516555Y15848000I665631J916179*
G01*
X-27260204Y14104351D01*
G75*
D01*
G03X-27352372Y11890678I1155204J-1156853*
G01*
X-27352372Y-12382500D01*
G75*
D01*
G03X-26872453Y-13539603I1634872J1*
G01*
X-24690454Y-15721603D01*
G75*
D01*
G03X-25609952Y-15909061I-253860J-1103632*
G01*
X-26459420Y-16526236D01*
G74*
D01*
G03X-26545264Y-16595224I665636J916176*
G01*
G74*
D01*
G03X-26637404Y-16655548I573496J976499*
G01*
X-27486872Y-17272723D01*
G74*
D01*
G03X-27572716Y-17341711I665636J916176*
G01*
G74*
D01*
G03X-27664856Y-17402035I573496J976499*
G01*
X-28514324Y-18019210D01*
G74*
D01*
G03X-28600168Y-18088198I665636J916176*
G01*
G74*
D01*
G03X-28692308Y-18148522I573496J976499*
G01*
X-29541776Y-18765697D01*
G75*
D01*
G03X-29792311Y-20347509I665639J-916174*
G01*
X-29373565Y-20923863D01*
G74*
D01*
G03X-29373904Y-20955000I1433564J31178*
G01*
X-29373904Y-22542500D01*
G75*
D01*
G03X-28952915Y-23557429I1433904J1*
G01*
X-24192429Y-28317915D01*
G74*
D01*
G03X-23713459Y-28634972I1014928J1012914*
G01*
G75*
D01*
G03X-23176107Y-28738904I535963J1329970*
G01*
X-22387706Y-28738904D01*
G75*
D01*
G03X-19526250Y-28742846I1432706J1433903*
G01*
G75*
D01*
G03X-16668750Y-28742846I1428750J1437845*
G01*
G75*
D01*
G03X-13918786Y-25767754I1428727J1437868*
G01*
G74*
D01*
G03X-14226075Y-25311037I1321211J557206*
G01*
X-15042240Y-24494872D01*
X-2785798Y-24494872D01*
G74*
D01*
G03X-2566318Y-24635003I1198291J1634876*
G01*
G74*
D01*
G03X-2364872Y-24925510I1436320J780888*
G01*
X-2364872Y-25275927D01*
G75*
D01*
G03X-1886029Y-26431956I1634872J0*
G01*
X-1886028Y-26431956D01*
X111042Y-28429027D01*
X111043Y-28429028D01*
G75*
D01*
G03X1267073Y-28907872I1156030J1156027*
G01*
X3671779Y-28907872D01*
X2796075Y-29783576D01*
G75*
D01*
G03X2376096Y-30799499I1013923J-1013922*
G01*
X2376096Y-31321388D01*
G75*
D01*
G03X-158750Y-31582153I-1106096J-1698611*
G01*
G75*
D01*
G03X-3021404Y-34452706I-1428736J-1437860*
G01*
X-3021404Y-35242500D01*
G75*
D01*
G03X-2601423Y-36256423I1433904J0*
G01*
X-950423Y-37907423D01*
G75*
D01*
G03X63500Y-38327404I1013923J1013922*
G01*
X6437620Y-38327404D01*
G74*
D01*
G03X7452549Y-37906415I1J1433904*
G01*
X11024438Y-34334525D01*
X12088732Y-34009137D01*
G75*
D01*
G03X12840605Y-32595070I-331096J1082969*
G01*
X12533615Y-31590950D01*
G74*
D01*
G03X12496333Y-31487322I1082970J331097*
G01*
G74*
D01*
G03X12469293Y-31380563I1110009J224340*
G01*
X12162303Y-30376443D01*
G74*
D01*
G03X12125021Y-30272815I1082970J331097*
G01*
G74*
D01*
G03X12097981Y-30166056I1110009J224340*
G01*
X11790991Y-29161936D01*
G74*
D01*
G03X11753709Y-29058308I1082970J331097*
G01*
G74*
D01*
G03X11726669Y-28951549I1110009J224340*
G01*
X11419679Y-27947429D01*
G75*
D01*
G03X10005611Y-27195556I-1082970J-331097*
G01*
X9599989Y-27319567D01*
X24438703Y-12480854D01*
G75*
D01*
G03X25709818Y-9207500I-308701J2003353*
G01*
G75*
D01*
G03X25709818Y-6667500I-1579817J1270000*
G01*
G75*
D01*
G03X24322977Y-3379708I-1579816J1270001*
G01*
G75*
D01*
G03X24593117Y0I-1145476J1792208*
G01*
G75*
D01*
G03X24651264Y3121171I-1415616J1587500*
G01*
G75*
D01*
G03X24822603Y6985000I-521264J1958829*
G01*
G75*
D01*
G03X23437396Y6985000I-692603J1904999*
G01*
G75*
D01*
G03X22424619Y3984372I692604J-1905000*
G01*
X15675382Y3984372D01*
G75*
D01*
G03X14662606Y6985000I-1705381J1095628*
G01*
G75*
D01*
G03X15909069Y9480542I-692605J1905000*
G01*
G74*
D01*
G03X16968603Y9957546I97569J1631958*
G01*
X20725653Y13714596D01*
G75*
D01*
G03X21205572Y14871700I-1154952J1157104*
G01*
X21205572Y16028003D01*
G75*
D01*
G03X21958833Y19789447I1019428J1751996*
G01*
G75*
D01*
G03X21179871Y21970006I-1956333J530552*
G01*
X21179871Y23882501D01*
G74*
D01*
G03X20699508Y25040047I1634872J1*
G01*
X17810090Y27929475D01*
G74*
D01*
G03X16652540Y28409842I1157551J1154504*
G01*
X15197687Y28409842D01*
X15300415Y28512570D01*
G74*
D01*
G03X15589257Y28926244I1012914J1014930*
G01*
G74*
D01*
G03X15716250Y29042153I1301753J1553758*
G01*
G75*
D01*
G03X18573750Y29042153I1428750J1437846*
G01*
G75*
D01*
G03X20803189Y32342156I1428750J1437847*
G01*
X17842429Y35302915D01*
G74*
D01*
G03X17367787Y35618220I1014929J1012914*
G01*
G75*
D01*
G03X16826096Y35723904I-540291J-1328218*
G01*
X12200629Y35723904D01*
G75*
D01*
G03X11703571Y35634996I0J-1433904*
G01*
G74*
D01*
G03X11186704Y35303922I497057J1344996*
G01*
X10416547Y34533765D01*
X10145299Y34621899D01*
G75*
D01*
G03X8718326Y33894818I-349947J-1077026*
G01*
X8393858Y32896209D01*
G74*
D01*
G03X8364959Y32789938I1077027J349948*
G01*
G74*
D01*
G03X8325875Y32686976I1037946J452900*
G01*
X8001407Y31688367D01*
G74*
D01*
G03X7972508Y31582096I1077027J349948*
G01*
G74*
D01*
G03X7933424Y31479134I1037946J452900*
G01*
X7608956Y30480525D01*
G74*
D01*
G03X7580057Y30374254I1077027J349948*
G01*
G74*
D01*
G03X7540973Y30271292I1037946J452900*
G01*
X7410767Y29870560D01*
X7410767Y29870559D01*
X7216505Y29272683D01*
G75*
D01*
G03X7283884Y28409842I1077027J-349947*
G01*
X6922215Y28409842D01*
X6237103Y29094953D01*
G74*
D01*
G03X5423232Y29538436I1157104J1154952*
G01*
G75*
D01*
G03X5079053Y29574872I-343234J-1598436*
G01*
X-11501701Y29574872D01*
G75*
D01*
G03X-13898298Y29574872I-1198299J-1634872*
G01*
X-14922500Y29574872D01*
G75*
D01*
G03X-16079603Y29094953I1J-1634872*
G01*
X-27425601Y5771576D02*
X-27524585Y5870559D01*
X-27524585Y5870560D01*
X-28257500Y6603474D01*
X-28990414Y5870560D01*
X-28990414Y5870559D01*
X-29089398Y5771576D01*
G75*
D01*
G03X-27425601Y5771576I831898J1848424*
G01*
X-30361338Y5700000D02*
G74*
D01*
G03X-31745000Y7083662I1383662J0*
G01*
X-36245000Y7083662D01*
G75*
D01*
G03X-37628662Y5700000I0J-1383662*
G01*
X-37628662Y3700000D01*
G75*
D01*
G03X-37626445Y3621713I1383662J9*
G01*
G74*
D01*
G03X-38828662Y2250000I181444J1371713*
G01*
X-38828662Y-2249999D01*
G75*
D01*
G03X-37445000Y-3633662I1383662J-1*
G01*
X-35445000Y-3633662D01*
G75*
D01*
G03X-34061338Y-2250000I0J1383662*
G01*
X-34061338Y2249999D01*
G75*
D01*
G03X-34062929Y2316338I-1383662J4*
G01*
X-32227070Y2316338D01*
G74*
D01*
G03X-32228662Y2250000I1382069J66355*
G01*
X-32228662Y845270D01*
X-30690270Y845270D01*
X-30690270Y2804419D01*
G75*
D01*
G03X-30361338Y3700000I-1054730J895581*
G01*
X-30361338Y5700000D01*
X32064571Y20071092D02*
G75*
D01*
G03X29845548Y20707383I-1427657J-791366*
G01*
X29141407Y20317071D01*
G74*
D01*
G03X28427599Y19521012I791366J1427657*
G01*
G75*
D01*
G03X27492437Y15624401I-169137J-2019930*
G01*
G75*
D01*
G03X28723856Y13402868I1997450J-344853*
G01*
G75*
D01*
G03X32597985Y12291985I1997450J-344851*
G01*
G75*
D01*
G03X33708868Y16166114I344851J1997450*
G01*
G75*
D01*
G03X32638383Y18313595I-1997449J344854*
G01*
G75*
D01*
G03X32454883Y19366951I-1611157J261990*
G01*
X32064571Y20071092D01*
X29870560Y-20089834D02*
G75*
D01*
G03X29870560Y-20089834I440329J2589833*
G01*
X-8704686Y34468272D02*
G75*
D01*
G03X-8704686Y34468272I2627000J0*
G01*
X-35647000Y-9525000D02*
G75*
D01*
G03X-35647000Y-9525000I2627000J0*
G01*
X-32228662Y-2249999D02*
G75*
D01*
G03X-30845000Y-3633662I1383662J-1*
G01*
X-30690270Y-3633662D01*
X-30690270Y-845270D01*
X-32228662Y-845270D01*
X-32228662Y-2249999D01*
X-28845000Y-3633662D02*
G75*
D01*
G03X-27461338Y-2250000I0J1383662*
G01*
X-27461338Y-845270D01*
X-28999730Y-845270D01*
X-28999730Y-3633662D01*
X-28845000Y-3633662D01*
X-29595000Y1751209D02*
X-30095000Y1751209D01*
G75*
D01*
G03X-30346209Y1500000I0J-251209*
G01*
X-30346209Y-1500000D01*
G75*
D01*
G03X-30095000Y-1751209I251209J0*
G01*
X-29595000Y-1751209D01*
G75*
D01*
G03X-29343791Y-1500000I0J251209*
G01*
X-29343791Y1500000D01*
G74*
D01*
G03X-29595000Y1751209I251209J0*
G01*
X-28845000Y3633662D02*
X-28999730Y3633662D01*
X-28999730Y845270D01*
X-27461338Y845270D01*
X-27461338Y2249999D01*
G75*
D01*
G03X-28845000Y3633662I-1383662J1*
G01*
X21468001Y13335000D02*
G75*
D01*
G03X21468001Y13335000I2026999J0*
G01*
X-30105923Y8451898D02*
G75*
D01*
G03X-30105923Y6788101I1848423J-831898*
G01*
X-29274025Y7620000D01*
X-30105923Y8451898D01*
X-28707500Y7620000D02*
G75*
D01*
G03X-28707500Y7620000I450000J0*
G01*
X-29089398Y9468423D02*
X-28257500Y8636525D01*
X-27425601Y9468423D01*
G75*
D01*
G03X-29089398Y9468423I-831899J-1848423*
G01*
X38772463Y-9292882D02*
G75*
D01*
G02X39723554Y-3420636I-38772463J9292878*
G01*
G74*
D01*
G03X39430415Y-2997570I1306053J591864*
G01*
X36062453Y370392D01*
X36062453Y1049999D01*
G75*
D01*
G03X34930000Y2182453I-1132453J1*
G01*
X33880000Y2182453D01*
G75*
D01*
G03X33770000Y2177097I10J-1132453*
G01*
G74*
D01*
G03X33660000Y2182453I110010J1127096*
G01*
X32610000Y2182453D01*
G75*
D01*
G03X32500000Y2177097I10J-1132453*
G01*
G74*
D01*
G03X32390000Y2182453I110010J1127096*
G01*
X31340000Y2182453D01*
G75*
D01*
G03X31230000Y2177097I10J-1132453*
G01*
G74*
D01*
G03X31120000Y2182453I110010J1127096*
G01*
X30070000Y2182453D01*
G75*
D01*
G03X28937547Y1050000I0J-1132453*
G01*
X28937547Y212205D01*
G75*
D01*
G03X28831066Y-330970I1327421J-542245*
G01*
X28831066Y-3275546D01*
G75*
D01*
G03X29251045Y-4291392I1433902J-1924*
G01*
X31371075Y-6411422D01*
G74*
D01*
G03X31980371Y-6773129I1013923J1013922*
G01*
G75*
D01*
G03X32385000Y-6831404I404630J1375628*
G01*
X32591388Y-6831404D01*
G75*
D01*
G03X32710180Y-9207500I1698611J-1106096*
G01*
G75*
D01*
G03X35733129Y-11900913I1579821J-1269998*
G01*
G74*
D01*
G03X36574929Y-11490415I173129J1423413*
G01*
X38772463Y-9292882D01*
X-104836Y-34697316D02*
X-153596Y-34648557D01*
X-153596Y-34462949D01*
G74*
D01*
G03X-153414Y-34463128I1421436J1445076*
G01*
G74*
D01*
G03X-104836Y-34697316I1423413J173129*
G01*
X5911444Y-30723899D02*
G75*
D01*
G03X5868596Y-31073218I1391055J-347916*
G01*
X5868596Y-32426056D01*
X5774423Y-32520229D01*
G74*
D01*
G03X5243904Y-31587293I1964422J499770*
G01*
X5243904Y-31391440D01*
X5870559Y-30764784D01*
X5870560Y-30764784D01*
X5911444Y-30723899D01*
X-19944209Y-23648596D02*
X-23331096Y-20261709D01*
X-23331096Y-22266056D01*
X-21948556Y-23648596D01*
X-19944209Y-23648596D01*
X-26198904Y-22255748D02*
X-26198904Y-21732279D01*
X-26502093Y-21952559D01*
X-26198904Y-22255748D01*
X-14809603Y3925046D02*
X-16755117Y5870560D01*
X-16869685Y5985128D01*
X-16899200Y5985128D01*
G75*
D01*
G02X-19002628Y5806309I-1198301J1634872*
G01*
X-19002628Y-9482812D01*
X-18129440Y-10356000D01*
X-14401470Y-14083970D01*
G75*
D01*
G02X-13922628Y-15241493I-1156028J-1156028*
G01*
X-13922628Y-15570908D01*
G74*
D01*
G02X-13863403Y-15657146I1317365J968172*
G01*
G74*
D01*
G02X-13476769Y-16145128I1376597J1487853*
G01*
X2274786Y-16145128D01*
G75*
D01*
G02X2876998Y-16259504I1462J-1634870*
G01*
G74*
D01*
G02X3433353Y-16625046I600748J1520495*
G01*
X4825267Y-18016959D01*
G74*
D01*
G02X5148745Y-18476529I1155269J1156789*
G01*
G74*
D01*
G02X5300713Y-19057227I1478746J697220*
G01*
X5870559Y-18487381D01*
X5870560Y-18487380D01*
X6228500Y-18129440D01*
X6228501Y-18129439D01*
X20116469Y-4241471D01*
G74*
D01*
G02X20947109Y-3795336I1156029J1156028*
G01*
G75*
D01*
G02X21272500Y-3762628I325387J-1602164*
G01*
X22931701Y-3762628D01*
G74*
D01*
G02X23010176Y-3707908I1198299J1634872*
G01*
G75*
D01*
G02X21761882Y0I167321J2120408*
G01*
G74*
D01*
G02X21237854Y714628I1415617J1587500*
G01*
X13326848Y714628D01*
G75*
D01*
G02X13064872Y-1198299I-1896848J-714628*
G01*
X13064872Y-2540000D01*
G75*
D01*
G02X12584953Y-3697103I-1634872J1*
G01*
X5870560Y-10411496D01*
X5870559Y-10411497D01*
X3697103Y-12584953D01*
G74*
D01*
G02X2540000Y-13064872I1157104J1154952*
G01*
X1198299Y-13064872D01*
G75*
D01*
G02X-1198299Y-13064872I-1198299J1634871*
G01*
X-2222500Y-13064872D01*
G75*
D01*
G02X-3379603Y-12584953I1J1634872*
G01*
X-12584953Y-3379603D01*
G75*
D01*
G02X-13064872Y-2222500I1154952J1157104*
G01*
X-13064872Y-1198299D01*
G75*
D01*
G02X-13064872Y1198299I1634871J1198299*
G01*
X-13064872Y1587500D01*
G74*
D01*
G02X-12586028Y2743529I1634872J1*
G01*
X-12145919Y3183639D01*
G74*
D01*
G02X-12628298Y3445128I715919J1896361*
G01*
X-13651159Y3445128D01*
G75*
D01*
G02X-14198397Y3538960I-1341J1634870*
G01*
G74*
D01*
G02X-14809603Y3925046I545898J1541039*
G01*
X3273355Y-308701D02*
X6869953Y3287896D01*
G75*
D01*
G03X7349872Y4445000I-1154952J1157104*
G01*
X7349872Y4592280D01*
X8193575Y3748576D01*
G74*
D01*
G03X8721433Y3413492I1013923J1013924*
G01*
X7733970Y2426029D01*
G75*
D01*
G03X7255128Y1268780I1156029J-1156028*
G01*
X7255128Y1198299D01*
G75*
D01*
G03X6948371Y-582070I1634871J-1198299*
G01*
X5870560Y-1659881D01*
X5870559Y-1659882D01*
X582070Y-6948371D01*
G75*
D01*
G03X-582070Y-6948371I-582070J-1941628*
G01*
X-6948371Y-582070D01*
G75*
D01*
G03X-6948371Y582070I-1941628J582070*
G01*
X-3166361Y4364080D01*
G74*
D01*
G03X-2904872Y3881700I1896362J715917*
G01*
X-2904872Y1198299D01*
G75*
D01*
G03X0Y-1579819I1634869J-1198303*
G01*
G75*
D01*
G03X3273355Y-308701I1270000J1579818*
G01*
X4865000Y9130047D02*
X6565000Y9130047D01*
G74*
D01*
G03X6695699Y9137614I4J1132453*
G01*
X5870559Y9962753D01*
X5715000Y10118313D01*
X4734300Y9137614D01*
G75*
D01*
G03X4865000Y9130047I130695J1124886*
G01*
X5870560Y10798970D02*
G75*
D01*
G03X5870560Y10798970I-155560J313530*
G01*
X5425699Y18345114D02*
X4445000Y19325813D01*
X3464300Y18345114D01*
G75*
D01*
G03X3595000Y18337547I130695J1124886*
G01*
X5295000Y18337547D01*
G74*
D01*
G03X5425699Y18345114I4J1132453*
G01*
X4095000Y20320000D02*
G75*
D01*
G03X4095000Y20320000I350000J0*
G01*
X5425699Y13582614D02*
X4445000Y14563313D01*
X3464300Y13582614D01*
G75*
D01*
G03X3595000Y13575047I130695J1124886*
G01*
X5295000Y13575047D01*
G74*
D01*
G03X5425699Y13582614I4J1132453*
G01*
X5425699Y17532385D02*
G74*
D01*
G03X5295000Y17539953I130704J1124884*
G01*
X3595000Y17539953D01*
G75*
D01*
G03X3464300Y17532385I4J-1132453*
G01*
X4445000Y16551686D01*
X5425699Y17532385D01*
X4095000Y15557500D02*
G75*
D01*
G03X4095000Y15557500I350000J0*
G01*
X2470114Y16538199D02*
G74*
D01*
G03X2462547Y16407500I1124886J130695*
G01*
X2462547Y14707500D01*
G75*
D01*
G03X2470114Y14576800I1132453J-5*
G01*
X3450813Y15557500D01*
X2470114Y16538199D01*
X3740114Y12093199D02*
G74*
D01*
G03X3732547Y11962500I1124886J130695*
G01*
X3732547Y10262500D01*
G75*
D01*
G03X3740114Y10131800I1132453J-5*
G01*
X4720813Y11112500D01*
X3740114Y12093199D01*
X-12628298Y6714872D02*
X-12975312Y6714872D01*
X-15036469Y8776028D01*
G74*
D01*
G03X-15970838Y9239775I1156029J1156028*
G01*
G74*
D01*
G03X-16192500Y9254872I221665J1619774*
G01*
X-16899200Y9254872D01*
G75*
D01*
G03X-19002628Y9433690I-1198300J-1634872*
G01*
X-19002628Y10435312D01*
X-18129440Y11308500D01*
X-18129439Y11308501D01*
X-14941469Y14496471D01*
G75*
D01*
G03X-14462628Y15654440I-1156029J1156028*
G01*
X-14462628Y20055312D01*
X-13514219Y21003721D01*
G75*
D01*
G03X-11643464Y21130128I814219J1856278*
G01*
X2462547Y21130128D01*
X2462547Y19470000D01*
G75*
D01*
G03X2470114Y19339300I1132453J-5*
G01*
X3450813Y20320000D01*
X2640685Y21130128D01*
X5241608Y21130128D01*
G75*
D01*
G03X5611096Y18958953I1803392J-810128*
G01*
X5611096Y18687386D01*
G75*
D01*
G03X6031075Y17671277I1433901J-2186*
G01*
X6309684Y17392667D01*
G75*
D01*
G03X5611096Y14196453I735314J-1835167*
G01*
X5611096Y14191597D01*
G75*
D01*
G03X6031075Y13175477I1433901J-2197*
G01*
X6111599Y13094953D01*
X4865000Y13094953D01*
G75*
D01*
G03X4734300Y13087385I4J-1132453*
G01*
X5715000Y12106686D01*
X5870560Y12262246D01*
X6407433Y12799119D01*
X6810948Y12395604D01*
G75*
D01*
G03X6881096Y9751453I1504051J-1283104*
G01*
X6881096Y9746597D01*
G75*
D01*
G03X7301075Y8730477I1433901J-2197*
G01*
X7331527Y8700025D01*
G74*
D01*
G03X7310268Y8687657I983519J1714998*
G01*
G74*
D01*
G03X6565000Y8967453I745269J852656*
G01*
X4865000Y8967453D01*
G75*
D01*
G03X3732547Y7835000I0J-1132453*
G01*
X3732547Y6135000D01*
G75*
D01*
G03X4080128Y5318650I1132453J-1*
G01*
X4080128Y5122187D01*
X961295Y2003354D01*
G74*
D01*
G03X364872Y1813690I308703J2003354*
G01*
X364872Y3881700D01*
G75*
D01*
G03X-372643Y6897547I-1634872J1198299*
G01*
G75*
D01*
G03X1579819Y10160000I372643J1992452*
G01*
G75*
D01*
G03X-1198299Y13064872I-1579815J1270003*
G01*
X-1587500Y13064872D01*
G75*
D01*
G03X-2743529Y12586028I1J-1634872*
G01*
X-9458997Y5870560D01*
X-9458998Y5870559D01*
X-9533639Y5795919D01*
G75*
D01*
G03X-12628298Y6714872I-1896361J-715919*
G01*
X12882411Y6790520D02*
G75*
D01*
G03X12882411Y7179479I-1967410J194480*
G01*
G74*
D01*
G03X13277393Y6985000I1087586J1710522*
G01*
G74*
D01*
G03X12882411Y6790520I692608J1905000*
G01*
X15274954Y13922628D02*
X15531053Y13922628D01*
G75*
D01*
G03X15929337Y13971622I1046J1634871*
G01*
G74*
D01*
G03X16689203Y14402546I397237J1585877*
G01*
X17935828Y15649170D01*
X17935828Y15548887D01*
X15322191Y12935250D01*
G75*
D01*
G03X15274954Y13922628I-1987190J399750*
G01*
X14004954Y17192372D02*
G75*
D01*
G03X14021334Y18310552I-1939953J587628*
G01*
G75*
D01*
G03X15510128Y18703242I266166J2009448*
G01*
X15510128Y17847587D01*
X14854912Y17192372D01*
X14004954Y17192372D01*
G54D12*
X1270000Y-24447500D02*
X2095500Y-25273000D01*
X-1587500Y-22860000D02*
X-1129999Y-23317501D01*
X-1129999Y-23854112D01*
X-730000Y-24254111D01*
X-730000Y-25275927D01*
X1267073Y-27273000D01*
X5524500Y-25273000D02*
X22860000Y-7937500D01*
X24130000Y-7937500D01*
X2095500Y-25273000D02*
X5524500Y-25273000D01*
X7334500Y-27273000D02*
X24130000Y-10477500D01*
X1267073Y-27273000D02*
X7334500Y-27273000D01*
X13112500Y22765000D02*
X14287500Y21590000D01*
X14287500Y20320000D02*
X14287500Y21590000D01*
X17145000Y22542501D02*
X14922500Y24765000D01*
X20002500Y20320000D02*
X19544999Y20777501D01*
X1270000Y-24447500D02*
X1270000Y-21272500D01*
X-15417500Y-20460000D02*
X-18097500Y-17780000D01*
X-18097500Y-17145000D02*
X-18097500Y-17780000D01*
X-593388Y-20460001D02*
X-15417500Y-20460000D01*
X-26105001Y12947499D02*
X-25717500Y12559998D01*
X-25717500Y-12382500D02*
X-25717500Y12559998D01*
X-25717500Y-12382500D02*
X-20955000Y-17145000D01*
X-23495000Y11747500D02*
X-23495000Y-11112500D01*
X-18097500Y-17144999D02*
X-18097500Y-16510000D01*
X-15240000Y-16539070D02*
X-15240000Y-17145000D01*
X-18097500Y-16510000D02*
X-23495000Y-11112500D01*
X-20637500Y11112500D02*
X-20637500Y-10160000D01*
X-15557500Y-15240000D01*
X-15557500Y-16827500D01*
X-16192500Y7620000D02*
X-18097500Y7620000D01*
X-29845000Y0D02*
X-29845000Y9207500D01*
X-28575000Y10477500D01*
X952500Y-8890000D02*
X8890000Y-952500D01*
X-8890000Y-952500D02*
X-952500Y-8890000D01*
X952500Y-8890000D02*
X-952500Y-8890000D01*
X-8890000Y952500D02*
X-952500Y8890000D01*
X-8890000Y-952500D02*
X-8890000Y952500D01*
X-952500Y8890000D02*
X0Y8890000D01*
X11430000Y-2540000D02*
X11430000Y0D01*
X-11430000Y-2222500D02*
X-2222500Y-11430000D01*
X-1270000Y5080000D02*
X-1270000Y0D01*
X-11430000Y5080000D02*
X-13652500Y5080000D01*
X-16192500Y7620000D01*
X21272500Y-5397500D02*
X4445000Y-22225000D01*
X24130000Y-5397500D02*
X21272500Y-5397500D01*
X4445000Y-22225000D02*
X3810000Y-22225000D01*
X-14287500Y-17780000D02*
X-14922500Y-17145000D01*
X1270000Y-21272500D02*
X457501Y-20460001D01*
X-593388Y-20460001D01*
X3670000Y-19173750D02*
X2276250Y-17780000D01*
X3669999Y-22719999D02*
X3670000Y-19173750D01*
X2276250Y-17780000D02*
X-14287500Y-17780000D01*
X5715000Y6985000D02*
X5715000Y4445000D01*
X1270000Y0D01*
X-1587500Y11430000D02*
X-11430000Y1587500D01*
X-11430000Y-2222500D01*
X0Y11430000D02*
X-1587500Y11430000D01*
X1675600Y22765000D02*
X13112500Y22765000D01*
X5080000Y24765000D02*
X4445000Y25400000D01*
X5080000Y24765000D02*
X14762056Y24765000D01*
X-16097500Y15652500D02*
X-20637500Y11112500D01*
X-18097500Y17145000D02*
X-23495000Y11747500D01*
X-20415000Y18637500D02*
X-26105001Y12947499D01*
X-14287500Y25400000D02*
X-18097500Y21590000D01*
X-14287500Y25400000D02*
X4445000Y25400000D01*
X-18097500Y21590000D02*
X-18097500Y17145000D01*
X-14065000Y22765000D02*
X-16097500Y20732500D01*
X-16097500Y15652500D01*
X-14065000Y22765000D02*
X1675600Y22765000D01*
X-20415000Y22447500D02*
X-14922500Y27940000D01*
X-20415000Y18637500D02*
X-20415000Y22447500D01*
X-16159370Y-22860000D02*
X-20955000Y-18064370D01*
X-1587500Y-22860000D02*
X-16159370Y-22860000D01*
X-20955000Y-18064370D02*
X-20955000Y-17145000D01*
X2540000Y-11430000D02*
X11430000Y-2540000D01*
X-2222500Y-11430000D02*
X2540000Y-11430000D01*
X19519900Y19837400D02*
X20002500Y20320000D01*
X17145000Y17170400D02*
X17145000Y22542501D01*
X17145000Y17170400D02*
X15532100Y15557500D01*
X9645000Y15557500D01*
X15811500Y11112500D02*
X19570700Y14871700D01*
X10915000Y11112500D02*
X15811500Y11112500D01*
X19570700Y14871700D02*
X19570700Y19888200D01*
X8890000Y-952500D02*
X8890000Y1270000D01*
X9969500Y2349500D01*
X23050500Y2349500D02*
X23177500Y2222500D01*
X9969500Y2349500D02*
X23050500Y2349500D01*
X6245030Y26774970D02*
X16652540Y26774970D01*
X-14922500Y27940000D02*
X5080000Y27940000D01*
X6245030Y26774970D02*
X5080000Y27940000D01*
X19544999Y23882501D02*
X16652540Y26774970D01*
X19544999Y20777501D02*
X19544999Y23882501D01*
X14287500Y20320000D02*
X9645000Y20320000D01*
G54D13*
X8255000Y5715000D02*
X8255000Y6985000D01*
X9207500Y4762500D02*
X8255000Y5715000D01*
X14287500Y30480000D02*
X14287500Y29527500D01*
X13335000Y28575000D01*
X9976950Y28575000D01*
X9454376Y29097574D01*
X20002500Y30480000D02*
X20002500Y31115000D01*
X17145000Y30480000D02*
X17145000Y31709760D01*
X20002500Y31115000D02*
X16827500Y34290000D01*
X17145000Y31709760D02*
X16164760Y32690000D01*
X13322500Y32690000D02*
X12382500Y31750000D01*
X16164760Y32690000D02*
X13322500Y32690000D01*
X16827500Y34290000D02*
X12200629Y34290000D01*
X10631729Y32721100D01*
X-23482470Y19252700D02*
X-24751874Y17983291D01*
X3810000Y-33020000D02*
X3810000Y-30797500D01*
X5519923Y-29087577D01*
X9486084Y-29087577D01*
X1270000Y-33020000D02*
X1270000Y-34290000D01*
X2222500Y-35242500D02*
X5080000Y-35242500D01*
X1270000Y-34290000D02*
X2222500Y-35242500D01*
X-1587500Y-33020000D02*
X-1587500Y-35242500D01*
X34290000Y-5397500D02*
X32385000Y-5397500D01*
X34290000Y-7937500D02*
X35560000Y-7937500D01*
X36830000Y-6667500D01*
X36830000Y-4762500D01*
X32385000Y-5397500D02*
X30264970Y-3277470D01*
X30264970Y-330040D02*
X30595000Y0D01*
X30264970Y-3277470D02*
X30264970Y-330040D01*
X31865000Y-2337500D02*
X31865000Y0D01*
X34290000Y-10477500D02*
X35560000Y-10477500D01*
X38417500Y-7620000D01*
X38417500Y-4012500D01*
X34405000Y0D01*
X-23177500Y-27305000D02*
X-20955000Y-27305000D01*
X-23177500Y-27305000D02*
X-27940000Y-22542500D01*
X-27940000Y-20955000D01*
X-22542500Y-25082500D02*
X-24765000Y-22860000D01*
X-24765000Y-19744103D01*
X-25779325Y-18729778D01*
X-22860000Y25400000D02*
X-24447500Y25400000D01*
X-25082500Y24765000D01*
X-22860000Y22860000D02*
X-22860000Y19875170D01*
X-23482470Y19252700D01*
X-25779326Y18729778D02*
X-25779326Y18988174D01*
X-24765000Y20002500D01*
X-24765000Y20955000D01*
X-25082500Y21272500D01*
X-25082500Y24765000D01*
X35242500Y-3175000D02*
X32702500Y-3175000D01*
X36830000Y-4762500D02*
X35242500Y-3175000D01*
X32702500Y-3175000D02*
X31865000Y-2337500D01*
X5080000Y-35242500D02*
X7302500Y-33020000D01*
X63500Y-36893500D02*
X6437620Y-36893500D01*
X10600020Y-32731098D01*
X-1587500Y-35242500D02*
X63500Y-36893500D01*
X-18097500Y-26492200D02*
X-19507200Y-25082500D01*
X-18097500Y-26492200D02*
X-18097500Y-27305000D01*
X-19507200Y-25082500D02*
X-22542500Y-25082500D01*
X-15240000Y-26324960D02*
X-23581670Y-17983290D01*
X-23581670Y-17983290D02*
X-24751873Y-17983291D01*
X-15240000Y-26324960D02*
X-15240000Y-27305000D01*
X12382500Y30342840D02*
X12382500Y31750000D01*
X12382500Y30342840D02*
X12374880Y30342840D01*
X12105640Y30073600D01*
X10078643Y30073600D01*
X9846827Y30305416D01*
X7302500Y-33020000D02*
X7302500Y-31071820D01*
X7820660Y-30553660D01*
X9605820Y-30553660D01*
X9857396Y-30302084D01*
X9207500Y4762500D02*
X13652500Y4762500D01*
X13970000Y5080000D01*
X13335000Y13335000D02*
X7899400Y13335000D01*
X7045000Y14189400D01*
X7045000Y15557500D01*
X13970000Y8890000D02*
X9169400Y8890000D01*
X8315000Y9744400D01*
X8315000Y11112500D01*
X-27834230Y24276060D02*
X-27834230Y20222752D01*
X-24170290Y27940000D02*
X-27834230Y24276060D01*
X-22860000Y27940000D02*
X-24170290Y27940000D01*
X7045000Y18685200D02*
X7045000Y20320000D01*
X7950200Y17780000D02*
X12065000Y17780000D01*
X7950200Y17780000D02*
X7045000Y18685200D01*
G54D14*
X-41254000Y-41254000D02*
X-41254000Y-33003200D01*
X-41254000Y-41254000D02*
X-33003200Y-41254000D01*
X41254000Y-41254000D02*
X33003200Y-41254000D01*
X41254000Y-41254000D02*
X41254000Y-33003200D01*
X41254000Y41254000D02*
X41254000Y33003200D01*
X41254000Y41254000D02*
X33003200Y41254000D01*
X-41254000Y41254000D02*
X-33003200Y41254000D01*
X-41254000Y41254000D02*
X-41254000Y33003200D01*
X-46254000Y-41254000D02*
X-56254000Y-41254000D01*
X-51254000Y-46254000D02*
X-51254000Y-36254000D01*
X-55003999Y-41254000D02*
G75*
D01*
G02X-55003999Y-41254000I3749999J0*
G01*
X46254000Y-41254000D02*
X56254000Y-41254000D01*
X51254000Y-46254000D02*
X51254000Y-36254000D01*
X47504001Y-41254000D02*
G75*
D01*
G02X47504001Y-41254000I3749999J0*
G01*
X50004001Y-41254000D02*
G75*
D01*
G02X50004001Y-41254000I1249999J0*
G01*
X-46254000Y41254000D02*
X-56254000Y41254000D01*
X-51254000Y36254000D02*
X-51254000Y46254000D01*
X-55003999Y41254000D02*
G75*
D01*
G02X-55003999Y41254000I3749999J0*
G01*
X-53753999Y41254000D02*
G75*
D01*
G02X-53753999Y41254000I2499999J0*
G01*
X-52503999Y41254000D02*
G75*
D01*
G02X-52503999Y41254000I1249999J0*
G01*
G54D15*
X1270000Y0D03*
X-1270000Y0D03*
X28258468Y17501081D03*
X31711419Y16510968D03*
X32942839Y14289435D03*
X29489887Y15279548D03*
X30721306Y13058016D03*
X0Y-11430000D03*
X0Y-8890000D03*
X-11430000Y0D03*
X-8890000Y0D03*
X0Y11430000D03*
X0Y8890000D03*
X-1270000Y5080000D03*
X12065000Y17780000D03*
X14287500Y30480000D03*
X17145000Y30480000D03*
X20002500Y30480000D03*
X-1587500Y-33020000D03*
X1270000Y-33020000D03*
X3810000Y-33020000D03*
X34290000Y-10477500D03*
X34290000Y-7937500D03*
X34290000Y-5397500D03*
X8890000Y0D03*
X11430000Y0D03*
X-18097500Y7620000D03*
X-18097500Y-27305000D03*
X-20955000Y-27305000D03*
X-15240000Y-27305000D03*
X-22860000Y22860000D03*
X-22860000Y25400000D03*
X13970000Y5080000D03*
X13970000Y8890000D03*
X13335000Y13335000D03*
X-22860000Y27940000D03*
G54D16*
X10730768Y-31363096D03*
X9726648Y-31670086D03*
X11102080Y-32577603D03*
X10097960Y-32884593D03*
X10359456Y-30148589D03*
X9355336Y-30455579D03*
X9988144Y-28934082D03*
X8984024Y-29241072D03*
G54D17*
X-27525642Y-20647486D03*
X-28142816Y-19798018D03*
X-26498190Y-19900999D03*
X-27115364Y-19051531D03*
X-24443286Y-18408025D03*
X-25060460Y-17558557D03*
X-25470738Y-19154512D03*
X-26087912Y-18305044D03*
G54D18*
X30595000Y0D03*
X31865000Y0D03*
X34405000Y0D03*
X33135000Y0D03*
G54D19*
X9739973Y31675492D03*
X10738583Y31351024D03*
X9347522Y30467650D03*
X10346132Y30143182D03*
X8955071Y29259808D03*
X9953681Y28935340D03*
X10132424Y32883334D03*
X11131034Y32558866D03*
G54D20*
X30480000Y18732500D03*
G54D21*
X29932774Y18889414D02*
X30323086Y18185274D01*
X31027226Y18575586D01*
X30636914Y19279726D01*
X29932774Y18889414D01*D02*
G54D22*
X5715000Y6985000D03*
X4445000Y15557500D03*
X5715000Y11112500D03*
X4445000Y20320000D03*
G54D23*
X8315000Y6985000D03*
X10915000Y6985000D03*
X9645000Y15557500D03*
X7045000Y15557500D03*
X8315000Y11112500D03*
X10915000Y11112500D03*
X7045000Y20320000D03*
X9645000Y20320000D03*
G54D24*
X-28575000Y10477500D03*
X-17462500Y10477500D03*
G54D25*
X-11430000Y5080000D03*
X22225000Y17780000D03*
X14287500Y20320000D03*
X17145000Y20320000D03*
X20002500Y20320000D03*
X-1587500Y-22860000D03*
X1270000Y-22860000D03*
X3810000Y-22860000D03*
X24130000Y-10477500D03*
X24130000Y-7937500D03*
X24130000Y-5397500D03*
X-28257500Y7620000D03*
X-18097500Y-17144999D03*
X-20955000Y-17145000D03*
X-15240000Y-17145000D03*
X-12700000Y22860000D03*
X-12700000Y25400000D03*
X24130000Y5080000D03*
X24130000Y8890000D03*
X23495000Y13335000D03*
X-12700000Y27940000D03*
G54D26*
X-29845000Y0D03*
X-36445000Y0D03*
G54D27*
X-30845000Y-2250000D02*
X-28845000Y-2250000D01*
X-28845000Y2250000D01*
X-30845000Y2250000D01*
X-30845000Y-2250000D01*D02*
X-37445000Y-2250000D02*
X-35445000Y-2250000D01*
X-35445000Y2250000D01*
X-37445000Y2250000D01*
X-37445000Y-2250000D01*D02*
X-36245000Y3700000D02*
X-31745000Y3700000D01*
X-31745000Y5700000D01*
X-36245000Y5700000D01*
X-36245000Y3700000D01*D02*
G54D28*
X-33995000Y4700000D03*
G54D29*
X-26087913Y18305044D03*
X-25470739Y19154512D03*
X-25060461Y17558557D03*
X-24443287Y18408025D03*
X-27115365Y19051531D03*
X-26498191Y19900999D03*
X-28142817Y19798018D03*
X-27525643Y20647486D03*
G54D30*
X23177500Y1587500D03*
X23177500Y-1587500D03*

M02*
