M48
METRIC,TZ
VER,1
FMAT,2
DETECT,ON
ATC,ON
T1C0.9000
T2C0.7000
T3C0.7000
T4C0.5000
T5C0.8000
T6C3.0000
%
T1
X12700Y0
X-12700
X282585Y175011
X304800Y187325
X317114Y165110
X329428Y142894
X294899Y152795
X307213Y130580
X0Y-114300
Y-88900
X-114300Y0
X-88900
X0Y114300
Y88900
X-12700Y50800
X-114300
X120650Y177800
X222250
X142875Y304800
Y203200
X171450Y304800
Y203200
X200025Y304800
Y203200
X-15875Y-330200
Y-228600
X12700Y-330200
Y-228600
X38100Y-330200
Y-228600
X342900Y-104775
X241300
X342900Y-79375
X241300
X342900Y-53975
X241300
X88900Y0
X114300
X-180975Y76200
X-282575
X-180975Y-273050
Y-171450
X-209550Y-273050
Y-171450
X-152400Y-273050
Y-171450
X-228600Y228600
X-127000
X-228600Y254000
X-127000
X139700Y50800
X241300
X139700Y88900
X241300
X133350Y133350
X234950
X-228600Y279400
X-127000
T2
X102287Y-315166
X106000Y-327311
X98574Y-303021
X94861Y-290876
X-278342Y-202228
X-268068Y-194763
X-247519Y-179833
X-257793Y-187298
X305950Y0
X318650
X344050
X331350
X102393Y315133
X98468Y303054
X94544Y290976
X106317Y327211
X-257793Y187298
X-247519Y179833
X-268068Y194763
X-278342Y202228
T3
X57150Y69850
X83150
X109150
X96450Y155575
X44450
X70450
X57150Y111125
X83150
X109150
X70450Y203200
X96450
X44450
X-285750Y104775
X-174625
T4
X-300950Y15000G85X-300950Y-15000
X-300950Y-15000G85X-295950Y-15000
X-295950Y-15000G85X-295950Y15000
X-295950Y15000G85X-300950Y15000
X-366950Y12500G85X-366950Y-12500
X-366950Y-12500G85X-361950Y-12500
X-361950Y-12500G85X-361950Y12500
X-361950Y12500G85X-366950Y12500
X-352450Y44500G85X-327450Y44500
X-327450Y44500G85X-327450Y49500
X-327450Y49500G85X-352450Y49500
X-352450Y49500G85X-352450Y44500
T5
X231775Y15875
Y-15875
T6
X303109Y-175000
X-330200Y-95250
X-60777Y344683
M30
