G04 Generated by Ultiboard 14.0 *
%FSLAX46Y46*%
%MOMM*%

%ADD11C,0.001270*%
%ADD12C,0.127000*%


G04 ColorRGB 00FFFF for the following layer *
%LNBoard Outline*%
%LPD*%
G54D10*
G54D11*
X-40999999Y0D02*
G75*
D01*
G02X-40999999Y0I40999999J0*
G01*
G54D12*
X-41254000Y-41254000D02*
X-41254000Y-33003200D01*
X-41254000Y-41254000D02*
X-33003200Y-41254000D01*
X41254000Y-41254000D02*
X33003200Y-41254000D01*
X41254000Y-41254000D02*
X41254000Y-33003200D01*
X41254000Y41254000D02*
X41254000Y33003200D01*
X41254000Y41254000D02*
X33003200Y41254000D01*
X-41254000Y41254000D02*
X-33003200Y41254000D01*
X-41254000Y41254000D02*
X-41254000Y33003200D01*
X-46254000Y-41254000D02*
X-56254000Y-41254000D01*
X-51254000Y-46254000D02*
X-51254000Y-36254000D01*
X-55003999Y-41254000D02*
G75*
D01*
G02X-55003999Y-41254000I3749999J0*
G01*
X46254000Y-41254000D02*
X56254000Y-41254000D01*
X51254000Y-46254000D02*
X51254000Y-36254000D01*
X47504001Y-41254000D02*
G75*
D01*
G02X47504001Y-41254000I3749999J0*
G01*
X50004001Y-41254000D02*
G75*
D01*
G02X50004001Y-41254000I1249999J0*
G01*
X-46254000Y41254000D02*
X-56254000Y41254000D01*
X-51254000Y36254000D02*
X-51254000Y46254000D01*
X-55003999Y41254000D02*
G75*
D01*
G02X-55003999Y41254000I3749999J0*
G01*
X-53753999Y41254000D02*
G75*
D01*
G02X-53753999Y41254000I2499999J0*
G01*
X-52503999Y41254000D02*
G75*
D01*
G02X-52503999Y41254000I1249999J0*
G01*

M02*
